<svg width="128" height="136" viewBox="0 0 128 136" fill="none" xmlns="http://www.w3.org/2000/svg">
<path d="M105.19 71.6734C105.363 76.6719 103.788 82.5979 100.7 88.1471C100.319 88.8314 99.9348 89.5365 99.358 90.0524C98.0088 91.256 97.2121 92.9008 95.9789 94.186C95.3087 94.8825 94.6297 95.5703 93.8382 96.1434C90.1075 98.8442 86.1067 101.116 82.2236 103.577C80.8865 104.425 79.3433 104.9 77.8902 105.536C74.9891 106.808 71.8767 106.634 68.8561 107.085C67.119 107.346 65.3766 107.577 63.629 107.74C61.083 107.976 58.5595 107.659 56.0707 107.167C54.7509 106.907 53.374 107.065 52.0958 106.531C51.1449 106.135 50.2824 105.567 49.309 105.208C46.1014 104.027 42.996 102.61 40.3183 100.451C39.2272 99.5719 37.8987 99.096 36.8613 98.245C35.3441 96.9997 33.6537 95.8655 32.6733 94.0575C31.0903 91.1379 29.1644 88.4163 27.6974 85.429C24.0152 77.9346 23.0903 70.1085 24.5192 61.8829C25.2535 57.6555 26.1299 53.4784 27.661 49.4924C29.3843 45.0114 31.6619 40.8326 35.6368 37.8488C38.5257 35.6812 41.4909 33.6457 44.6292 31.848C47.4904 30.2102 50.3725 28.6419 53.516 27.6154C54.8964 27.1638 56.3339 26.9936 57.7715 26.9051C59.9832 26.7696 62.1776 26.556 64.3772 26.2572C66.7968 25.9272 69.1887 26.4292 71.5511 27.0232C75.9244 28.1226 80.024 29.8993 83.843 32.2493C88.5938 35.1723 92.8042 38.8231 96.2509 43.1982C99.8291 47.74 102.964 52.5961 103.932 58.51C104.571 62.4178 105.145 66.3274 105.19 71.6734ZM47.8749 73.6082C47.8801 75.9702 48.0083 77.8929 48.7842 79.7114C48.9505 80.1004 49.1912 80.4947 49.6883 80.2463C50.1369 80.0205 49.9447 79.6193 49.8113 79.258C48.9557 76.9238 48.8518 74.5009 49.1809 72.0815C49.7559 67.8471 51.8117 64.4621 55.1596 61.7908C58.3136 59.2742 61.8572 58.0897 65.8442 58.4075C68.8232 58.6455 71.5286 59.8404 74.1092 61.2941C76.2136 62.4804 77.6442 64.212 78.2435 66.6036C78.841 68.983 79.1025 71.3729 78.5448 73.7905C78.3474 74.645 77.9716 75.4284 77.206 75.9529C75.5399 77.094 73.1064 76.9081 71.584 75.5795C70.3058 74.4644 69.4987 73.0472 68.8458 71.5222C68.4318 70.5566 67.9053 69.6656 67.2263 68.8701C65.3056 66.6209 61.6476 66.7182 59.9087 69.0785C58.2841 71.286 58.1802 73.8044 58.8609 76.2881C60.1443 80.9758 62.834 84.6561 67.2212 86.9365C67.7078 87.1901 68.3348 87.8918 68.773 87.1137C69.2025 86.3478 68.3175 86.115 67.8222 85.8597C63.7104 83.739 61.2683 80.2828 60.0525 75.9268C59.4446 73.7454 59.5866 71.5639 61.0259 69.643C61.5368 68.9622 62.1898 68.4446 63.0471 68.4637C64.644 68.5002 66.078 68.9622 66.899 70.5027C67.4428 71.5222 67.9053 72.5869 68.482 73.5873C69.9282 76.1022 71.7052 78.077 74.9925 77.8912C77.6234 77.7418 79.5632 76.0432 79.92 73.431C80.1539 71.7237 80.1487 70.0251 79.8975 68.3334C79.442 65.2541 78.2608 62.5794 75.5883 60.7349C74.3379 59.8717 72.9557 59.302 71.5909 58.6906C68.5548 57.3289 65.3991 56.7106 62.0685 57.2855C54.6245 58.5725 47.6688 65.5198 47.8749 73.6082ZM66.6531 62.9615C70.1828 62.6575 73.316 66.5879 74.1612 69.973C74.3136 70.5809 74.2443 71.1697 74.1231 71.7723C74.0521 72.1249 74.1439 72.5088 74.5561 72.6095C74.9856 72.7137 75.1883 72.4046 75.2714 72.0363C75.3476 71.7011 75.4325 71.3555 75.4307 71.0151C75.4221 67.7777 73.6901 65.3843 71.3225 63.5433C68.5392 61.3792 65.2796 61.4122 61.9906 62.2858C55.4039 64.0365 51.6836 69.9087 53.0518 76.5851C53.6909 79.7044 55.3969 82.334 57.3506 84.7916C57.8494 85.4186 58.4331 85.9969 59.1259 86.4311C59.4446 86.6326 59.8014 86.6951 60.0438 86.3321C60.2724 85.99 60.03 85.7364 59.7806 85.5193C59.4757 85.2553 59.1501 85.0121 58.8609 84.7325C57.0562 82.9922 55.9148 80.8056 54.9535 78.5459C53.2112 74.4505 53.6649 70.4871 56.4846 67.0742C58.7587 64.3231 61.9438 63.123 66.6531 62.9615ZM81.4857 60.1825C81.4753 60.1252 81.4719 60.0679 81.4546 60.0123C81.3455 59.6737 80.9748 59.6302 80.767 59.3819C77.8399 55.8735 73.9863 53.9161 69.6615 52.7576C67.0739 52.0646 64.4673 52.2296 61.8607 52.6065C58.3534 53.1154 54.9622 53.9786 51.9711 56.0038C50.149 57.2369 48.4378 58.6038 47.0505 60.3319C46.7613 60.6932 46.4253 61.1482 46.9379 61.539C47.4264 61.9142 47.6377 61.3705 47.8784 61.0874C49.5428 59.1266 51.5294 57.5738 53.7671 56.3251C56.6994 54.6872 59.9105 54.1106 63.1926 53.7042C67.8793 53.1224 72.0915 54.3295 76.011 56.8357C77.5819 57.8396 78.9588 59.0519 80.1019 60.5264C80.3703 60.8738 80.6942 60.9659 81.0926 60.7991C81.361 60.6845 81.4857 60.4709 81.4857 60.1825ZM75.067 51.1737C75.4619 51.2014 75.7633 51.0555 75.8378 50.6474C75.9036 50.2809 75.7234 50.0465 75.3441 49.9648C75.1796 49.9284 75.0185 49.8485 74.8678 49.7686C71.1649 47.7695 67.287 46.71 63.0107 47.0053C60.0092 47.2137 57.1497 47.8563 54.3508 48.8758C53.4051 49.2215 52.4785 49.6487 51.8221 50.4789C51.6108 50.7481 51.448 51.0156 51.7667 51.3109C52.0698 51.5905 52.3833 51.4845 52.6084 51.2344C53.0103 50.7916 53.5108 50.5223 54.0356 50.2809C56.0932 49.3309 58.2547 48.7161 60.4941 48.4364C62.5552 48.1794 64.6457 48.0265 66.7085 48.2836C69.3896 48.6171 71.9252 49.4837 74.2617 50.8836C74.5093 51.0312 74.7622 51.1823 75.067 51.1737ZM75.1536 84.175C75.6143 84.1472 76.0785 84.1489 76.5323 84.0847C76.9272 84.0291 77.2857 83.8311 77.232 83.3604C77.1783 82.8811 76.7886 82.8029 76.3833 82.8342C75.8672 82.8724 75.3424 83.0113 74.8384 82.9575C69.5212 82.4017 64.7236 78.6536 64.1607 72.6772C64.1244 72.2951 64.1192 71.8505 63.5961 71.8748C63.0592 71.9009 62.9639 72.3455 63.0367 72.771C63.4333 75.1227 63.9668 77.4118 65.5792 79.3049C68.1027 82.2714 71.248 83.9509 75.1536 84.175Z" fill="#4EDFBC"/>
<path d="M26.3638 22.2977C25.8962 22.2908 25.6901 22.0233 25.5169 21.768C24.3824 20.0885 23.4905 18.2787 22.718 16.4082C22.5656 16.0382 22.6002 15.703 22.9934 15.5345C23.3831 15.3678 23.6654 15.5797 23.8334 15.9271C24.211 16.7052 24.5643 17.4954 24.9401 18.2753C25.4424 19.3156 25.9655 20.3455 26.6929 21.2522C26.8696 21.4727 26.944 21.7176 26.8315 21.9782C26.7293 22.2074 26.5128 22.2943 26.3638 22.2977Z" fill="#4EDFBC"/>
<path d="M74.9632 0.835358C74.4037 2.41934 74.2132 4.20132 73.4044 5.7853C73.2191 6.14656 73.0043 6.67802 72.4484 6.42445C71.8976 6.17261 72.173 5.70888 72.3029 5.29551C72.7896 3.75495 73.2555 2.20918 73.7439 0.668623C73.8582 0.305627 74.0227 -0.07821 74.5129 0.0138415C74.9008 0.0850511 74.9597 0.41331 74.9632 0.835358Z" fill="#4EDFBC"/>
<path d="M112.311 27.9104C112.296 28.197 112.105 28.3828 111.918 28.5617C110.722 29.7011 109.272 30.5122 108.004 31.5612C107.781 31.747 107.512 31.7488 107.296 31.5386C107.057 31.3076 107.036 31.0072 107.225 30.7501C107.391 30.5208 107.609 30.3176 107.834 30.144C108.977 29.2651 110.133 28.4019 111.283 27.5318C111.525 27.3477 111.773 27.2209 112.076 27.3928C112.282 27.5075 112.32 27.6985 112.311 27.9104Z" fill="#4EDFBC"/>
<path d="M126.636 66.5446C126.447 66.7606 126.183 66.7895 125.925 66.815C124.28 66.9743 122.639 66.7192 120.994 66.7635C120.703 66.7721 120.491 66.608 120.45 66.309C120.404 65.9798 120.573 65.7304 120.88 65.6444C121.153 65.5664 121.45 65.541 121.734 65.543C123.176 65.5558 124.618 65.5884 126.06 65.6122C126.364 65.6168 126.637 65.6696 126.77 65.9919C126.861 66.2092 126.774 66.3831 126.636 66.5446Z" fill="#4EDFBC"/>
<path d="M3.60036 66.4505C2.96819 66.4193 2.33429 66.4036 1.70385 66.3515C1.34186 66.322 0.995466 66.1848 0.993734 65.7436C0.99027 65.2191 1.41807 65.1653 1.79044 65.1635C2.50922 65.1618 3.22799 65.2122 3.94503 65.24C4.64301 65.2678 5.32541 65.2261 5.94546 64.844C6.24683 64.6581 6.56897 64.6321 6.77335 64.9777C6.96213 65.299 6.83916 65.5943 6.56724 65.8201C6.11 66.2022 5.58175 66.4123 4.98248 66.4193C4.52178 66.4245 4.06107 66.421 3.60036 66.421C3.60036 66.4314 3.60036 66.4418 3.60036 66.4505Z" fill="#4EDFBC"/>
<path d="M25.6259 125.03C25.2726 124.791 24.85 124.56 25.0821 124.023C25.2276 123.688 25.4095 123.347 25.6537 123.082C26.4885 122.175 27.3579 121.301 28.2118 120.414C28.4941 120.12 28.8163 119.914 29.1852 120.212C29.5471 120.506 29.296 120.864 29.1419 121.147C28.9946 121.414 28.7643 121.643 28.5391 121.857C27.6679 122.682 26.7708 123.484 26.2252 124.584C26.0918 124.843 25.8702 124.935 25.6259 125.03Z" fill="#4EDFBC"/>
<path d="M72.1711 134.301C72.1797 134.678 72.029 135.005 71.7052 135.069C71.3934 135.132 71.1163 134.876 70.9812 134.572C70.569 133.64 70.3404 132.648 70.1013 131.661C70.0199 131.328 70.0269 130.954 69.871 130.664C69.6614 130.274 69.8208 130.043 70.1135 129.911C70.4529 129.754 70.8998 129.853 71.0054 130.19C71.4384 131.545 71.79 132.928 72.1711 134.301Z" fill="#4EDFBC"/>
<path d="M109.3 117.865C109.496 118.188 109.529 118.546 109.28 118.763C109.042 118.973 108.674 118.891 108.405 118.695C107.582 118.093 106.888 117.349 106.187 116.614C105.95 116.366 105.77 116.039 105.49 115.866C105.113 115.632 105.135 115.352 105.323 115.092C105.538 114.787 105.975 114.649 106.235 114.888C107.287 115.845 108.283 116.866 109.3 117.865Z" fill="#4EDFBC"/>
<path d="M47.8749 73.6082C47.6706 65.5198 54.6245 58.5725 62.0668 57.2873C65.3974 56.7124 68.553 57.3307 71.5892 58.6923C72.954 59.3037 74.3361 59.8734 75.5866 60.7366C78.259 62.5811 79.4403 65.2558 79.8958 68.3352C80.1469 70.0251 80.1504 71.7237 79.9183 73.4327C79.5615 76.0449 77.6217 77.7435 74.9908 77.8929C71.7035 78.0787 69.9265 76.104 68.4803 73.5891C67.9053 72.5886 67.4411 71.524 66.8973 70.5045C66.0763 68.9639 64.6422 68.5019 63.0453 68.4654C62.1863 68.4446 61.5351 68.9639 61.0241 69.6447C59.5831 71.5657 59.4411 73.7471 60.0508 75.9286C61.2666 80.2845 63.7087 83.7408 67.8204 85.8614C68.3158 86.1167 69.2008 86.3495 68.7713 87.1154C68.3348 87.8935 67.7061 87.1918 67.2194 86.9383C62.8306 84.6578 60.1426 80.9775 58.8592 76.2898C58.1785 73.8062 58.2824 71.2878 59.907 69.0803C61.6459 66.7182 65.3021 66.6227 67.2246 68.8718C67.9053 69.6673 68.4318 70.56 68.844 71.524C69.497 73.0489 70.3041 74.4661 71.5823 75.5812C73.1047 76.9099 75.5381 77.0957 77.2043 75.9546C77.9681 75.4318 78.3456 74.6468 78.5431 73.7923C79.1025 71.3746 78.8393 68.9847 78.2417 66.6053C77.6407 64.2137 76.2119 62.4821 74.1075 61.2958C71.5268 59.8404 68.8215 58.6472 65.8425 58.4092C61.8555 58.0897 58.3118 59.2742 55.1579 61.7926C51.81 64.4638 49.7559 67.8489 49.1791 72.0832C48.85 74.5026 48.954 76.9255 49.8096 79.2598C49.9429 79.621 50.1352 80.0222 49.6866 80.248C49.1912 80.4981 48.9488 80.1021 48.7825 79.7131C48.0083 77.8929 47.8801 75.9685 47.8749 73.6082Z" fill="white"/>
<path d="M66.6531 62.9613C61.9438 63.1229 58.7587 64.323 56.4846 67.0741C53.6649 70.487 53.2112 74.4487 54.9535 78.5458C55.9148 80.8054 57.0544 82.9921 58.8609 84.7324C59.1501 85.012 59.4757 85.2552 59.7806 85.5192C60.03 85.7363 60.2742 85.9898 60.0438 86.332C59.8013 86.695 59.4446 86.6325 59.1259 86.431C58.4348 85.9968 57.8494 85.4184 57.3506 84.7914C55.3987 82.3356 53.6909 79.7043 53.0518 76.5849C51.6836 69.9104 55.4038 64.0382 61.9906 62.2857C65.2796 61.4121 68.5392 61.3791 71.3225 63.5432C73.6901 65.3842 75.4221 67.7775 75.4307 71.015C75.4325 71.3554 75.3476 71.701 75.2714 72.0362C75.1865 72.4044 74.9839 72.7136 74.5561 72.6094C74.1439 72.5086 74.0521 72.1248 74.1231 71.7722C74.2461 71.1695 74.3136 70.5808 74.1612 69.9729C73.316 66.5878 70.1811 62.6574 66.6531 62.9613Z" fill="white"/>
<path d="M81.4856 60.1827C81.4856 60.471 81.3609 60.6864 81.0925 60.7976C80.6941 60.9643 80.372 60.8722 80.1018 60.5249C78.9587 59.0503 77.5817 57.838 76.0108 56.8341C72.0914 54.3296 67.8792 53.1225 63.1925 53.7026C59.9104 54.1108 56.6993 54.6857 53.767 56.3235C51.531 57.5723 49.5427 59.1267 47.8783 61.0859C47.6375 61.369 47.4262 61.9126 46.9378 61.5374C46.4269 61.1449 46.7612 60.6916 47.0504 60.3304C48.4377 58.6022 50.1489 57.2353 51.971 56.0022C54.9621 53.9788 58.3533 53.1139 61.8606 52.605C64.4672 52.2281 67.0738 52.0631 69.6614 52.7561C73.9862 53.9145 77.8398 55.8719 80.7669 59.3803C80.973 59.6287 81.3453 59.6721 81.4544 60.0108C81.4718 60.0664 81.4752 60.1254 81.4856 60.1827Z" fill="white"/>
<path d="M75.067 51.1738C74.7622 51.1825 74.5093 51.0313 74.2634 50.8837C71.927 49.4838 69.3931 48.6172 66.7102 48.2837C64.6475 48.0266 62.557 48.1795 60.4959 48.4365C58.2564 48.7162 56.0949 49.331 54.0373 50.281C53.5126 50.5242 53.0103 50.7917 52.6102 51.2346C52.385 51.4847 52.0715 51.5906 51.7685 51.311C51.4498 51.0157 51.6126 50.7482 51.8239 50.479C52.4803 49.6471 53.4069 49.2198 54.3526 48.8759C57.1497 47.8564 60.0092 47.2138 63.0125 47.0054C67.287 46.7084 71.1666 47.7678 74.8696 49.7687C75.0203 49.8503 75.1796 49.9302 75.3459 49.9649C75.7252 50.0483 75.9053 50.281 75.8395 50.6475C75.7633 51.0557 75.4619 51.2016 75.067 51.1738Z" fill="white"/>
<path d="M75.1536 84.1753C71.248 83.9512 68.101 82.27 65.5775 79.3052C63.965 77.4121 63.4316 75.123 63.0349 72.7713C62.9639 72.3458 63.0575 71.9012 63.5944 71.8751C64.1174 71.8491 64.1226 72.2937 64.159 72.6775C64.7219 78.6539 69.5195 82.402 74.8367 82.9578C75.3424 83.0099 75.8654 82.8727 76.3816 82.8345C76.7869 82.8049 77.1766 82.8813 77.2302 83.3607C77.2839 83.8314 76.9254 84.0294 76.5305 84.085C76.0785 84.1492 75.6143 84.1492 75.1536 84.1753Z" fill="white"/>
</svg>
