<svg width="114" height="114" viewBox="0 0 114 114" fill="none" xmlns="http://www.w3.org/2000/svg">
<path fill-rule="evenodd" clip-rule="evenodd" d="M35.0704 29.9695C35.0701 29.9697 35.0699 29.9699 35.0697 29.97C35.0695 29.9701 35.0694 29.9702 35.0692 29.9703L35.069 29.9705C34.4438 30.4225 33.5705 30.2826 33.1177 29.6577C32.6646 29.0324 32.8041 28.1582 33.4295 27.7051L34.223 28.8002C33.4295 27.7051 33.4299 27.7048 33.4303 27.7044L33.4314 27.7036L33.4342 27.7016L33.4424 27.6958L33.4687 27.677C33.4908 27.6614 33.5217 27.6397 33.5613 27.6123C33.6406 27.5575 33.7549 27.4799 33.903 27.3828C34.1992 27.1885 34.6307 26.9159 35.1881 26.5912C36.3024 25.9422 37.9225 25.0834 39.9712 24.2263C44.0652 22.5136 49.8977 20.7969 56.8382 20.7969C63.7797 20.7969 69.5726 22.5139 73.6284 24.2283C75.6578 25.0861 77.2583 25.9458 78.3581 26.5957C78.9082 26.9208 79.3337 27.1938 79.6257 27.3886C79.7717 27.4859 79.8844 27.5638 79.9627 27.6188C80.0018 27.6463 80.0324 27.6681 80.0542 27.6838C80.0651 27.6916 80.0738 27.698 80.0803 27.7027L80.0884 27.7086L80.0912 27.7107L80.0923 27.7115C80.0928 27.7118 80.0932 27.7122 79.263 28.8373L80.0932 27.7122C80.7146 28.1706 80.8467 29.0461 80.3882 29.6675C79.93 30.2884 79.0554 30.4207 78.4341 29.9634C78.4341 29.9633 78.4341 29.9633 78.434 29.9633C78.4339 29.9632 78.4337 29.9631 78.4336 29.9629C78.4333 29.9628 78.4331 29.9626 78.4329 29.9624L78.4326 29.9623L78.4194 29.9527C78.4063 29.9433 78.3847 29.9278 78.3546 29.9066C78.2944 29.8644 78.2006 29.7995 78.0743 29.7152C77.8215 29.5467 77.4389 29.3008 76.9353 29.0032C75.9276 28.4077 74.4387 27.6069 72.5396 26.8041C68.7386 25.1974 63.3191 23.5934 56.8382 23.5934C50.3568 23.5934 44.8951 25.1977 41.0505 26.8061C39.1299 27.6096 37.6195 28.4113 36.5956 29.0077C36.0839 29.3057 35.6945 29.552 35.437 29.721C35.3082 29.8055 35.2125 29.8706 35.1509 29.9131C35.1202 29.9343 35.098 29.9499 35.0845 29.9595L35.0708 29.9692L35.0704 29.9695Z" fill="#4EDFBC"/>
<path fill-rule="evenodd" clip-rule="evenodd" d="M26.1267 48.6811C26.1265 48.6814 26.1263 48.6817 26.1261 48.6821C26.126 48.6822 26.1259 48.6824 26.1258 48.6826C25.7352 49.3479 24.8795 49.5712 24.2136 49.1814C23.5471 48.7913 23.3231 47.9348 23.7133 47.2683L24.92 47.9747C23.7133 47.2683 23.7136 47.2677 23.714 47.267L23.7151 47.2653L23.7178 47.2606L23.726 47.2469C23.7326 47.2357 23.7417 47.2205 23.7533 47.2014C23.7764 47.1633 23.8093 47.1098 23.8521 47.0417C23.9377 46.9057 24.0629 46.7118 24.2282 46.4683C24.5589 45.9814 25.0507 45.2955 25.7088 44.4771C27.024 42.8414 29.0093 40.6688 31.7054 38.4972C37.1059 34.1472 45.3655 29.7993 56.7568 29.7993C68.1406 29.7993 76.3571 34.0599 81.7196 38.3288C84.3962 40.4595 86.3619 42.5916 87.6628 44.1974C88.3137 45.0008 88.7996 45.6744 89.1261 46.1527C89.2894 46.3919 89.413 46.5825 89.4976 46.7164C89.5398 46.7834 89.5724 46.8361 89.5953 46.8737C89.6026 46.8857 89.6089 46.8962 89.6142 46.9051C89.6173 46.9101 89.62 46.9146 89.6224 46.9186L89.6305 46.9323L89.6342 46.9386C89.6347 46.9394 89.635 46.94 88.4292 47.6479L89.635 46.94C90.026 47.606 89.803 48.4628 89.1371 48.8537C88.4716 49.2444 87.6156 49.022 87.2243 48.3573C87.2242 48.3571 87.2241 48.3569 87.224 48.3567C87.2238 48.3564 87.2236 48.3561 87.2234 48.3558L87.2219 48.3533C87.2197 48.3495 87.2159 48.3433 87.2106 48.3346L87.2064 48.3277C87.1914 48.303 87.167 48.2634 87.1332 48.2099C87.0656 48.1028 86.9602 47.9399 86.8164 47.7294C86.5288 47.3081 86.0883 46.6964 85.4898 45.9577C84.292 44.479 82.4675 42.4986 79.9779 40.5167C75.008 36.5603 67.3883 32.5958 56.7568 32.5958C46.1323 32.5958 38.4735 36.6365 33.4596 40.6751C30.9484 42.6978 29.1024 44.7194 27.8882 46.2295C27.2815 46.9839 26.8341 47.6087 26.5417 48.0394C26.3955 48.2546 26.2882 48.4212 26.2191 48.5309C26.1846 48.5857 26.1597 48.6263 26.1443 48.6517C26.1366 48.6644 26.1313 48.6733 26.1284 48.6782L26.1267 48.6811Z" fill="#4EDFBC"/>
<path fill-rule="evenodd" clip-rule="evenodd" d="M56.8384 40.9845C34.8513 40.9845 24.0634 63.2775 33.4313 80.4515C33.8011 81.1294 33.5513 81.9788 32.8733 82.3486C32.1954 82.7184 31.346 82.4686 30.9763 81.7906C20.702 62.9549 32.5029 38.188 56.8384 38.188C68.8803 38.188 76.2672 43.2601 80.5835 49.4004C84.8434 55.4607 86.0511 62.4638 86.0102 66.4012C85.9835 68.9844 85.2602 71.3749 83.4919 73.2534C81.7422 75.1123 79.1223 76.3066 75.6181 76.8283C75.6128 76.8292 75.6072 76.8302 75.6012 76.8312C75.5725 76.8361 75.5361 76.8418 75.4924 76.8478C75.4051 76.8598 75.2882 76.873 75.1453 76.8826C74.8599 76.902 74.4677 76.9076 73.9972 76.8609C73.0536 76.7671 71.7939 76.4619 70.4641 75.6379C67.7675 73.967 65.0901 70.3677 63.8879 63.014L65.2678 62.7884L63.8879 63.014C63.8879 63.014 63.8879 63.014 63.8879 63.014C63.6061 61.2908 62.76 60.1682 61.5731 59.4376C60.337 58.6767 58.6451 58.2938 56.6744 58.2938C53.0298 58.2938 50.1056 60.2803 49.2182 64.0843C49.2211 64.0564 49.2239 64.0284 49.2268 64.0003L47.8359 63.8568L49.2003 64.1629C49.2062 64.1367 49.2122 64.1105 49.2182 64.0843C48.1287 74.9227 53.1265 81.2785 58.4296 85.0021C61.1136 86.8867 63.8813 88.0948 65.9869 88.8316C67.037 89.199 67.9149 89.4466 68.525 89.6013C68.8299 89.6786 69.0673 89.7326 69.2252 89.7666C69.3042 89.7837 69.3632 89.7957 69.4008 89.8031C69.4196 89.8069 69.433 89.8095 69.4409 89.811L69.4476 89.8123L69.1965 91.1878C68.9454 92.5633 68.9447 92.5631 68.9438 92.563L68.9417 92.5626L68.9359 92.5615L68.9178 92.5581C68.9117 92.557 68.9048 92.5556 68.8969 92.5541C68.8853 92.5518 68.8717 92.5492 68.8562 92.5461C68.8042 92.5358 68.7302 92.5207 68.6359 92.5003C68.4473 92.4597 68.1771 92.3981 67.8376 92.312C67.1591 92.1399 66.2013 91.8693 65.0633 91.4712C62.7929 90.6768 59.7755 89.3642 56.8226 87.2908C50.8657 83.1081 45.1953 75.8215 46.4451 63.7132C46.4507 63.6585 46.4596 63.6042 46.4716 63.5506C47.6523 58.2897 51.833 55.4973 56.6744 55.4973C58.9594 55.4973 61.2163 55.934 63.0391 57.0562C64.9111 58.2086 66.2339 60.0324 66.6477 62.5627L66.6477 62.5628C67.7695 69.4248 70.1534 72.1556 71.9371 73.2608C72.8473 73.8248 73.6826 74.0193 74.2738 74.0781C74.5708 74.1076 74.8059 74.1027 74.9561 74.0926C75.031 74.0875 75.0839 74.0811 75.1119 74.0773C75.1206 74.0761 75.1268 74.0751 75.1306 74.0746C75.1314 74.0744 75.1321 74.0743 75.1327 74.0742C75.1287 74.075 75.1247 74.0757 75.1206 74.0765M75.1206 74.0765L75.1213 74.0764L75.1252 74.0757L75.1309 74.0746C75.1338 74.074 75.135 74.0738 75.1345 74.0739C75.1343 74.074 75.1337 74.0741 75.1327 74.0742C75.1503 74.0709 75.1681 74.0679 75.1858 74.0653C78.3117 73.6031 80.2708 72.5954 81.4556 71.3367C82.6258 70.0936 83.1924 68.4442 83.2138 66.3722L83.2138 66.3721C83.25 62.8911 82.1515 56.494 78.2956 51.0086C74.4961 45.6034 67.9577 40.9845 56.8384 40.9845M69.4487 89.8124C69.4483 89.8124 69.448 89.8123 69.4476 89.8123L69.4485 89.8124L69.4487 89.8124ZM69.4487 89.8124C70.2078 89.9516 70.7107 90.6796 70.572 91.4389C70.4333 92.1986 69.7051 92.702 68.9454 92.5633L69.1965 91.1878C69.4476 89.8123 69.4482 89.8124 69.4487 89.8124Z" fill="#4EDFBC"/>
<path fill-rule="evenodd" clip-rule="evenodd" d="M42.3541 52.2983C46.9824 47.7453 56.8707 43.0645 67.7385 49.9877C73.1658 53.4454 75.418 57.9545 76.2861 61.617C76.7172 63.4354 76.8059 65.0356 76.7864 66.1871C76.7766 66.7638 76.7396 67.2313 76.7039 67.5613C76.686 67.7264 76.6684 67.8575 76.6546 67.951C76.6476 67.9978 76.6417 68.0352 76.6371 68.0629C76.6348 68.0767 76.6328 68.0881 76.6313 68.097L76.6292 68.1084L76.6281 68.1145C76.628 68.1153 76.6278 68.1161 75.2527 67.863L76.6278 68.1161C76.4881 68.8755 75.7591 69.3779 74.9996 69.2381C74.2415 69.0986 73.7396 68.372 73.8768 67.614C73.877 67.6128 73.8773 67.6112 73.8775 67.6099L75.2093 67.855C73.8775 67.6099 73.8774 67.6106 73.8773 67.6112L73.8785 67.604C73.8804 67.5925 73.8838 67.5717 73.8881 67.542C73.8969 67.4825 73.9099 67.3874 73.9237 67.2602C73.9512 67.0055 73.9821 66.6231 73.9903 66.1397C74.0067 65.1709 73.9318 63.8094 73.565 62.262C72.8376 59.1929 70.957 55.354 66.2359 52.3463C56.8059 46.3389 48.3356 50.3368 44.3152 54.2919C42.706 55.8749 41.3266 58.4894 40.4656 61.5491C39.6095 64.5914 39.3079 67.9278 39.7264 70.857C40.1475 73.8047 41.4291 77.4867 43.4174 81.0182C45.405 84.5485 48.0446 87.832 51.1115 90.0556C51.7367 90.5089 51.8761 91.3832 51.4228 92.0084C50.9695 92.6336 50.0952 92.7729 49.47 92.3197C45.9899 89.7964 43.1054 86.1642 40.9805 82.3901C38.8563 78.6172 37.4372 74.6062 36.958 71.2525C36.4761 67.8799 36.8292 64.148 37.7737 60.7916C38.7132 57.4527 40.2803 54.3383 42.3541 52.2983Z" fill="#4EDFBC"/>
<path fill-rule="evenodd" clip-rule="evenodd" d="M56.0873 62.621C56.8578 62.5681 57.5252 63.1497 57.5782 63.9201C57.9716 69.6442 59.621 73.474 61.7598 76.0467C63.9008 78.6221 66.6259 80.0506 69.3638 80.8063C72.113 81.5652 74.8422 81.635 76.9052 81.5067C77.9318 81.4429 78.7809 81.3307 79.3685 81.2357C79.662 81.1882 79.8893 81.1451 80.0399 81.1147C80.1151 81.0995 80.1712 81.0875 80.2066 81.0796C80.2243 81.0757 80.2369 81.0729 80.2441 81.0712L80.2497 81.07L80.2508 81.0697C81.0018 80.892 81.7548 81.3564 81.9331 82.1074C82.1115 82.8588 81.647 83.6125 80.8957 83.7908L80.5943 82.5215C80.8956 83.7908 80.8949 83.791 80.8941 83.7912L80.8919 83.7917L80.8861 83.7931L80.8683 83.7972C80.8536 83.8005 80.8335 83.8051 80.8081 83.8107C80.7574 83.8219 80.6854 83.8373 80.5936 83.8558C80.4101 83.8929 80.147 83.9426 79.8152 83.9963C79.152 84.1036 78.2108 84.2274 77.0788 84.2978C74.8245 84.438 71.7632 84.3697 68.6197 83.502C65.4648 82.6311 62.1949 80.9446 59.6094 77.8345C57.0217 74.7217 55.2132 70.2958 54.7883 64.1118C54.7353 63.3414 55.3169 62.674 56.0873 62.621Z" fill="#4EDFBC"/>
<path fill-rule="evenodd" clip-rule="evenodd" d="M56.8953 2.7965C27.0387 2.7965 2.7965 27.0387 2.7965 56.8953C2.7965 86.7518 27.0387 110.994 56.8953 110.994C86.7518 110.994 110.994 86.7518 110.994 56.8953C110.994 27.0387 86.7518 2.7965 56.8953 2.7965ZM0 56.8953C0 25.4942 25.4942 0 56.8953 0C88.2963 0 113.791 25.4942 113.791 56.8953C113.791 88.2963 88.2963 113.791 56.8953 113.791C25.4942 113.791 0 88.2963 0 56.8953Z" fill="#4EDFBC"/>
</svg>
