<svg width="121" height="121" viewBox="0 0 121 121" fill="none" xmlns="http://www.w3.org/2000/svg">
<rect width="120" height="120" transform="translate(0.5 0.662231)" fill="white"/>
<path fill-rule="evenodd" clip-rule="evenodd" d="M41.7694 37.554C41.7693 37.5542 41.7691 37.5543 41.7689 37.5544C41.7687 37.5545 41.7686 37.5546 41.7685 37.5547L41.7683 37.5549C41.2317 37.9427 40.4822 37.8227 40.0936 37.2864C39.7047 36.7498 39.8245 35.9995 40.3612 35.6106L41.0422 36.5505C40.3612 35.6106 40.3616 35.6103 40.3619 35.6101L40.3629 35.6094L40.3653 35.6077L40.3723 35.6026L40.3949 35.5865C40.4138 35.5732 40.4403 35.5545 40.4744 35.531C40.5424 35.484 40.6405 35.4174 40.7676 35.334C41.0218 35.1673 41.3921 34.9333 41.8705 34.6547C42.8268 34.0977 44.2172 33.3606 45.9754 32.6251C49.489 31.1552 54.4945 29.6819 60.451 29.6819C66.4083 29.6819 71.3799 31.1555 74.8606 32.6268C76.6022 33.363 77.9759 34.1008 78.9197 34.6585C79.3918 34.9375 79.757 35.1719 80.0076 35.339C80.1329 35.4225 80.2296 35.4893 80.2968 35.5366C80.3304 35.5602 80.3566 35.5789 80.3753 35.5924C80.3847 35.5991 80.3921 35.6045 80.3977 35.6086L80.4047 35.6137L80.4071 35.6154L80.408 35.6161C80.4084 35.6164 80.4088 35.6167 79.6963 36.5823L80.4088 35.6167C80.9421 36.0102 81.0554 36.7615 80.662 37.2948C80.2687 37.8277 79.5182 37.9413 78.9849 37.5487C78.9849 37.5487 78.9849 37.5487 78.9849 37.5487C78.9847 37.5486 78.9846 37.5485 78.9845 37.5484C78.9843 37.5482 78.9841 37.5481 78.9839 37.5479L78.9837 37.5478L78.9723 37.5396C78.9611 37.5315 78.9425 37.5182 78.9167 37.5C78.8651 37.4637 78.7846 37.4081 78.6761 37.3358C78.4592 37.1911 78.1308 36.9801 77.6986 36.7247C76.8338 36.2136 75.556 35.5263 73.9262 34.8374C70.6641 33.4585 66.013 32.0819 60.451 32.0819C54.8885 32.0819 50.2012 33.4588 46.9017 34.8391C45.2534 35.5287 43.9572 36.2167 43.0785 36.7285C42.6393 36.9843 42.3051 37.1957 42.0841 37.3407C41.9736 37.4132 41.8914 37.4691 41.8386 37.5056C41.8122 37.5238 41.7932 37.5372 41.7816 37.5454L41.7699 37.5537L41.7694 37.554Z" fill="#B8B8B8"/>
<path fill-rule="evenodd" clip-rule="evenodd" d="M34.0942 53.6126C34.094 53.6128 34.0939 53.6131 34.0937 53.6134C34.0936 53.6135 34.0935 53.6137 34.0934 53.6138C33.7583 54.1848 33.0239 54.3765 32.4524 54.0419C31.8804 53.7071 31.6882 52.9721 32.023 52.4001L33.0586 53.0063C32.023 52.4001 32.0233 52.3996 32.0237 52.3989L32.0245 52.3975L32.0269 52.3935L32.0339 52.3817C32.0396 52.3721 32.0474 52.3591 32.0573 52.3427C32.0772 52.31 32.1054 52.264 32.1422 52.2056C32.2156 52.0889 32.323 51.9224 32.4649 51.7135C32.7487 51.2957 33.1708 50.707 33.7356 50.0046C34.8644 48.6009 36.5681 46.7363 38.8819 44.8726C43.5168 41.1393 50.6053 37.4079 60.3815 37.4079C70.1513 37.4079 77.2028 41.0644 81.805 44.728C84.1021 46.5566 85.7891 48.3864 86.9055 49.7645C87.4641 50.4541 87.8811 51.0321 88.1614 51.4426C88.3015 51.648 88.4076 51.8115 88.4802 51.9264C88.5164 51.9839 88.5444 52.0292 88.564 52.0614C88.5703 52.0718 88.5757 52.0807 88.5803 52.0884C88.5829 52.0927 88.5852 52.0965 88.5873 52.1L88.5942 52.1117L88.5975 52.1172C88.5978 52.1178 88.5982 52.1183 87.5633 52.7258L88.5982 52.1183C88.9337 52.6899 88.7423 53.4252 88.1708 53.7607C87.5997 54.096 86.8651 53.9052 86.5292 53.3346C86.5291 53.3345 86.529 53.3343 86.5289 53.3342C86.5288 53.3339 86.5286 53.3336 86.5284 53.3333L86.5272 53.3312C86.5252 53.328 86.522 53.3226 86.5175 53.3152L86.5139 53.3092C86.501 53.2881 86.4801 53.2541 86.4511 53.2081C86.393 53.1162 86.3025 52.9765 86.1792 52.7958C85.9324 52.4342 85.5543 51.9093 85.0407 51.2753C84.0127 50.0063 82.4469 48.3066 80.3102 46.6057C76.045 43.2103 69.5056 39.8079 60.3815 39.8079C51.2634 39.8079 44.6905 43.2757 40.3874 46.7417C38.2323 48.4776 36.648 50.2126 35.606 51.5085C35.0853 52.156 34.7014 52.6922 34.4504 53.0618C34.3249 53.2466 34.2328 53.3895 34.1736 53.4836C34.144 53.5307 34.1226 53.5656 34.1094 53.5874C34.1028 53.5982 34.0982 53.6059 34.0957 53.6101L34.0942 53.6126Z" fill="#B8B8B8"/>
<path fill-rule="evenodd" clip-rule="evenodd" d="M60.4515 47.0075C41.5818 47.0075 32.3235 66.1398 40.3631 80.8788C40.6805 81.4606 40.4661 82.1895 39.8843 82.5069C39.3025 82.8243 38.5735 82.6099 38.2562 82.0281C29.4386 65.863 39.5664 44.6075 60.4515 44.6075C70.7861 44.6075 77.1257 48.9605 80.8299 54.2303C84.4859 59.4313 85.5223 65.4414 85.4872 68.8206C85.4643 71.0376 84.8435 73.0891 83.326 74.7013C81.8243 76.2966 79.5759 77.3216 76.5686 77.7693C76.564 77.7701 76.5592 77.7709 76.5541 77.7718C76.5295 77.776 76.4982 77.7809 76.4607 77.786C76.3857 77.7963 76.2855 77.8076 76.1628 77.816C75.9179 77.8326 75.5812 77.8374 75.1775 77.7972C74.3676 77.7167 73.2866 77.4549 72.1453 76.7477C69.831 75.3137 67.5332 72.2247 66.5015 65.9136L67.6857 65.72L66.5015 65.9137C66.5015 65.9136 66.5015 65.9136 66.5015 65.9136C66.2596 64.4348 65.5335 63.4714 64.5149 62.8443C63.4541 62.1913 62.002 61.8627 60.3108 61.8627C57.1829 61.8627 54.6733 63.5675 53.9118 66.8322C53.9142 66.8082 53.9166 66.7842 53.9191 66.7601L52.7254 66.6369L53.8963 66.8997C53.9014 66.8771 53.9065 66.8546 53.9118 66.8322C52.9767 76.1339 57.2659 81.5885 61.8171 84.7842C64.1205 86.4016 66.4959 87.4384 68.3029 88.0707C69.2041 88.386 69.9575 88.5985 70.4812 88.7313C70.7428 88.7977 70.9466 88.844 71.0821 88.8732C71.1498 88.8878 71.2005 88.8981 71.2327 88.9045C71.2489 88.9077 71.2604 88.91 71.2671 88.9113L71.273 88.9124L71.0574 90.0928C70.8419 91.2733 70.8413 91.2732 70.8406 91.2731L70.8388 91.2728L70.8338 91.2718L70.8182 91.2689C70.813 91.2679 70.8071 91.2668 70.8003 91.2654C70.7904 91.2635 70.7787 91.2612 70.7654 91.2586C70.7207 91.2497 70.6572 91.2368 70.5763 91.2193C70.4144 91.1844 70.1826 91.1316 69.8912 91.0577C69.3089 90.91 68.4869 90.6778 67.5103 90.3361C65.5618 89.6543 62.9722 88.5279 60.4379 86.7484C55.3256 83.1587 50.4592 76.9053 51.5318 66.5137C51.5366 66.4668 51.5442 66.4202 51.5546 66.3742C52.5678 61.8592 56.1558 59.4627 60.3108 59.4627C62.2717 59.4627 64.2087 59.8375 65.7731 60.8005C67.3796 61.7895 68.5149 63.3548 68.87 65.5263L68.87 65.5264C69.8328 71.4155 71.8787 73.7591 73.4094 74.7076C74.1906 75.1917 74.9075 75.3586 75.4149 75.409C75.6697 75.4344 75.8716 75.4302 76.0004 75.4215C76.0647 75.4171 76.1101 75.4116 76.1342 75.4083C76.1416 75.4073 76.1469 75.4065 76.1501 75.406C76.1509 75.4059 76.1515 75.4058 76.152 75.4057C76.1485 75.4064 76.1451 75.407 76.1416 75.4077M76.1416 75.4077L76.1422 75.4076L76.1455 75.4069L76.1504 75.406C76.1529 75.4056 76.154 75.4054 76.1536 75.4055C76.1534 75.4055 76.1528 75.4056 76.152 75.4057C76.1671 75.4029 76.1823 75.4003 76.1976 75.3981C78.8802 75.0014 80.5616 74.1365 81.5784 73.0563C82.5826 71.9895 83.069 70.5739 83.0874 68.7957L83.0874 68.7956C83.1184 65.8082 82.1756 60.3181 78.8665 55.6104C75.6056 50.9715 69.9942 47.0075 60.4515 47.0075M71.2738 88.9125C71.2735 88.9125 71.2733 88.9124 71.273 88.9124L71.2737 88.9125L71.2738 88.9125ZM71.2738 88.9125C71.9253 89.0319 72.3569 89.6567 72.2379 90.3084C72.1189 90.9603 71.4939 91.3924 70.8419 91.2733L71.0574 90.0928C71.273 88.9124 71.2734 88.9124 71.2738 88.9125Z" fill="#B8B8B8"/>
<path fill-rule="evenodd" clip-rule="evenodd" d="M48.021 56.7169C51.993 52.8094 60.4794 48.7923 69.8063 54.734C74.4641 57.7013 76.397 61.5711 77.142 64.7144C77.5119 66.275 77.5881 67.6483 77.5713 68.6365C77.5629 69.1315 77.5312 69.5326 77.5005 69.8159C77.4852 69.9576 77.4701 70.0701 77.4582 70.1503C77.4523 70.1905 77.4471 70.2226 77.4432 70.2463C77.4412 70.2582 77.4395 70.268 77.4382 70.2756L77.4365 70.2854L77.4355 70.2906C77.4354 70.2913 77.4353 70.292 76.2551 70.0748L77.4353 70.292C77.3153 70.9438 76.6897 71.3749 76.0379 71.255C75.3873 71.1352 74.9565 70.5117 75.0743 69.8611C75.0745 69.86 75.0747 69.8587 75.0749 69.8576L76.2179 70.0679C75.0749 69.8576 75.0748 69.8582 75.0747 69.8587L75.0757 69.8525C75.0774 69.8427 75.0802 69.8248 75.084 69.7993C75.0916 69.7482 75.1027 69.6667 75.1145 69.5575C75.1382 69.3389 75.1646 69.0107 75.1717 68.5959C75.1858 67.7644 75.1215 66.5959 74.8067 65.2679C74.1824 62.6339 72.5685 59.3394 68.5168 56.7581C60.4237 51.6025 53.1544 55.0336 49.704 58.4278C48.3229 59.7864 47.1391 62.0303 46.4002 64.6561C45.6655 67.267 45.4066 70.1304 45.7658 72.6443C46.1273 75.1741 47.2271 78.3341 48.9335 81.3648C50.6393 84.3946 52.9047 87.2125 55.5367 89.1209C56.0733 89.5099 56.1929 90.2602 55.8038 90.7968C55.4148 91.3333 54.6645 91.4529 54.1279 91.0639C51.1412 88.8984 48.6657 85.7812 46.8422 82.5422C45.0191 79.3042 43.8012 75.8619 43.3899 72.9838C42.9764 70.0893 43.2794 66.8865 44.09 64.006C44.8963 61.1405 46.2412 58.4677 48.021 56.7169Z" fill="#B8B8B8"/>
<path fill-rule="evenodd" clip-rule="evenodd" d="M59.8072 65.576C60.4684 65.5306 61.0412 66.0297 61.0867 66.6909C61.4243 71.6034 62.8399 74.8902 64.6754 77.0982C66.5128 79.3084 68.8516 80.5343 71.2013 81.1829C73.5608 81.8342 75.903 81.8941 77.6735 81.784C78.5545 81.7292 79.2833 81.633 79.7875 81.5514C80.0394 81.5106 80.2344 81.4737 80.3637 81.4476C80.4283 81.4345 80.4764 81.4242 80.5068 81.4175C80.522 81.4141 80.5328 81.4117 80.539 81.4103L80.5438 81.4092L80.5447 81.409C81.1892 81.2565 81.8355 81.655 81.9885 82.2995C82.1416 82.9444 81.743 83.5912 81.0981 83.7443L80.8395 82.6549C81.0981 83.7443 81.0975 83.7444 81.0968 83.7446L81.0949 83.745L81.0899 83.7462L81.0746 83.7497C81.0621 83.7526 81.0448 83.7565 81.023 83.7613C80.9795 83.7709 80.9177 83.7841 80.8389 83.8C80.6815 83.8318 80.4557 83.8745 80.1708 83.9206C79.6017 84.0127 78.794 84.1189 77.8224 84.1794C75.8878 84.2997 73.2605 84.2411 70.5627 83.4964C67.8551 82.749 65.0488 81.3016 62.8299 78.6324C60.6091 75.961 59.0571 72.1626 58.6923 66.8554C58.6469 66.1943 59.146 65.6214 59.8072 65.576Z" fill="#B8B8B8"/>
<path fill-rule="evenodd" clip-rule="evenodd" d="M60.4999 14.2337C34.8764 14.2337 14.0714 35.0388 14.0714 60.6622C14.0714 86.2856 34.8764 107.091 60.4999 107.091C86.1233 107.091 106.928 86.2856 106.928 60.6622C106.928 35.0388 86.1233 14.2337 60.4999 14.2337ZM11.6714 60.6622C11.6714 33.7133 33.551 11.8337 60.4999 11.8337C87.4487 11.8337 109.328 33.7133 109.328 60.6622C109.328 87.6111 87.4487 109.491 60.4999 109.491C33.551 109.491 11.6714 87.6111 11.6714 60.6622Z" fill="#C6C6C6"/>
<path d="M86.8701 73.0278C96.4456 73.0278 104.22 80.8023 104.22 90.3779C104.22 99.9534 96.4456 107.728 86.8701 107.728C77.2946 107.728 69.52 99.9534 69.52 90.3779C69.52 80.8023 77.2946 73.0278 86.8701 73.0278Z" fill="#FA3344"/>
<path d="M85.9682 93.1131C86.1273 93.4558 86.4093 93.6263 86.8159 93.6263C87.2143 93.6263 87.4995 93.4492 87.6733 93.0951C87.8455 92.7426 87.9586 92.2344 88.0111 91.572L88.498 86.0075C88.5505 85.4959 88.5767 84.9909 88.5767 84.4942C88.5767 83.6515 88.4669 83.0071 88.2488 82.5579C88.0308 82.1103 87.5979 81.8873 86.9503 81.8873C86.4158 81.8873 85.9863 82.0611 85.6584 82.412C85.3305 82.7612 85.1665 83.2481 85.1665 83.8728C85.1665 84.3319 85.2009 85.0893 85.2682 86.1419L85.6305 91.549C85.6977 92.2491 85.8108 92.7705 85.9682 93.1131ZM88.0685 98.5252C88.4062 98.2235 88.5767 97.8104 88.5767 97.2841C88.5767 96.8168 88.4095 96.4201 88.0734 96.0922C87.7389 95.7643 87.334 95.6019 86.8601 95.6019C86.3863 95.6019 85.9863 95.7643 85.6584 96.0922C85.3305 96.4201 85.1665 96.8168 85.1665 97.2841C85.1665 97.8186 85.3387 98.2334 85.6813 98.5301C86.024 98.8285 86.424 98.9761 86.8831 98.9761C87.334 98.9761 87.7291 98.8252 88.0685 98.5252Z" fill="white"/>
</svg>
