<svg width="113" height="113" viewBox="0 0 113 113" fill="none" xmlns="http://www.w3.org/2000/svg">
<g clip-path="url(#clip0)">
<path fill-rule="evenodd" clip-rule="evenodd" d="M36.9756 31.7428C36.9754 31.743 36.9752 31.7431 36.975 31.7433C36.9748 31.7434 36.9747 31.7435 36.9746 31.7436L36.9744 31.7437C36.4065 32.1542 35.6132 32.0272 35.2019 31.4596C34.7903 30.8917 34.9171 30.0976 35.4851 29.686L36.2059 30.6807C35.4851 29.686 35.4855 29.6857 35.4859 29.6854L35.4869 29.6847L35.4895 29.6829L35.4969 29.6775L35.5208 29.6605C35.5408 29.6463 35.5689 29.6266 35.6049 29.6017C35.6769 29.552 35.7808 29.4815 35.9153 29.3932C36.1843 29.2168 36.5763 28.9692 37.0825 28.6743C38.0946 28.0847 39.5662 27.3046 41.4271 26.5261C45.1458 24.9705 50.4435 23.4111 56.7477 23.4111C63.0528 23.4111 68.3147 24.9708 71.9987 26.528C73.842 27.3071 75.2958 28.088 76.2947 28.6783C76.7944 28.9736 77.1809 29.2216 77.4461 29.3985C77.5788 29.4869 77.6811 29.5576 77.7522 29.6076C77.7878 29.6326 77.8155 29.6524 77.8353 29.6667C77.8452 29.6738 77.8531 29.6795 77.859 29.6838L77.8664 29.6892L77.8689 29.6911L77.8699 29.6918C77.8703 29.6921 77.8707 29.6924 77.1167 30.7144L77.8707 29.6924C78.4352 30.1089 78.5551 30.904 78.1387 31.4685C77.7225 32.0325 76.9281 32.1527 76.3638 31.7372C76.3637 31.7372 76.3637 31.7372 76.3637 31.7372C76.3635 31.7371 76.3634 31.737 76.3633 31.7369C76.3631 31.7367 76.3628 31.7366 76.3626 31.7364L76.3624 31.7362L76.3504 31.7276C76.3385 31.719 76.3189 31.7049 76.2915 31.6857C76.2369 31.6473 76.1517 31.5884 76.0369 31.5119C75.8073 31.3588 75.4598 31.1354 75.0024 30.8651C74.0871 30.3242 72.7346 29.5968 71.0097 28.8676C67.5571 27.4082 62.6345 25.9512 56.7477 25.9512C50.8605 25.9512 45.8996 27.4085 42.4074 28.8695C40.6629 29.5993 39.291 30.3275 38.361 30.8692C37.8962 31.1399 37.5425 31.3636 37.3086 31.5171C37.1916 31.5938 37.1046 31.653 37.0488 31.6916C37.0208 31.7109 37.0007 31.725 36.9884 31.7337L36.976 31.7425L36.9756 31.7428Z" fill="#B8B8B8"/>
<path fill-rule="evenodd" clip-rule="evenodd" d="M28.8522 48.7391C28.852 48.7394 28.8518 48.7397 28.8517 48.7399C28.8516 48.7401 28.8515 48.7403 28.8514 48.7404C28.4966 49.3447 27.7194 49.5476 27.1145 49.1935C26.5091 48.8392 26.3057 48.0612 26.66 47.4558L27.7561 48.0975C26.66 47.4558 26.6604 47.4552 26.6607 47.4546L26.6617 47.453L26.6641 47.4489L26.6716 47.4363C26.6776 47.4262 26.6859 47.4124 26.6964 47.3951C26.7174 47.3605 26.7473 47.3118 26.7862 47.25C26.8639 47.1264 26.9776 46.9503 27.1278 46.7291C27.4281 46.2869 27.8749 45.6639 28.4726 44.9205C29.6673 43.4348 31.4705 41.4613 33.9194 39.4888C38.8248 35.5376 46.3272 31.5884 56.6741 31.5884C67.0142 31.5884 74.4775 35.4584 79.3483 39.3359C81.7795 41.2712 83.565 43.2078 84.7466 44.6664C85.3378 45.3962 85.7792 46.008 86.0758 46.4425C86.2241 46.6598 86.3364 46.8329 86.4132 46.9545C86.4516 47.0153 86.4812 47.0633 86.5019 47.0974C86.5086 47.1083 86.5143 47.1178 86.5192 47.1259C86.5219 47.1305 86.5244 47.1345 86.5266 47.1382L86.5339 47.1506L86.5373 47.1564C86.5377 47.157 86.5381 47.1576 85.4428 47.8006L86.5381 47.1576C86.8932 47.7625 86.6907 48.5407 86.0858 48.8959C85.4813 49.2507 84.7038 49.0488 84.3483 48.4449C84.3482 48.4448 84.3481 48.4446 84.3481 48.4445C84.3479 48.4442 84.3477 48.4439 84.3475 48.4436L84.3462 48.4413C84.3441 48.4379 84.3407 48.4322 84.3359 48.4243L84.3321 48.418C84.3185 48.3956 84.2963 48.3597 84.2656 48.311C84.2042 48.2138 84.1085 48.0659 83.9779 47.8746C83.7167 47.4919 83.3165 46.9363 82.7729 46.2653C81.6849 44.9223 80.0277 43.1233 77.7663 41.3232C73.252 37.7295 66.3309 34.1285 56.6741 34.1285C47.0237 34.1285 40.067 37.7987 35.5128 41.467C33.2318 43.3043 31.5551 45.1406 30.4522 46.5122C29.9012 47.1975 29.4948 47.765 29.2291 48.1562C29.0964 48.3517 28.9989 48.503 28.9362 48.6026C28.9048 48.6524 28.8822 48.6893 28.8682 48.7124C28.8612 48.7239 28.8564 48.732 28.8537 48.7365L28.8522 48.7391Z" fill="#B8B8B8"/>
<path fill-rule="evenodd" clip-rule="evenodd" d="M56.7484 41.7486C36.7771 41.7486 26.9783 61.9978 35.4873 77.5973C35.8232 78.2131 35.5963 78.9845 34.9805 79.3204C34.3647 79.6563 33.5932 79.4294 33.2573 78.8136C23.925 61.7048 34.644 39.2085 56.7484 39.2085C67.6863 39.2085 74.396 43.8156 78.3166 49.393C82.186 54.8976 83.2829 61.2587 83.2458 64.8351C83.2215 67.1815 82.5645 69.3528 80.9583 71.0591C79.369 72.7475 76.9893 73.8324 73.8064 74.3063C73.8016 74.3071 73.7965 74.308 73.7911 74.3089C73.765 74.3133 73.732 74.3185 73.6923 74.3239C73.6129 74.3348 73.5068 74.3468 73.377 74.3556C73.1177 74.3732 72.7614 74.3783 72.3341 74.3358C71.477 74.2506 70.3329 73.9735 69.1249 73.225C66.6755 71.7073 64.2436 68.4379 63.1516 61.7584L64.405 61.5535L63.1516 61.7585C63.1516 61.7584 63.1516 61.7584 63.1516 61.7584C62.8956 60.1933 62.1271 59.1736 61.0491 58.5099C59.9263 57.8188 58.3895 57.471 56.5995 57.471C53.289 57.471 50.6329 59.2754 49.8269 62.7307C49.8295 62.7053 49.832 62.6798 49.8347 62.6544L48.5713 62.524L49.8106 62.8021C49.8159 62.7782 49.8214 62.7544 49.8269 62.7307C48.8372 72.5754 53.3768 78.3484 58.1938 81.7307C60.6316 83.4425 63.1457 84.5399 65.0582 85.2091C66.012 85.5428 66.8094 85.7677 67.3636 85.9082C67.6406 85.9785 67.8562 86.0275 67.9996 86.0584C68.0713 86.0739 68.1249 86.0848 68.1591 86.0916C68.1762 86.095 68.1884 86.0973 68.1955 86.0987L68.2017 86.0998L67.9736 87.3492C67.7455 88.5987 67.7448 88.5985 67.744 88.5984L67.7421 88.598L67.7368 88.5971L67.7204 88.594C67.7149 88.5929 67.7086 88.5917 67.7014 88.5903C67.6909 88.5883 67.6786 88.5859 67.6645 88.5831C67.6172 88.5737 67.55 88.56 67.4643 88.5415C67.293 88.5046 67.0476 88.4486 66.7392 88.3704C66.1229 88.2141 65.2529 87.9683 64.2193 87.6067C62.1571 86.8851 59.4163 85.6929 56.7341 83.8095C51.3233 80.0103 46.1728 73.3918 47.308 62.3936C47.3131 62.3439 47.3212 62.2946 47.3321 62.2459C48.4045 57.4673 52.2019 54.9309 56.5995 54.9309C58.675 54.9309 60.725 55.3276 62.3807 56.3468C64.081 57.3936 65.2826 59.0502 65.6584 61.3485L65.6584 61.3486C66.6774 67.5815 68.8427 70.0619 70.4628 71.0658C71.2897 71.5781 72.0484 71.7548 72.5854 71.8082C72.8551 71.835 73.0687 71.8306 73.2051 71.8213C73.2731 71.8167 73.3212 71.811 73.3467 71.8075C73.3545 71.8064 73.3602 71.8055 73.3636 71.805C73.3643 71.8049 73.365 71.8048 73.3655 71.8047C73.3618 71.8054 73.3582 71.8061 73.3546 71.8068M73.3546 71.8068L73.3552 71.8067L73.3587 71.806L73.3639 71.805C73.3665 71.8045 73.3676 71.8043 73.3672 71.8044C73.367 71.8044 73.3664 71.8045 73.3655 71.8047C73.3815 71.8017 73.3976 71.799 73.4138 71.7966C76.253 71.3768 78.0326 70.4614 79.1088 69.3181C80.1716 68.189 80.6863 66.6908 80.7058 64.8088L80.7058 64.8087C80.7386 61.6468 79.7408 55.8362 76.2385 50.8537C72.7873 45.944 66.8483 41.7486 56.7484 41.7486M68.2026 86.1C68.2023 86.1 68.202 86.0999 68.2017 86.0998L68.2024 86.1L68.2026 86.1ZM68.2026 86.1C68.8921 86.2264 69.3489 86.8876 69.223 87.5774C69.097 88.2674 68.4355 88.7246 67.7455 88.5987L67.9736 87.3492C68.2017 86.0998 68.2022 86.0999 68.2026 86.1Z" fill="#B8B8B8"/>
<path fill-rule="evenodd" clip-rule="evenodd" d="M43.5919 52.0246C47.7959 47.889 56.7776 43.6373 66.649 49.9259C71.5787 53.0665 73.6245 57.1622 74.413 60.4889C74.8046 62.1406 74.8851 63.5941 74.8674 64.6401C74.8585 65.1639 74.825 65.5885 74.7925 65.8883C74.7762 66.0383 74.7602 66.1573 74.7477 66.2423C74.7414 66.2848 74.736 66.3188 74.7318 66.3439C74.7297 66.3564 74.7279 66.3668 74.7265 66.3748L74.7247 66.3852L74.7237 66.3908C74.7235 66.3915 74.7234 66.3922 73.4743 66.1623L74.7234 66.3922C74.5964 67.082 73.9343 67.5383 73.2444 67.4114C72.5559 67.2846 72.1 66.6247 72.2246 65.9362C72.2248 65.935 72.225 65.9336 72.2253 65.9324L73.4349 66.155C72.2253 65.9324 72.2251 65.933 72.225 65.9336L72.2261 65.927C72.2278 65.9166 72.2309 65.8977 72.2349 65.8707C72.2429 65.8167 72.2546 65.7304 72.2671 65.6148C72.2922 65.3834 72.3202 65.0361 72.3277 64.597C72.3426 63.7171 72.2746 62.4804 71.9414 61.0748C71.2806 58.2871 69.5725 54.8001 65.2842 52.0682C56.7187 46.6116 49.025 50.243 45.3732 53.8354C43.9115 55.2733 42.6586 57.6481 41.8765 60.4273C41.0989 63.1906 40.8249 66.2211 41.2051 68.8818C41.5876 71.5593 42.7517 74.9038 44.5577 78.1114C46.3631 81.3181 48.7607 84.3006 51.5464 86.3203C52.1143 86.7321 52.2409 87.5262 51.8291 88.0941C51.4174 88.6619 50.6233 88.7885 50.0554 88.3768C46.8943 86.0849 44.2743 82.7857 42.3443 79.3576C40.4148 75.9306 39.1257 72.2873 38.6905 69.2411C38.2528 66.1777 38.5735 62.7879 39.4314 59.7392C40.2848 56.7064 41.7082 53.8776 43.5919 52.0246Z" fill="#B8B8B8"/>
<path fill-rule="evenodd" clip-rule="evenodd" d="M56.0661 61.401C56.7659 61.3529 57.3721 61.8812 57.4202 62.581C57.7776 67.7803 59.2758 71.259 61.2185 73.5958C63.1632 75.9351 65.6385 77.2326 68.1253 77.9191C70.6225 78.6084 73.1015 78.6718 74.9754 78.5552C75.9079 78.4972 76.6791 78.3954 77.2128 78.309C77.4794 78.2659 77.6859 78.2268 77.8226 78.1991C77.891 78.1853 77.9419 78.1744 77.9741 78.1673C77.9902 78.1638 78.0016 78.1612 78.0082 78.1597L78.0132 78.1585L78.0142 78.1583C78.6964 77.9969 79.3804 78.4187 79.5423 79.1009C79.7043 79.7833 79.2824 80.4679 78.6 80.6299L78.3263 79.477C78.5999 80.6299 78.5993 80.6301 78.5985 80.6303L78.5966 80.6307L78.5913 80.632L78.5751 80.6357C78.5618 80.6388 78.5435 80.6429 78.5205 80.648C78.4744 80.6581 78.409 80.6721 78.3257 80.689C78.159 80.7226 77.92 80.7678 77.6185 80.8165C77.0162 80.914 76.1613 81.0265 75.133 81.0904C73.0854 81.2178 70.3048 81.1558 67.4495 80.3676C64.5838 79.5766 61.6137 78.0446 59.2652 75.2196C56.9147 72.3923 55.2721 68.3721 54.8861 62.7551C54.838 62.0554 55.3663 61.4491 56.0661 61.401Z" fill="#B8B8B8"/>
<path fill-rule="evenodd" clip-rule="evenodd" d="M56.0899 24.665C56.1264 25.3655 55.5881 25.9629 54.8876 25.9994C49.5087 26.2792 45.0121 27.7252 41.8593 29.1034C40.2844 29.7919 39.0501 30.4611 38.2152 30.9542C37.7979 31.2006 37.481 31.4027 37.2717 31.5408C37.1671 31.6098 37.0895 31.6627 37.0398 31.6972C37.0149 31.7144 36.9971 31.727 36.9863 31.7346L36.9754 31.7424C36.9752 31.7425 36.9749 31.7427 36.9748 31.7428M36.9748 31.7428C36.4068 32.1539 35.6131 32.027 35.2017 31.4592C34.7901 30.8912 34.9169 30.0971 35.4849 29.6855L36.205 30.6793C35.4849 29.6855 35.4853 29.6853 35.4856 29.685L35.4889 29.6826L35.4957 29.6778L35.5174 29.6623C35.5355 29.6495 35.5609 29.6316 35.5934 29.6091C35.6583 29.5641 35.7518 29.5004 35.8728 29.4206C36.1149 29.2608 36.4676 29.0362 36.9234 28.767C37.8348 28.2288 39.1607 27.5109 40.8419 26.776C44.2013 25.3075 49.0004 23.7621 54.7556 23.4627C55.4561 23.4262 56.0535 23.9646 56.0899 24.665M68.5138 26.4782C68.7802 25.8605 69.482 25.5575 70.1142 25.7875C72.5339 26.6675 74.457 27.6323 75.7812 28.3813C76.4436 28.756 76.9573 29.0773 77.3095 29.308C77.4856 29.4233 77.6215 29.5161 77.7155 29.5816C77.7625 29.6144 77.799 29.6404 77.8249 29.6589C77.8348 29.6661 77.8432 29.6721 77.85 29.677L77.8557 29.6812L77.8651 29.688L77.87 29.6916C77.8702 29.6918 77.8704 29.692 77.1164 30.714L77.8704 29.692C78.4012 30.0835 78.5439 30.8162 78.1989 31.3783C77.8539 31.9404 77.1361 32.1449 76.5466 31.8491L69.1103 28.1161C68.5091 27.8143 68.2475 27.096 68.5138 26.4782Z" fill="#FF0000"/>
<path fill-rule="evenodd" clip-rule="evenodd" d="M28.8522 48.7386L28.8537 48.736C28.8564 48.7315 28.8612 48.7234 28.8682 48.7119C28.8822 48.6889 28.9048 48.652 28.9362 48.6021C28.9989 48.5025 29.0964 48.3512 29.2291 48.1557C29.4948 47.7645 29.9012 47.197 30.4522 46.5117C31.5551 45.1401 33.2318 43.3038 35.5128 41.4666C40.067 37.7982 47.0237 34.128 56.6741 34.128C57.6231 34.128 58.5449 34.1626 59.4391 34.2288C60.1386 34.2806 60.7477 33.7556 60.7995 33.056C60.8513 32.3565 60.3263 31.7475 59.6267 31.6956C58.6692 31.6247 57.6849 31.5879 56.6741 31.5879C46.3272 31.5879 38.8248 35.5372 33.9194 39.4884C31.4705 41.4609 29.6673 43.4343 28.4726 44.92C27.8749 45.6634 27.4281 46.2864 27.1278 46.7286C26.9776 46.9498 26.8639 47.1259 26.7862 47.2495C26.7473 47.3113 26.7174 47.36 26.6964 47.3946C26.6859 47.4119 26.6776 47.4257 26.6716 47.4359L26.6641 47.4484L26.6617 47.4525L26.6607 47.4541C26.6604 47.4548 26.66 47.4553 27.7561 48.097L26.66 47.4553C26.3057 48.0607 26.5091 48.8387 27.1145 49.193C27.7194 49.5471 28.4966 49.3442 28.8514 48.7399L28.8517 48.7395C28.8518 48.7392 28.852 48.7389 28.8522 48.7386ZM79.9753 41.3938C80.4661 40.9325 81.2317 40.9346 81.72 41.3986C83.3375 42.9358 84.5318 44.3587 85.3258 45.4038C85.723 45.9266 86.0206 46.3558 86.2216 46.6586C86.3221 46.8101 86.3985 46.9301 86.4511 47.0145C86.4774 47.0567 86.4978 47.09 86.5122 47.1139C86.5195 47.1259 86.5252 47.1355 86.5295 47.1427L86.5349 47.1517L86.5367 47.1548L86.5374 47.156L86.5378 47.1566C86.5379 47.1568 86.538 47.157 85.4428 47.8001L86.538 47.157C86.8724 47.7265 86.7146 48.4571 86.175 48.8378C85.6354 49.2185 84.8942 49.1223 84.4698 48.6163L79.872 43.1355C79.4391 42.6194 79.4844 41.8552 79.9753 41.3938Z" fill="#FF0000"/>
<path fill-rule="evenodd" clip-rule="evenodd" d="M43.5917 52.024C47.7957 47.8885 56.7775 43.6369 66.6488 49.9254L66.6488 49.9254C71.5786 53.066 73.6243 57.1617 74.4129 60.4885C74.8044 62.1402 74.8849 63.5937 74.8672 64.6396C74.8584 65.1635 74.8248 65.588 74.7923 65.8878C74.7761 66.0378 74.7601 66.1568 74.7475 66.2418C74.7412 66.2843 74.7358 66.3183 74.7316 66.3434C74.7295 66.3559 74.7277 66.3663 74.7263 66.3743L74.7245 66.3847L74.7238 66.3886L74.7235 66.3903C74.7234 66.391 74.7232 66.3917 73.5115 66.1687L74.7232 66.3917C74.5963 67.0815 73.9341 67.5379 73.2443 67.4109C72.5557 67.2842 72.0998 66.6242 72.2244 65.9357C72.2244 65.9356 72.2244 65.9356 72.2244 65.9355C72.2244 65.9355 72.2244 65.9355 72.2244 65.9354C72.2246 65.9343 72.2249 65.9331 72.2251 65.9319L73.4741 66.1618C72.2251 65.9319 72.225 65.9325 72.2249 65.9331L72.2259 65.9266C72.2277 65.9161 72.2307 65.8972 72.2347 65.8702C72.2427 65.8162 72.2544 65.7299 72.267 65.6143C72.292 65.3829 72.32 65.0356 72.3275 64.5966C72.3424 63.7166 72.2744 62.4799 71.9412 61.0743C71.2804 58.2866 69.5723 54.7997 65.284 52.0677C56.7185 46.6111 49.0248 50.2425 45.373 53.8349L45.373 53.8349C44.9031 54.2971 44.4498 54.861 44.0238 55.5143C43.6407 56.1019 42.8538 56.2676 42.2663 55.8845C41.6787 55.5014 41.513 54.7145 41.8961 54.1269C42.4048 53.3467 42.9708 52.6348 43.5917 52.0241M40.848 72.9221C41.5049 72.6762 42.2368 73.0093 42.4828 73.6662C44.2338 78.3426 47.461 83.3579 51.5462 86.3199C52.1141 86.7316 52.2407 87.5257 51.8289 88.0936C51.4172 88.6615 50.6231 88.788 50.0552 88.3763C45.4513 85.0383 41.9727 79.5476 40.1039 74.5569C39.858 73.9 40.1911 73.1681 40.848 72.9221Z" fill="#FF0000"/>
<path fill-rule="evenodd" clip-rule="evenodd" d="M60.7398 75.0599C61.2064 74.5362 62.0093 74.49 62.533 74.9566C67.1677 79.0864 73.7869 78.7849 76.7251 78.3814C77.4201 78.286 78.0607 78.772 78.1562 79.4669C78.2516 80.1618 77.7656 80.8025 77.0707 80.8979C74.0227 81.3164 66.3753 81.7825 60.8431 76.8531C60.3194 76.3864 60.2732 75.5836 60.7398 75.0599Z" fill="#FF0000"/>
<path fill-rule="evenodd" clip-rule="evenodd" d="M56.7999 7.06062C29.6806 7.06062 7.66096 29.0803 7.66096 56.1996C7.66096 83.3189 29.6806 105.339 56.7999 105.339C83.9193 105.339 105.939 83.3189 105.939 56.1996C105.939 29.0803 83.9193 7.06062 56.7999 7.06062ZM5.12085 56.1996C5.12085 27.6774 28.2778 4.52051 56.7999 4.52051C85.3221 4.52051 108.479 27.6774 108.479 56.1996C108.479 84.7218 85.3221 107.879 56.7999 107.879C28.2778 107.879 5.12085 84.7218 5.12085 56.1996Z" fill="#C6C6C6"/>
</g>
<defs>
<clipPath id="clip0">
<rect width="112.4" height="112.4" fill="white" transform="translate(0.600098)"/>
</clipPath>
</defs>
</svg>
