<svg width="209" height="122" viewBox="0 0 209 122" fill="none" xmlns="http://www.w3.org/2000/svg">
<g clip-path="url(#clip0)">
<path d="M93.0932 86.4682C93.7505 86.3051 94.4014 86.1127 95.0669 85.9904C95.6185 85.8893 95.7764 85.6398 95.7764 85.0642C95.7699 79.0325 95.804 73.0008 95.8187 66.9691C95.8447 55.558 95.8642 44.1453 95.887 32.7342C95.8886 31.8699 95.8642 31.0041 95.9 30.1398C95.9456 29.0326 97.4182 27.6694 98.676 27.5113C99.8378 27.3661 101.004 27.4346 102.17 27.4363C134.3 27.4591 166.43 27.4884 198.558 27.5178C199.019 27.5178 199.478 27.5488 199.938 27.57C201.876 27.6629 203.018 28.8076 203.258 30.7644C203.458 32.3999 203.264 34.0207 203.202 35.6448C203.031 40.1193 203.254 44.5904 203.241 49.0649C203.202 63.6003 203.233 78.1373 203.235 92.6727C203.235 94.7371 203.175 96.803 203.231 98.8674C203.266 100.136 203.007 101.346 202.763 102.562C202.597 103.392 202.185 104.092 201.339 104.408C201.071 104.509 200.713 104.602 200.539 104.265C200.343 103.888 200.665 103.732 200.944 103.614C201.565 103.348 201.808 102.818 201.918 102.21C202.109 101.17 202.294 100.134 202.271 99.0647C202.236 97.408 202.228 95.7497 202.281 94.093C202.304 93.3673 202.133 93.1407 201.364 93.1456C194.124 93.1912 186.885 93.1847 179.646 93.2059C159.662 93.2646 139.681 93.3298 119.697 93.3918C114.058 93.4097 108.418 93.4195 102.778 93.4407C102.436 93.4423 101.945 93.3086 101.792 93.5777C101.629 93.863 102.023 94.1892 102.217 94.4664C103.536 96.3612 104.646 98.3799 105.759 100.397C106.444 101.638 107.383 102.701 108.161 103.877C108.421 104.27 108.781 104.144 109.109 104.144C118.436 104.146 127.763 104.144 137.092 104.133C157.617 104.108 178.142 104.077 198.667 104.05C198.83 104.05 198.993 104.046 199.155 104.056C199.445 104.076 199.727 104.162 199.731 104.503C199.736 104.888 199.445 104.982 199.115 104.986C198.952 104.987 198.789 104.987 198.627 104.987C186.751 105.008 174.876 105.03 163 105.047C162.565 105.047 162.115 104.946 162.241 105.672C162.829 109.062 163.013 112.526 164.043 115.836C164.188 116.299 164.365 116.755 164.563 117.197C164.708 117.52 164.897 117.783 165.344 117.788C165.702 117.791 166.117 118.024 166.099 118.399C166.069 119.079 166.435 119.046 166.905 119.046C172.299 119.038 177.695 119.042 183.089 119.042C191.168 119.042 199.247 119.042 207.325 119.042C207.379 119.042 207.434 119.04 207.488 119.043C207.874 119.071 208.427 118.927 208.416 119.531C208.406 120.083 207.874 119.943 207.522 119.945C203.698 119.953 199.876 119.95 196.052 119.95C173.928 119.948 151.803 119.947 129.677 119.945C128.131 119.945 126.587 119.964 125.041 119.953C124.667 119.95 124.094 120.105 124.084 119.508C124.075 118.936 124.631 119.009 125.022 119.009C127.108 119.011 129.195 119.022 131.281 119.043C131.76 119.048 132.17 119.084 132.204 118.394C132.22 118.06 132.479 117.757 132.93 117.771C134.052 117.807 134.589 117.073 134.85 116.137C135.818 112.654 136.321 109.087 136.664 105.493C136.695 105.162 136.571 105.046 136.264 105.065C136.156 105.072 136.047 105.065 135.938 105.065C127.181 105.082 118.423 105.096 109.664 105.113C109.531 105.113 109.399 105.113 109.266 105.113C109.144 105.468 109.42 105.633 109.557 105.842C110.976 108.035 112.24 110.301 112.87 112.866C113.324 114.717 113.399 116.583 112.884 118.42C112.688 119.123 112.946 119.105 113.467 119.099C116.232 119.058 118.996 119.043 121.761 119.02C122.005 119.019 122.25 119.012 122.491 119.038C122.781 119.071 123.031 119.198 123.035 119.534C123.038 119.88 122.766 119.987 122.486 120.023C122.22 120.057 121.946 120.049 121.674 120.051C116.253 120.088 110.829 119.978 105.414 120.323C100.944 120.609 96.4761 120.416 92.0078 120.318C88.2003 120.235 84.3927 120.165 80.5835 120.106C79.8008 120.095 79.0133 120.022 78.2322 120.199C77.9784 120.256 77.7278 120.183 77.6562 119.888C77.5716 119.544 77.788 119.369 78.0841 119.322C78.4568 119.263 78.8391 119.231 79.2167 119.227C80.7625 119.214 82.3083 119.201 83.8525 119.227C84.2853 119.234 84.4724 119.112 84.5538 118.68C84.6921 117.938 84.8922 117.205 85.068 116.472C85.2225 116.243 85.4699 116.229 85.7091 116.212C87.5543 116.084 89.393 115.803 91.2496 115.898C91.7068 115.921 92.0306 115.797 92.2552 115.404C92.5448 115.374 92.7921 115.47 92.976 115.691C93.3861 116.177 93.6106 116.03 93.8872 115.524C94.46 114.474 94.8749 113.36 95.145 112.211C95.42 111.037 95.6934 109.822 95.3631 108.612C94.927 107.019 94.2631 106.44 92.9662 106.779C92.5497 106.611 92.138 106.437 91.7947 106.137C92.2893 106.014 92.8019 105.873 93.2526 105.687C93.7684 105.473 94.2696 105.034 94.5186 104.478C95.1792 103.004 95.8463 101.538 96.3882 100.004C97.7924 96.0236 99.361 92.102 100.863 88.1575C100.949 87.9324 101.029 87.7025 101.097 87.471C101.465 86.2203 100.995 85.7018 99.7304 85.9366C95.9 86.6508 92.1608 87.74 88.3923 88.707C83.1284 90.0572 77.801 91.1236 72.4981 92.3058C72.1547 92.3824 71.8049 92.4297 71.4583 92.4868C71.1394 92.539 70.757 92.6564 70.6642 92.1982C70.5568 91.6666 71.0385 91.6535 71.3509 91.6046C72.8788 91.3731 74.3417 90.8627 75.8517 90.5594C76.3561 90.4795 76.867 90.4322 77.3617 90.3148C81.1465 89.4065 84.9378 88.5195 88.7079 87.5509C90.1675 87.1791 91.6792 87.0226 93.0932 86.4682ZM95.8642 104.125C96.3866 104.136 96.7787 103.89 97.1448 103.538C97.5532 103.143 97.9877 102.774 98.4319 102.421C98.6435 102.253 98.9022 102.253 99.0714 102.502C99.2146 102.712 99.1218 102.903 98.9705 103.089C98.7932 103.308 98.4433 103.383 98.4156 103.751C99.1381 103.842 99.8264 103.696 100.515 103.588C100.819 103.541 101.148 103.456 101.242 103.857C101.341 104.279 101.048 104.408 100.689 104.488C99.8378 104.676 98.9754 104.751 98.1097 104.739C97.0749 104.725 96.136 105.034 95.2362 105.499C94.87 105.69 94.5902 105.85 95.1288 106.264C95.944 106.89 96.2759 107.824 96.3735 108.822C96.6225 111.369 95.8984 113.698 94.735 115.921C94.1101 117.114 93.3421 118.212 92.3642 119.288C92.6555 119.315 92.81 119.335 92.9662 119.345C99.0649 119.718 105.155 119.286 111.249 119.143C111.632 119.134 111.728 118.973 111.825 118.637C112.375 116.764 112.377 114.887 111.89 113.013C111.311 110.786 110.3 108.742 109.01 106.856C106.807 103.635 104.521 100.477 102.716 96.9955C101.989 95.5931 101.026 94.3131 100.176 92.9874C99.8752 93.1064 99.9012 93.338 99.8378 93.4961C98.4807 96.8585 97.4182 100.335 95.9293 103.647C95.8675 103.784 95.6625 103.957 95.8789 104.143C95.8398 104.074 95.7975 104.071 95.7634 104.143C95.7536 104.162 95.7715 104.191 95.7747 104.217C95.804 104.187 95.8333 104.156 95.8642 104.125ZM102.018 86.9818C102.472 86.9818 102.877 86.9834 103.283 86.9818C115.454 86.9345 127.625 86.8791 139.796 86.8416C158.582 86.7829 177.368 86.7339 196.153 86.7013C196.762 86.6997 196.912 86.5513 196.913 85.9415C196.946 68.9373 196.999 51.9315 197.048 34.9273C197.053 33.4549 197.048 33.4565 195.584 33.4598C178.858 33.5038 162.132 33.5478 145.408 33.5935C131.177 33.631 116.946 33.675 102.713 33.6913C102.008 33.6913 101.797 33.8479 101.807 34.5817C101.841 36.8352 101.781 39.0887 101.764 41.3422C101.72 47.3168 101.683 53.2931 101.637 59.2677C101.572 67.6882 101.502 76.1088 101.436 84.5293C101.434 84.7968 101.379 85.0723 101.607 85.2941C102.072 85.7474 102.16 86.3132 102.018 86.9818ZM135.348 117.644C135.595 117.644 135.784 117.644 135.972 117.644C144.782 117.629 153.591 117.616 162.399 117.603C162.669 117.603 162.943 117.602 163.21 117.633C163.423 117.657 163.538 117.814 163.54 118.029C163.543 118.239 163.442 118.412 163.237 118.456C163.029 118.5 162.808 118.497 162.591 118.497C153.403 118.541 144.214 118.59 135.025 118.616C134.435 118.618 133.851 118.831 133.257 118.658C133.136 118.624 133.043 118.702 133.022 118.821C133 118.952 133.094 119.019 133.208 119.03C133.369 119.045 133.533 119.045 133.694 119.045C143.993 119.045 154.291 119.045 164.589 119.037C164.778 119.037 165.024 119.159 165.208 118.81C164.131 118.812 163.812 118.003 163.481 117.228C163.302 116.806 163.182 116.359 163.05 115.919C162.066 112.654 161.901 109.251 161.392 105.907C161.291 105.246 161.128 105.026 160.417 105.031C154.021 105.067 147.623 105.054 141.227 105.056C140.197 105.056 139.167 105.069 138.137 105.057C137.762 105.052 137.539 105.108 137.513 105.573C137.45 106.654 137.37 107.738 137.211 108.808C136.775 111.751 136.504 114.732 135.348 117.644ZM150.296 31.759C150.662 31.7264 151.089 31.6416 151.033 31.1459C150.983 30.6861 150.871 30.1056 150.241 30.1154C149.732 30.1219 149.392 30.4969 149.384 31.0171C149.374 31.5666 149.792 31.715 150.296 31.759Z" fill="black"/>
<path d="M58.0944 82.8856C57.5054 83.2786 57.2222 83.0878 57.1246 82.4144C57.0302 81.7703 56.8984 81.1311 56.7536 80.4951C55.7659 76.174 52.632 73.7215 49.0408 71.7109C47.6284 70.9201 46.1315 70.2744 44.6556 69.6009C42.9536 68.8247 41.6095 67.5431 40.1239 66.4603C39.8229 66.2418 39.8229 65.9793 40.0589 65.6939C41.0905 64.4481 41.6226 62.9186 42.5094 61.4413C40.6983 61.4266 39.0061 61.1885 37.3415 60.7727C36.632 60.5966 35.9079 60.4759 35.2083 60.2672C34.2645 59.9851 34.1441 59.4976 34.7331 58.7442C35.2685 58.0593 35.7273 57.3125 36.0267 56.4939C36.6532 54.7753 37.2357 53.0403 37.8947 51.1455C33.8984 53.7056 29.3748 54.7753 25.577 57.3207C24.6072 57.9713 23.5024 58.3708 22.4431 58.8535C22.1567 58.9839 21.8589 59.1209 21.6783 58.7524C21.5221 58.436 21.6946 58.1784 21.968 57.9941C22.0347 57.9485 22.1047 57.9028 22.1779 57.8702C25.7219 56.3195 28.9144 54.0562 32.595 52.7729C34.5135 52.1043 36.2806 51.0884 37.9907 49.9829C38.448 49.6877 38.7164 49.2768 38.9475 48.8055C39.5121 47.6543 40.1907 46.583 41.1816 45.722C41.0742 45.4758 40.8399 45.3926 40.6463 45.2752C37.4912 43.3625 34.9707 40.8041 32.7984 37.8298C31.578 36.16 31.2689 34.2424 30.9841 32.3476C30.0452 26.1056 31.4169 20.2321 34.1652 14.6374C35.4702 11.9795 36.9575 9.42104 38.8824 7.1561C40.7309 4.98084 42.991 3.30782 45.5131 1.99517C46.7872 1.33313 48.1426 1.18638 49.5387 1.56142C49.7552 1.62012 49.9488 1.66089 50.162 1.54838C51.8884 0.635227 53.7613 0.785245 55.5756 0.979289C61.8987 1.65437 66.9023 4.91888 71.1883 9.38353C73.4484 11.7382 74.6379 14.7222 75.4693 17.8579C76.4505 21.5627 77.3064 25.2658 77.1567 29.1549C77.0135 32.8955 75.6597 36.1633 73.7006 39.2517C72.5844 41.0095 71.3038 42.6728 70.6106 44.6752C70.404 45.2703 70.2185 45.859 70.2949 46.4982C70.3519 46.9678 70.1452 47.1244 69.6782 47.0836C69.003 47.0265 68.3488 46.9238 67.6605 46.5292C67.6736 47.863 67.986 49.0681 68.1178 50.291C68.1731 50.8014 68.3732 51.3102 68.3505 51.8124C68.2707 53.549 69.208 54.56 70.5179 55.5482C73.7478 57.986 77.1486 60.1449 80.5949 62.2468C81.3044 62.6789 82.0578 63.1012 82.2725 64.0307C82.3018 64.1611 82.4792 64.2785 82.6126 64.3601C84.1731 65.3042 85.1006 66.7587 85.7677 68.391C88.0474 73.9742 91.2773 79.0145 94.5919 84.0075C94.7708 84.2782 94.9449 84.5537 95.1077 84.8342C95.2688 85.1147 95.3404 85.4245 95.0149 85.6185C94.6277 85.8501 94.4177 85.5419 94.2371 85.2647C93.3959 83.9683 92.5986 82.6426 91.7166 81.374C89.0107 77.485 86.8254 73.3171 84.9867 68.9584C84.3472 67.4452 83.2846 66.294 82.1798 65.0678C79.4364 62.0218 75.523 60.7613 72.5063 58.1849C71.3998 57.2391 70.1973 56.4059 68.8777 55.3982C69.0811 56.7614 69.2682 57.9452 69.4309 59.1323C69.6506 60.7401 69.9988 62.3299 70.0915 63.9557C69.7954 64.0111 69.5009 64.0649 69.2047 64.1204C69.0941 63.4534 68.9737 62.7865 68.8744 62.118C68.217 57.6696 67.5548 53.2229 66.9251 48.7697C66.8551 48.2805 66.6484 48.3734 66.3344 48.4321C66.0366 48.4876 65.7926 48.4321 65.8755 48.9344C66.1505 50.5894 66.3409 52.2592 66.5703 53.9208C67.0634 57.4903 67.5613 61.0597 68.056 64.6291C67.7435 64.8574 67.5841 65.2814 67.1464 65.3515C66.6419 61.6761 66.0317 58.0088 65.6852 54.3187C65.5322 52.6881 64.8016 51.664 63.5519 50.8536C62.8946 50.428 62.2258 49.9845 61.5033 49.704C59.8274 49.0567 60.1772 49.0061 59.3669 50.6253C59.2253 50.9058 59.1944 51.0395 59.6028 51.1765C60.4017 51.4423 60.9485 52.0423 61.2837 52.8332C61.6368 53.6681 61.7751 54.5502 61.8808 55.4389C62.4129 59.8922 61.9622 64.2443 60.6898 68.5459C59.305 73.229 57.9447 77.9318 58.1156 82.9019L58.0944 82.8856ZM53.5774 23.8619C53.4472 23.9499 53.317 24.0396 53.1885 24.1276C52.8321 24.4261 52.4758 24.7228 52.1194 25.0212C51.2766 25.3115 50.6403 26.0746 49.734 26.1822C47.2867 26.4709 44.833 26.735 42.3841 26.1757C41.9122 26.0681 41.4452 25.9279 40.9847 25.7795C40.6886 25.6833 40.4185 25.6865 40.3062 26.0012C40.189 26.3306 40.4477 26.4888 40.7097 26.5997C40.8334 26.6519 40.9652 26.6877 41.0954 26.7252C42.9796 27.265 44.8899 27.552 46.8572 27.3547C48.5999 27.1802 48.5999 27.1883 48.2451 28.9249C48.224 29.0309 48.2142 29.1402 48.2028 29.2478C47.5113 35.873 48.4827 42.1575 52.0088 47.9201C52.4319 48.6099 52.3277 48.8805 51.5402 49.0175C50.7852 49.148 50.0302 49.0909 49.2784 48.9523C47.2217 48.5691 45.2821 47.8239 43.3604 47.0233C42.0635 46.1558 41.6779 46.2259 40.7992 47.4896C40.3338 48.1598 39.9791 48.8887 39.6098 49.6143C38.0005 52.7696 37.6588 56.445 35.5272 59.4144C37.7011 59.9443 39.7985 60.4841 41.9871 60.4661C42.3385 60.4629 42.7063 60.4988 43.0219 60.3243C43.2985 60.171 43.567 59.8351 43.8648 60.1775C44.1398 60.4939 43.9104 60.8216 43.733 61.1412C42.8918 62.6544 42.0765 64.184 41.2337 65.6972C41.1068 65.9239 41.0693 66.0624 41.2988 66.2337C42.6216 67.2186 43.8827 68.2883 45.4432 68.9193C46.4943 69.3449 47.5048 69.8667 48.5332 70.3477C50.5964 71.3131 52.4921 72.5311 54.1729 74.1047C53.7726 72.9404 53.3333 71.8137 52.741 70.757C50.4304 66.6462 47.6415 62.8273 45.4253 58.6561C44.3969 56.7206 43.1846 54.878 42.4606 52.794C41.8976 51.1748 41.7804 49.5067 42.2067 47.8321C42.3271 47.3575 42.5338 46.8472 43.2237 47.1684C43.3392 47.4114 43.2383 47.6266 43.1733 47.8663C42.5224 50.2927 42.7844 52.6734 44.4913 54.5013C47.3909 57.6093 51.0959 58.5453 55.2452 57.7316C56.1532 57.5538 57.0189 57.2342 57.8194 56.7777C59.0382 56.0814 59.4775 54.4018 58.6476 53.5555C58.537 54.3366 58.4491 55.0883 58.3173 55.8319C58.262 56.145 58.0586 56.3994 57.6876 56.2917C57.3801 56.2021 57.3004 55.9412 57.3508 55.6379C57.3915 55.3982 57.4419 55.1601 57.4728 54.9188C57.7673 52.6538 58.1009 50.4068 59.4743 48.4745C59.8241 47.9821 60.1056 47.4391 60.4815 46.8178C58.2913 46.8586 56.3501 46.3188 54.4463 45.6063C53.3528 45.197 52.287 44.7404 51.3579 44.0164C51.0943 43.8109 50.9511 43.5337 51.1545 43.2386C51.3579 42.9418 51.6264 43.0772 51.8575 43.2549C53.3317 44.3833 55.063 44.9442 56.8236 45.3617C59.1993 45.9242 61.5993 46.2781 64.0189 45.4774C64.3704 45.3617 64.4062 45.2687 64.3574 44.9426C64.2386 44.1403 64.1263 43.3299 64.1101 42.5211C64.1019 42.1461 64.1247 41.9129 63.6805 41.8428C63.4315 41.8036 63.2346 41.5949 63.2948 41.3079C63.3681 40.9557 63.6479 40.9573 63.936 41.0046C64.2207 41.0519 64.5217 41.1693 64.7886 41.1155C66.2172 40.8301 66.5638 40.9883 67.0308 42.2977C67.5841 41.047 68.1308 39.8436 68.6531 38.6288C69.4976 36.6688 70.7213 34.8735 71.2013 32.7585C71.3054 32.3003 71.4909 31.9057 71.7936 31.5568C71.8961 31.5242 71.9986 31.4622 72.0995 31.4638C74.2652 31.5111 75.1504 30.3208 75.5751 28.3624C75.8387 27.1476 75.7525 25.9328 75.6841 24.7163C75.6304 23.7771 75.1927 23.3759 74.2441 23.3091C73.5721 23.2618 72.887 23.3498 72.2313 23.1167C72.407 21.3556 72.2492 19.6222 71.7155 17.866C72.0913 17.8889 72.3859 17.8938 72.6771 17.9296C72.996 17.9704 73.3296 17.9786 73.3703 17.5856C73.411 17.1991 73.0676 17.0866 72.765 17.0785C71.3217 17.0377 70.0362 16.4588 68.7296 15.9386C65.9244 14.8217 63.2233 13.5335 60.9664 11.4626C60.2537 10.8087 59.6532 10.0521 58.8982 9.1634C59.3392 10.8071 59.6305 12.2746 59.3213 13.7683C58.742 16.573 57.5607 19.1021 55.7968 21.3654C55.351 21.9361 54.7424 22.378 54.4544 23.0743C54.1583 23.3352 53.8686 23.5993 53.5774 23.8619ZM65.1775 50.9335C64.9725 49.3795 64.7918 48.0033 64.608 46.627C64.5673 46.3286 64.3753 46.3873 64.1914 46.4721C63.5129 46.7836 62.7872 46.8341 62.0582 46.8944C61.6254 46.9303 60.7451 47.85 60.6898 48.2625C60.6637 48.4566 60.7679 48.4876 60.9029 48.5283C62.4438 48.9865 63.7879 49.8133 65.1775 50.9335ZM57.9512 7.14631C57.8731 7.05011 57.7934 6.90009 57.6697 6.81204C56.6348 6.07173 55.9433 5.0265 55.1785 4.04487C54.8954 3.68287 54.5944 3.33391 54.2787 2.998C54.0932 2.79907 53.8215 2.74852 53.6246 2.94419C53.4261 3.1415 53.4977 3.38935 53.6799 3.59807C54.6432 4.70038 55.4112 5.96248 56.4558 6.9963C56.7064 7.24415 56.9407 7.52299 57.302 7.60289C57.6307 7.67627 57.8992 7.60615 57.9512 7.14631ZM44.2358 31.7084C44.2651 32.2563 44.2911 32.7422 44.3155 33.2265C44.3334 33.5918 44.3806 34.0174 44.8379 33.9815C45.3162 33.9424 45.2446 33.5005 45.2056 33.1483C45.1015 32.1813 45.0103 31.216 45.204 30.2506C45.2674 29.9343 45.2674 29.5951 44.8948 29.5348C44.4799 29.4679 44.3578 29.8202 44.3285 30.1593C44.2797 30.6942 44.2618 31.2339 44.2358 31.7084ZM66.2482 44.2871C66.1977 43.824 66.1196 43.1799 66.0627 42.5358C66.0317 42.1934 65.9846 41.8379 65.5615 41.8444C65.114 41.8525 64.979 42.2488 65.005 42.5994C65.0538 43.2696 65.1742 43.9349 65.2898 44.5985C65.3483 44.9279 65.6136 45.0062 65.9081 44.967C66.1912 44.9295 66.349 44.7763 66.2482 44.2871ZM41.0644 30.9094C41.0465 30.9094 41.027 30.9111 41.0091 30.9111C41.0482 31.3122 41.0563 31.7198 41.136 32.1128C41.1832 32.3476 41.3394 32.5792 41.6502 32.5091C41.9041 32.452 41.9708 32.2335 41.9659 32.0052C41.9496 31.3318 41.9236 30.6583 41.8992 29.9832C41.891 29.7321 41.769 29.5642 41.5119 29.5511C41.2597 29.5397 41.0954 29.7028 41.0742 29.9359C41.0417 30.2588 41.0644 30.5849 41.0644 30.9094ZM66.585 46.7265C66.4369 46.5047 66.8323 45.8867 66.1587 45.8851C65.9227 45.8851 65.3369 45.7595 65.5338 46.3971C65.6624 46.8129 65.3906 47.4798 66.1229 47.5353C66.5882 47.5712 66.6891 47.2206 66.585 46.7265Z" fill="black"/>
<path d="M49.376 91.2263C49.9471 90.3653 50.585 89.5777 51.5499 89.1195C51.7712 89.0152 51.9599 88.8456 52.2219 88.9809C52.0901 89.3657 51.9583 89.7522 51.8265 90.137C50.9267 90.3784 50.4938 91.0958 50.144 91.8606C49.3841 93.5206 48.8829 95.2719 48.7316 97.0851C48.6047 98.6016 48.5103 100.134 48.6844 101.767C49.9959 100.945 50.8941 99.7219 52.3521 99.3811C52.8484 99.5245 53.2649 99.4283 53.6782 99.0859C54.0785 98.7533 54.6334 98.644 55.0239 98.2722C55.1215 99.0223 55.2078 99.7757 55.3184 100.524C55.774 103.653 55.4144 106.637 53.7303 109.375C53.2421 110.169 52.6759 110.908 51.7354 111.203C50.803 111.497 49.9178 111.896 49.0408 112.317C46.6423 113.466 44.0063 113.977 41.59 115.069C39.2924 116.108 36.9395 116.94 34.4874 117.559C32.7007 118.011 31.0296 118.864 29.4903 120.053C29.8857 120.235 30.2079 120.163 30.5187 120.149C34.1961 119.974 37.8735 119.751 41.5525 119.622C46.1282 119.462 50.707 119.371 55.2842 119.267C57.6111 119.213 57.8535 118.986 57.9235 116.61C57.9333 116.258 57.9219 115.904 57.9268 115.55C57.9463 114.003 57.8812 112.455 58.026 110.91C58.2896 108.074 58.506 105.233 58.7924 102.401C58.9893 100.447 58.8543 98.4924 58.9503 96.5405C59.2074 96.4557 59.4644 96.3709 59.7215 96.2861C59.8013 99.1576 59.8078 102.023 59.536 104.891C59.1976 108.472 58.7696 112.053 58.9161 115.664C58.9389 116.23 58.8624 116.799 58.8201 117.59C59.6581 116.116 60.1267 114.691 60.7694 113.349C61.0688 113.426 61.3861 113.46 61.6009 113.726C60.8654 115.382 60.1397 117.044 59.388 118.694C59.1992 119.107 59.2724 119.185 59.7215 119.178C61.7002 119.151 63.6788 119.167 65.6575 119.157C68.5571 119.143 71.4518 119.232 74.3319 119.609C74.519 119.633 74.7029 119.677 74.8851 119.723C75.1666 119.793 75.4172 119.917 75.3538 120.268C75.2919 120.607 75.0104 120.672 74.7273 120.644C74.026 120.576 73.3296 120.463 72.6283 120.406C68.3813 120.054 64.1279 120.101 59.8729 120.191C55.0727 120.292 50.2726 120.343 45.4724 120.455C39.1378 120.604 32.8163 121.251 26.4719 121.083C21.815 120.961 17.1645 120.625 12.5027 120.667C8.95381 120.698 5.40657 120.817 1.85772 120.896C1.45092 120.905 1.04413 120.92 0.638964 120.905C0.297258 120.894 0.0727087 120.677 0.0548098 120.349C0.0385381 120.028 0.350955 120.005 0.578759 119.953C0.762629 119.912 0.954635 119.906 1.14339 119.902C6.67089 119.803 12.1984 119.676 17.7259 119.769C20.7833 119.821 23.8408 119.981 26.8966 120.128C27.5475 120.158 28.0047 120.023 28.5287 119.563C30.094 118.192 31.9408 117.201 33.9341 116.69C36.6206 116.002 39.1834 115.043 41.7218 113.956C43.183 113.329 44.732 112.907 46.2518 112.424C47.4673 112.038 48.6063 111.484 49.8104 110.934C48.263 108.982 48.0401 106.683 47.8416 104.379C47.5845 101.398 47.4494 98.419 48.0254 95.4578C48.3102 93.9902 48.8211 92.5944 49.3971 91.2198L49.376 91.2263Z" fill="black"/>
<path d="M61.5995 113.724C61.3847 113.46 61.0674 113.424 60.768 113.347C60.2489 112.308 61.222 111.8 61.6174 111.037C61.069 110.816 60.5402 110.627 60.0309 110.394C59.0123 109.929 58.9553 109.378 59.8243 108.671C60.4914 108.128 61.2578 107.953 62.1007 107.994C62.3073 108.004 62.6328 108.142 62.6995 107.779C62.7564 107.467 62.4879 107.366 62.2618 107.283C61.6792 107.068 61.0821 106.888 60.5044 106.662C59.6078 106.309 59.507 105.708 60.2392 105.088C60.7501 104.656 61.3359 104.406 62.0226 104.429C62.6165 104.449 63.2104 104.454 63.8059 104.464C64.1053 104.641 64.4357 104.7 64.7757 104.734C66.813 105.232 68.5931 106.402 70.6091 106.965C72.6529 107.536 74.7519 107.736 76.8412 108.008C77.0381 108.035 77.3196 108.108 77.427 107.865C77.5442 107.598 77.2399 107.518 77.1016 107.373C75.6729 105.871 73.8928 104.799 72.3226 103.472C71.6554 102.908 71.0599 102.285 70.5668 101.564C70.2593 101.114 70.0771 100.661 70.4757 100.149C70.9134 99.5863 71.4699 99.5097 72.0736 99.7592C73.6552 100.415 75.1245 101.282 76.5727 102.187C78.112 103.149 79.6204 104.152 81.4526 104.517C83.7892 104.984 85.6637 103.886 86.4627 101.649C87.0371 100.036 87.2112 98.3112 87.919 96.7409C88.2574 95.9891 88.7065 95.3141 89.3053 94.7531C89.7317 94.3536 90.2426 94.0275 90.843 94.3014C91.4858 94.5966 91.572 95.2293 91.4874 95.8375C91.3963 96.506 91.2319 97.1697 91.0464 97.8203C90.3484 100.274 90.4769 102.756 90.7731 105.245C90.8414 105.82 91.1571 106.179 91.7917 106.14C92.135 106.44 92.5467 106.616 92.9632 106.784C94.0404 107.226 94.509 107.914 94.3707 109.135C94.1641 110.945 93.7313 112.7 92.8591 114.327C92.6638 114.692 92.2277 114.922 92.2538 115.408C92.0292 115.801 91.7071 115.925 91.2482 115.902C89.3916 115.808 87.5529 116.087 85.7077 116.217C85.4669 116.233 85.2211 116.248 85.0666 116.476C83.8446 116.4 82.6567 116.654 81.4705 116.876C76.7403 117.76 72.1208 117.531 67.5956 115.741C65.6414 114.965 63.6025 114.389 61.5995 113.724ZM60.3336 109.527C60.9324 109.721 61.4075 109.902 61.8956 110.027C63.2641 110.378 64.6163 110.766 65.8676 111.439C66.948 112.021 68.1 112.413 69.2651 112.78C70.4546 113.153 71.6326 113.558 72.8628 113.787C73.1524 113.841 73.4909 113.946 73.4258 114.347C73.3542 114.787 72.9978 114.772 72.661 114.725C72.4739 114.699 72.2884 114.655 72.1045 114.609C70.2072 114.145 68.3685 113.5 66.5249 112.855C65.1711 112.38 63.7571 112.103 62.3024 112.196C62.0632 112.211 61.7541 112.279 61.7134 112.547C61.6613 112.884 62.0193 112.861 62.226 112.928C64.3673 113.616 66.5152 114.278 68.624 115.066C72.4723 116.502 76.423 116.791 80.4519 116.061C83.5761 115.493 86.723 115.079 89.8944 115.098C91.0936 115.105 91.7054 114.617 92.1708 113.68C92.7549 112.501 93.0674 111.235 93.3131 109.954C93.6531 108.173 93.3114 107.787 91.9235 107.371C91.4321 107.223 90.9797 106.967 90.5631 106.652C90.171 106.357 89.9253 105.982 89.8781 105.497C89.621 102.844 89.3948 100.19 90.114 97.5643C90.2361 97.1192 90.3516 96.6724 90.4476 96.2223C90.5143 95.9109 90.6949 95.4527 90.4216 95.3108C90.0604 95.1233 89.826 95.5864 89.6129 95.8375C88.8953 96.6838 88.4787 97.6915 88.2591 98.7645C88.0085 99.9923 87.5936 101.166 87.2502 102.365C86.5001 104.982 83.7697 105.757 81.5763 105.501C79.526 105.261 77.8322 104.141 76.1318 103.066C74.8251 102.241 73.5023 101.44 72.0801 100.827C71.8604 100.733 71.5822 100.534 71.4048 100.738C71.1624 101.016 71.5171 101.21 71.6587 101.406C72.0736 101.982 72.6089 102.442 73.1508 102.898C74.7259 104.222 76.5093 105.287 77.9428 106.79C78.2731 107.136 78.623 107.407 78.5383 107.947C78.444 108.555 77.9428 108.685 77.4823 108.817C77.2057 108.897 76.89 108.887 76.5971 108.861C73.1264 108.555 69.7158 107.995 66.5559 106.407C65.355 105.804 64.0533 105.535 62.7369 105.339C62.1592 105.253 61.5979 105.334 60.9942 105.761C63.3747 106.631 65.5405 107.617 67.594 108.832C69.2651 109.822 71.0355 110.534 72.9246 110.986C73.7122 111.175 74.4786 111.462 75.2498 111.715C75.5362 111.809 75.7347 112 75.6273 112.326C75.5362 112.604 75.2824 112.659 75.0237 112.613C74.7845 112.573 74.5485 112.506 74.3175 112.432C71.9727 111.687 69.5417 111.175 67.4036 109.866C67.2686 109.783 67.1026 109.735 66.9431 109.708C65.425 109.437 63.9085 109.148 62.3838 108.918C61.715 108.819 61.0316 108.878 60.3336 109.527Z" fill="#F85E60"/>
<path d="M51.8266 90.1354C51.9584 89.7506 52.0902 89.3641 52.222 88.9793C53.9501 87.4008 55.6912 85.8354 57.3948 84.2293C57.7593 83.8868 58.3012 83.5591 58.0961 82.8856L58.1091 82.9101C58.5208 82.7568 58.5957 82.6133 58.9667 81.6871C59.9885 79.1271 60.4881 76.4398 60.903 73.7329C61.1926 71.8479 61.9167 70.2287 63.3763 68.9373C64.6732 67.7909 65.8903 66.5549 67.1416 65.3597C67.5793 65.2896 67.7387 64.8656 68.0512 64.6373C68.4335 64.4677 68.8159 64.2981 69.1983 64.1286C69.4945 64.0731 69.789 64.0193 70.0851 63.9639C70.1909 64.3193 70.5017 64.3259 70.7881 64.4074C71.7481 64.6813 72.7504 64.8248 73.6503 65.2912C74.6201 65.7934 75.7037 67.9605 75.5329 69.0367C75.406 69.8309 74.8137 70.2418 74.0082 70.0901C73.2728 69.9515 72.6398 69.6433 72.1028 69.0922C71.3511 68.3193 71.286 68.3405 70.5668 69.0987C70.4919 69.177 70.4122 69.252 70.3438 69.3368C70.1762 69.5439 69.8394 69.733 69.9126 69.9825C70.0119 70.3233 70.4138 70.1929 70.6921 70.2336C71.5479 70.3592 72.4136 70.4391 73.2386 70.7147C74.4427 71.1174 74.9845 72.0077 74.7063 73.2323C74.5615 73.8732 74.485 74.4472 75.0057 74.951C75.0789 75.0211 75.1212 75.1402 75.1407 75.2445C75.554 77.5225 75.7216 79.8005 74.6298 81.9448C74.0798 83.0259 72.9831 83.3536 71.8734 83.3275C71.3804 83.3161 71.2941 83.4498 71.1704 83.8151C70.6807 85.2517 70.1844 86.685 69.6588 88.1085C68.9738 89.9658 67.5256 91.1203 65.9277 92.1509C64.0613 93.3559 62.195 94.5544 60.2293 95.5915C59.9478 95.7399 59.6029 95.8442 59.7184 96.2861C59.4613 96.3709 59.2042 96.4557 58.9471 96.5405C58.8511 96.3008 58.6933 96.4133 58.5566 96.4818C57.3785 97.077 56.2005 97.6754 55.024 98.2722C54.6335 98.644 54.0786 98.7533 53.6784 99.0859C53.2634 99.43 52.8485 99.5262 52.3522 99.3811C51.2311 96.3514 51.0407 93.2711 51.8266 90.1354ZM74.2035 75.7533C74.1693 75.0945 73.7414 74.9527 73.4078 74.7684C72.4103 74.2205 71.3982 73.7003 70.3829 73.1851C69.2959 72.6323 68.1911 72.223 66.9658 72.7774C66.7592 72.8703 66.5232 72.8573 66.4093 72.6045C66.2889 72.3371 66.3947 72.1317 66.6355 71.9882C66.9675 71.7909 67.3287 71.6996 67.7143 71.6653C68.746 71.5756 69.7027 71.817 70.6156 72.2817C71.4373 72.6991 72.2704 73.0921 73.0791 73.5307C73.4973 73.7574 73.6486 73.6367 73.7381 73.2111C73.9269 72.3094 73.6763 71.8121 72.7553 71.5577C71.1281 71.1093 69.4424 71.0359 67.7745 70.8565C66.7901 70.7505 65.7878 70.4619 64.8944 71.2006C64.7366 71.331 64.5121 71.2789 64.3868 71.1044C64.2143 70.863 64.3249 70.6462 64.499 70.4456C65.0507 69.8113 65.8317 69.733 66.5265 69.8749C68.0853 70.1945 69.1137 69.6629 70.0428 68.3926C70.9052 67.2137 71.5089 67.2757 72.5893 68.2981C73.014 68.6992 73.4534 69.0237 74.0343 69.1525C74.3711 69.2259 74.555 69.1623 74.5777 68.784C74.6396 67.8187 73.5998 66.2076 72.6561 65.919C71.8295 65.6662 70.9736 65.5097 70.1404 65.2749C69.3806 65.0613 68.7785 65.2977 68.1976 65.7869C66.8682 66.9055 65.6608 68.1595 64.351 69.296C62.688 70.7391 61.9493 72.5785 61.6987 74.7048C61.4855 76.5132 61.0722 78.2873 60.558 80.0321C59.9853 81.9709 59.2612 83.8428 57.7007 85.2452C56.3697 86.442 55.0598 87.6634 53.693 88.8195C53.1381 89.2891 52.7802 89.8452 52.6565 90.5137C52.2448 92.7411 52.0138 94.9735 52.7151 97.2025C53.0503 98.2673 53.0128 98.2771 54.0005 97.6868C54.2332 97.5482 54.4692 97.4129 54.7149 97.2987C58.3532 95.5964 61.824 93.5989 65.2313 91.4709C67.2978 90.1794 68.689 88.4999 69.3545 86.1583C69.7695 84.6989 70.3097 83.2754 70.7913 81.8339C71.0989 80.9158 71.5756 80.1087 72.2997 79.4548C72.5991 79.1841 72.9408 78.9102 73.2841 79.2689C73.6389 79.6391 73.2451 79.8918 72.9961 80.1299C72.3485 80.7479 71.8392 81.4425 71.7009 82.3802C73.1296 82.3214 73.6877 81.9007 74.0863 80.6696C74.3646 79.8103 74.4736 78.9232 74.5647 78.0313C74.6266 77.4214 74.376 76.9746 73.8797 76.6567C73.2174 76.2327 72.5503 75.8169 71.8815 75.4043C71.2892 75.0391 70.6693 74.9575 70.0233 75.2608C69.7467 75.3897 69.4277 75.556 69.2569 75.1695C69.0763 74.7602 69.4343 74.5792 69.719 74.4423C70.5977 74.0248 71.4601 74.1781 72.2802 74.6135C72.9066 74.9461 73.4973 75.3326 74.2035 75.7533Z" fill="#F85E60"/>
<path d="M49.3975 91.2181C48.6116 91.3942 47.9395 91.8328 47.2773 92.2454C44.2328 94.1336 40.9004 95.2897 37.4964 96.3089C35.8366 96.8046 34.3754 97.7944 32.7938 98.4956C29.9642 99.7495 27.0304 100.653 24.0055 101.274C23.2716 101.424 22.5524 101.189 21.8283 101.136C21.5696 101.116 21.2881 100.968 21.3353 100.606C21.3922 100.17 21.7258 100.191 22.0171 100.262C23.929 100.718 25.6392 99.9582 27.39 99.4071C27.7529 99.2929 27.7431 99.0418 27.7577 98.7777C27.8082 97.8759 27.6569 96.9921 27.5316 96.1034C27.128 93.2531 27.1297 90.3734 26.9116 87.5084C26.7961 85.9854 26.264 84.5472 25.9451 83.0649C25.4732 80.8652 25.125 78.6427 24.741 76.4267C24.6873 76.1201 24.6352 75.7809 25.0241 75.6896C25.413 75.5983 25.5415 75.9195 25.5903 76.2245C26.181 79.9195 27.2029 83.5264 27.8489 87.2018C28.2833 89.6706 28.1971 92.2307 28.3533 94.7484C28.433 96.0186 28.7666 97.2628 28.7015 98.551C28.6657 99.2701 29.1783 98.8853 29.4175 98.8021C30.9014 98.2868 32.3691 97.7063 33.7327 96.9367C36.2353 95.5262 38.982 94.812 41.6668 93.9053C43.569 93.2629 45.2726 92.1899 47.2138 91.1251C46.4832 91.0387 46.3921 90.6294 46.3921 90.1549C46.3954 88.3628 46.3661 86.5708 46.4035 84.7787C46.4181 84.0776 46.2798 83.8803 45.5574 84.1314C43.1833 84.9565 40.7295 85.3103 38.2123 85.2272C37.4768 85.2027 36.7527 85.1473 36.0466 84.9255C35.573 84.7771 35.381 84.8358 35.4412 85.4391C35.5909 86.9214 35.508 88.4232 35.7911 89.8989C35.8545 90.2332 35.7911 90.5952 35.3599 90.6359C34.9612 90.6734 34.901 90.3457 34.8571 90.0342C34.6098 88.283 34.6456 86.5137 34.5414 84.7526C34.4959 83.9781 34.8734 83.6927 35.6088 83.8819C38.9641 84.7429 42.2152 84.2276 45.4191 83.1465C47.1227 82.5709 47.3554 82.7013 47.3652 84.5015C47.3717 85.8843 47.4628 87.2703 47.2545 88.6498C47.1406 89.4081 47.5523 90.1468 47.3294 90.905C47.6288 91.0045 47.8191 90.812 48.0242 90.7126C49.0102 90.2364 49.129 90.2772 49.3715 91.2246C49.3763 91.2262 49.3975 91.2181 49.3975 91.2181Z" fill="black"/>
<path d="M4.0542 115.421C4.24783 111.844 4.73273 108.302 5.38034 104.778C6.26878 99.9516 7.05307 95.107 7.97731 90.2885C8.95198 85.2059 10.1235 80.164 11.326 75.1302C12.0241 72.2082 12.4976 69.2323 13.495 66.3819C14.1573 64.4888 15.3142 62.9886 16.9105 61.8455C18.03 61.0449 19.2503 60.3812 20.4366 59.6752C20.7311 59.4991 21.1118 59.2675 21.3461 59.7192C21.5495 60.1089 21.2095 60.2671 20.9133 60.4448C19.8003 61.115 18.6776 61.7738 17.6069 62.5076C16.1896 63.4794 15.1352 64.7725 14.5316 66.3982C13.4706 69.2551 12.9955 72.2636 12.3153 75.2167C10.8867 81.4228 9.41084 87.6192 8.29623 93.8922C7.47126 98.5395 6.62025 103.18 5.85222 107.837C5.44706 110.298 5.13464 112.778 4.98982 115.271C4.92311 116.413 5.10372 117.543 5.35105 118.656C5.42753 119.001 5.46658 119.346 5.05003 119.454C4.63673 119.56 4.48214 119.248 4.40079 118.903C4.12579 117.756 4.02491 116.599 4.0542 115.421Z" fill="black"/>
<path d="M93.093 86.468C91.6806 87.0224 90.1689 87.1805 88.711 87.554C84.9409 88.5225 81.1512 89.4096 77.3648 90.3179C76.8701 90.4369 76.3575 90.4826 75.8547 90.5625C75.6042 89.1617 75.884 88.8079 77.2785 88.516C78.0107 88.3627 78.839 88.4508 79.4313 87.8344C79.6347 87.7855 79.8381 87.7366 80.0431 87.6877C80.253 87.9616 80.4808 87.7692 80.6988 87.7072C83.9955 86.7761 87.2872 85.832 90.5871 84.9123C92.4128 84.4036 92.748 84.6286 93.093 86.468Z" fill="#F85E60"/>
<path d="M80.0414 87.6878C79.838 87.7367 79.633 87.7856 79.4296 87.8345C78.9219 87.2671 79.2213 86.6425 79.3629 86.0702C79.7648 84.4412 80.1699 82.8138 80.4287 81.1538C80.7655 79.0014 80.5263 76.8197 80.7378 74.6607C80.7899 74.1242 80.8517 73.5845 80.9559 73.0562C81.0079 72.792 81.1641 72.523 81.5123 72.598C81.8524 72.6713 81.8898 72.942 81.8427 73.2372C81.5791 74.8759 81.5465 76.5278 81.5921 78.1812C81.6637 80.7576 81.0567 83.2296 80.4726 85.7065C80.3164 86.3653 80.1846 87.0274 80.0414 87.6878Z" fill="black"/>
<path d="M64.7769 104.734C64.4385 104.702 64.1065 104.641 63.8071 104.464C64.9754 101.261 66.1405 98.0569 67.3137 94.8543C67.5773 94.1336 68.0004 93.5009 68.4836 92.9106C68.8221 92.4981 69.2565 92.2307 69.7788 92.1247C70.0018 92.0807 70.2296 92.1067 70.324 92.3546C70.4265 92.6253 70.3321 92.8568 70.0571 92.9449C69.032 93.2726 68.5634 94.1499 68.2526 95.0239C67.1054 98.2656 65.9989 101.52 64.7769 104.734Z" fill="black"/>
<path d="M149.367 101.78C147.301 101.758 146.207 100.627 146.298 98.859C146.373 97.4225 147.989 96.1294 149.507 96.2778C149.805 96.3071 150.059 96.3625 150.05 96.7278C150.042 97.0963 149.78 97.1143 149.484 97.1453C148.163 97.2839 147.351 97.9263 147.253 98.8737C147.122 100.172 148.225 101.132 149.487 100.788C150.265 100.576 150.911 100.147 151.378 99.4673C151.565 99.1966 151.801 98.8917 152.167 99.177C152.488 99.4265 152.385 99.7755 152.184 100.051C151.424 101.083 150.423 101.708 149.367 101.78Z" fill="black"/>
<path d="M24.6542 73.5829C24.6753 73.9237 24.6477 74.1389 24.4036 74.2351C24.1107 74.3493 23.9333 74.1666 23.8194 73.94C22.8415 72.0093 21.3771 70.5173 19.6457 69.2617C19.387 69.0742 19.0421 68.8524 19.3431 68.4839C19.5725 68.2018 19.8752 68.3437 20.142 68.5214C21.9319 69.7101 23.3476 71.2527 24.454 73.0872C24.5631 73.2665 24.6151 73.4834 24.6542 73.5829Z" fill="black"/>
<path d="M18.0481 73.9888C18.1604 74.0475 18.3199 74.098 18.4419 74.1975C19.7436 75.2476 21.1739 76.1493 22.2283 77.4848C22.378 77.674 22.5424 77.868 22.6286 78.0882C22.7539 78.4094 22.9117 78.8171 22.4838 79.0095C22.077 79.1921 21.9664 78.8089 21.7955 78.5219C21.0275 77.2321 19.7583 76.4526 18.6583 75.5004C18.3719 75.2525 18.0693 75.0242 17.7813 74.7813C17.6218 74.6475 17.5665 74.4665 17.6332 74.2676C17.6918 74.0964 17.8382 74.0246 18.0481 73.9888Z" fill="black"/>
<path d="M82.7345 67.7485C82.5507 68.7823 82.3749 69.8178 82.1748 70.85C82.1227 71.1223 81.9747 71.3946 81.6346 71.331C81.3108 71.2707 81.2311 70.9967 81.2815 70.7016C81.4833 69.5324 81.8038 68.3812 81.7908 67.1794C81.7875 66.943 81.9275 66.7669 82.1878 66.7506C82.4807 66.7326 82.6418 66.9022 82.6792 67.1745C82.7053 67.3604 82.6841 67.5528 82.6841 67.742C82.702 67.7436 82.7183 67.7469 82.7345 67.7485Z" fill="black"/>
<path d="M35.1141 92.1427C35.1157 91.7252 35.0767 91.3306 35.5079 91.2833C35.9618 91.2328 35.9667 91.6144 35.996 91.9519C36.0481 92.5438 36.1278 93.1341 36.1929 93.7244C36.2271 94.0342 36.3833 94.4386 35.9098 94.5104C35.433 94.5837 35.363 94.1842 35.3175 93.8206C35.2459 93.2336 35.1743 92.6433 35.1141 92.1427Z" fill="black"/>
<path d="M151.655 98.4318C151.348 98.4416 150.453 97.3083 150.539 97.0767C150.58 96.9658 150.687 96.8354 150.793 96.7995C151.237 96.6528 151.499 96.9479 151.714 97.261C151.927 97.5724 152.111 97.9165 151.862 98.2981C151.811 98.3763 151.694 98.4089 151.655 98.4318Z" fill="black"/>
<path d="M102.018 86.9815C102.158 86.3146 102.072 85.7471 101.607 85.2938C101.379 85.0721 101.434 84.7948 101.436 84.5291C101.502 76.1085 101.572 67.688 101.638 59.2674C101.683 53.2928 101.721 47.3166 101.764 41.342C101.781 39.0884 101.839 36.8333 101.807 34.5814C101.795 33.8476 102.007 33.6927 102.713 33.6911C116.944 33.6748 131.176 33.6307 145.408 33.5932C162.134 33.5492 178.86 33.5052 195.584 33.4595C197.048 33.4563 197.052 33.4546 197.048 34.9271C197 51.9312 196.946 68.937 196.913 85.9412C196.912 86.551 196.762 86.6994 196.153 86.701C177.368 86.7337 158.582 86.7826 139.796 86.8413C127.625 86.8788 115.454 86.9342 103.283 86.9815C102.877 86.9815 102.474 86.9815 102.018 86.9815ZM160.652 62.3754C160.624 58.4423 159.48 55.9996 156.904 54.2744C155.93 53.6222 154.843 53.1884 153.769 52.7384C151.338 51.7209 148.842 51.2855 146.224 51.8888C140.328 53.2472 135.178 58.5907 135.769 65.9432C135.855 67.0194 135.972 68.1087 136.446 69.1099C136.575 69.3806 136.732 69.6985 137.105 69.5648C137.491 69.4246 137.408 69.0887 137.271 68.8115C136.898 68.0614 136.843 67.2444 136.739 66.4389C135.797 59.1875 141.412 53.3515 147.555 52.6797C150.837 52.321 153.676 53.5553 156.402 55.1322C157.952 56.029 158.85 57.4721 159.293 59.2071C159.672 60.6958 159.798 62.1976 159.623 63.7239C159.48 64.9762 159.075 66.0671 157.759 66.5302C156.406 67.0064 155.154 66.8775 154.047 65.8747C153.414 65.3024 152.895 64.6501 152.503 63.8968C152.077 63.0782 151.702 62.2319 151.237 61.4378C150.358 59.9392 148.941 59.3946 147.299 59.5022C145.784 59.6001 144.974 60.6958 144.442 61.971C143.802 63.5038 143.801 65.1067 144.278 66.6786C145.373 70.2986 147.491 73.1033 150.916 74.8268C151.245 74.9915 151.618 75.3225 151.902 74.8448C152.187 74.367 151.719 74.1958 151.416 73.9871C151.326 73.9251 151.232 73.8713 151.134 73.8224C148.097 72.2798 146.261 69.7295 145.26 66.5596C144.694 64.7675 144.707 62.9608 145.911 61.353C146.377 60.7301 146.982 60.3599 147.796 60.4398C149.07 60.5654 150.07 61.1084 150.638 62.3134C150.905 62.8776 151.187 63.4353 151.455 63.9979C152.013 65.1703 152.783 66.1698 153.827 66.9493C156.335 68.8196 159.895 67.4662 160.494 64.4153C160.634 63.6946 160.668 62.964 160.652 62.3754ZM140.454 65.2942C140.496 63.7973 140.629 62.726 141.031 61.7003C142.385 58.2466 145.166 56.6568 148.616 56.272C152.324 55.8594 154.275 57.5047 155.782 60.6649C156.04 61.2095 156.131 61.7998 156.127 62.4047C156.123 62.845 155.738 63.5576 156.455 63.5984C157.124 63.6375 157 62.8695 157.072 62.3819C157.08 62.3281 157.074 62.2727 157.074 62.2188C157.083 59.1712 153.933 55.7159 150.837 55.3392C149.886 55.2235 148.944 55.1957 148.004 55.3507C144.396 55.9426 140.896 58.2173 139.774 62.3591C138.561 66.8319 141.775 72.1396 144.265 74.1778C144.52 74.3882 144.847 74.623 145.107 74.261C145.361 73.9088 145.021 73.6919 144.782 73.4636C142.327 71.1221 140.804 68.306 140.454 65.2942ZM161.763 54.0233C161.724 53.9516 161.685 53.8195 161.6 53.7249C159.246 51.0898 156.402 49.1983 152.955 48.396C148.362 47.328 143.972 48.1645 139.814 50.2598C137.958 51.1942 136.42 52.5819 135.078 54.1717C134.851 54.4408 134.614 54.7816 135.001 55.0898C135.274 55.3066 135.491 55.1012 135.68 54.8729C138.124 51.9068 141.264 50.1653 145.015 49.3956C148.964 48.5852 152.76 48.7352 156.359 50.7556C157.957 51.6524 159.412 52.7139 160.553 54.1668C160.771 54.444 160.985 54.6544 161.364 54.5484C161.6 54.4832 161.726 54.3234 161.763 54.0233ZM148.463 43.7993C148.002 43.8238 147.543 43.8466 147.083 43.8711C144.593 44.0015 142.218 44.6032 139.951 45.637C139.474 45.8539 139.066 46.1637 138.757 46.5926C138.618 46.7834 138.571 46.997 138.744 47.1878C138.926 47.3883 139.16 47.3508 139.328 47.1943C140.555 46.0447 142.135 45.6811 143.68 45.3256C147.957 44.3407 152.125 44.4907 156.029 46.7882C156.262 46.9252 156.493 47.0671 156.777 47.0785C157.048 47.0883 157.267 47.0165 157.349 46.7361C157.43 46.4589 157.324 46.2632 157.056 46.1507C156.831 46.0561 156.603 45.9664 156.392 45.8506C153.925 44.4891 151.292 43.7618 148.463 43.7993ZM157.025 72.5798C157.173 72.5652 157.552 72.5521 157.925 72.4885C158.239 72.4347 158.512 72.2684 158.436 71.8901C158.369 71.5591 158.082 71.5199 157.793 71.5379C157.284 71.5688 156.792 71.6814 156.263 71.6047C152.257 71.0242 148.725 68.0972 148.372 63.675C148.347 63.3652 148.295 63.026 147.89 63.0602C147.444 63.0978 147.449 63.4728 147.477 63.8054C147.919 69.0349 152.417 72.4266 157.025 72.5798Z" fill="white"/>
<path d="M135.347 117.644C136.504 114.732 136.774 111.753 137.214 108.809C137.373 107.74 137.453 106.655 137.516 105.574C137.544 105.109 137.765 105.054 138.14 105.059C139.17 105.07 140.2 105.057 141.23 105.057C147.626 105.056 154.024 105.069 160.42 105.033C161.13 105.029 161.294 105.248 161.395 105.908C161.904 109.253 162.069 112.656 163.053 115.92C163.187 116.361 163.305 116.809 163.484 117.23C163.813 118.004 164.132 118.813 165.211 118.812C165.025 119.16 164.781 119.038 164.593 119.038C154.294 119.046 143.996 119.046 133.697 119.046C133.535 119.046 133.372 119.046 133.211 119.032C133.095 119.02 133.003 118.953 133.025 118.823C133.045 118.704 133.139 118.626 133.26 118.66C133.854 118.833 134.438 118.619 135.028 118.617C144.217 118.591 153.406 118.544 162.594 118.498C162.811 118.497 163.03 118.502 163.24 118.458C163.445 118.414 163.546 118.241 163.543 118.03C163.54 117.815 163.426 117.659 163.213 117.634C162.944 117.603 162.673 117.605 162.402 117.605C153.593 117.618 144.783 117.633 135.975 117.646C135.782 117.644 135.595 117.644 135.347 117.644Z" fill="white"/>
<path d="M95.8755 104.142C95.6591 103.957 95.8641 103.784 95.926 103.647C97.4148 100.335 98.4774 96.8584 99.8344 93.4961C99.8979 93.3379 99.8702 93.1063 100.173 92.9873C101.022 94.313 101.987 95.593 102.713 96.9954C104.517 100.477 106.802 103.635 109.007 106.856C110.297 108.742 111.308 110.787 111.887 113.013C112.375 114.887 112.372 116.763 111.822 118.637C111.724 118.971 111.628 119.133 111.246 119.143C105.152 119.286 99.0632 119.718 92.9629 119.345C92.8067 119.335 92.6521 119.315 92.3608 119.288C93.3371 118.213 94.1052 117.114 94.7316 115.92C95.8967 113.696 96.6191 111.368 96.3702 108.822C96.2726 107.824 95.9406 106.89 95.1254 106.264C94.5868 105.851 94.8667 105.69 95.2328 105.499C96.1326 105.033 97.0715 104.723 98.1064 104.739C98.972 104.752 99.8344 104.676 100.685 104.488C101.045 104.408 101.338 104.279 101.239 103.857C101.144 103.456 100.816 103.539 100.511 103.588C99.8214 103.696 99.1331 103.842 98.4123 103.751C98.4399 103.381 98.7898 103.306 98.9672 103.089C99.1185 102.903 99.2112 102.712 99.068 102.502C98.8972 102.251 98.6401 102.253 98.4286 102.42C97.9843 102.774 97.5499 103.143 97.1415 103.537C96.777 103.89 96.3832 104.138 95.8609 104.124L95.8755 104.142Z" fill="white"/>
<path d="M92.2584 115.408C92.2324 114.922 92.6685 114.691 92.8637 114.327C93.7343 112.7 94.1688 110.945 94.3754 109.135C94.5137 107.912 94.0467 107.226 92.9679 106.784C94.2648 106.445 94.9286 107.025 95.3647 108.617C95.6967 109.827 95.4217 111.04 95.1467 112.216C94.8766 113.365 94.4633 114.479 93.8889 115.529C93.6139 116.034 93.3877 116.183 92.9777 115.695C92.7954 115.477 92.5481 115.379 92.2584 115.408Z" fill="white"/>
<path d="M150.296 31.7589C149.793 31.7149 149.375 31.5665 149.383 31.0154C149.392 30.4952 149.732 30.1218 150.241 30.1136C150.871 30.1039 150.983 30.686 151.033 31.1442C151.087 31.6432 150.662 31.7263 150.296 31.7589Z" fill="white"/>
<path d="M95.8644 104.124C95.8335 104.155 95.8025 104.186 95.7732 104.217C95.7684 104.191 95.7521 104.16 95.7619 104.142C95.796 104.072 95.8383 104.074 95.8774 104.144C95.8758 104.142 95.8644 104.124 95.8644 104.124Z" fill="white"/>
<path d="M71.79 31.5535C71.4873 31.9025 71.3018 32.2971 71.1977 32.7553C70.7177 34.8702 69.4924 36.6655 68.6495 38.6255C68.1272 39.8404 67.5805 41.0438 67.0273 42.2945C66.5603 40.9851 66.2137 40.8269 64.785 41.1123C64.5182 41.1661 64.2171 41.0487 63.9324 41.0014C63.6444 40.9525 63.3645 40.9525 63.2913 41.3047C63.2311 41.5917 63.4279 41.8004 63.6769 41.8395C64.1211 41.9113 64.0983 42.1428 64.1065 42.5179C64.1244 43.3266 64.235 44.1371 64.3538 44.9393C64.4026 45.2671 64.3668 45.3584 64.0154 45.4742C61.5974 46.2748 59.1957 45.9226 56.82 45.3584C55.0594 44.941 53.3297 44.38 51.8539 43.2516C51.6228 43.0739 51.3543 42.9386 51.1509 43.2353C50.9475 43.5305 51.0907 43.8077 51.3543 44.0131C52.2835 44.7371 53.3493 45.1937 54.4427 45.603C56.3481 46.3156 58.2877 46.8553 60.4779 46.8145C60.102 47.4374 59.8205 47.9788 59.4707 48.4713C58.0973 50.4036 57.7638 52.6506 57.4692 54.9155C57.4383 55.1568 57.3879 55.3949 57.3472 55.6346C57.2951 55.9379 57.3765 56.1988 57.684 56.2885C58.055 56.3961 58.2584 56.1401 58.3138 55.8286C58.4456 55.0851 58.5334 54.3317 58.6441 53.5523C59.4723 54.3986 59.0346 56.0781 57.8158 56.7744C57.0153 57.231 56.1496 57.5506 55.2417 57.7283C51.0924 58.542 47.3857 57.606 44.4877 54.4981C42.7808 52.6685 42.5188 50.2894 43.1697 47.863C43.2348 47.6217 43.3356 47.4081 43.2201 47.1651C43.2673 47.1178 43.3129 47.0706 43.3601 47.0233C45.2817 47.8239 47.2197 48.5707 49.2781 48.9523C50.0282 49.0925 50.7848 49.1496 51.5398 49.0175C52.3274 48.8806 52.4315 48.6099 52.0085 47.9201C48.484 42.1575 47.5126 35.8731 48.2025 29.2478C48.2139 29.1402 48.222 29.0309 48.2448 28.925C48.5995 27.1883 48.5995 27.1802 46.8568 27.3547C44.8912 27.552 42.9793 27.265 41.095 26.7252C40.9649 26.6877 40.8347 26.6519 40.7094 26.5997C40.4474 26.4888 40.1887 26.3306 40.3058 26.0012C40.4181 25.6865 40.6882 25.6849 40.9844 25.7795C41.4465 25.9279 41.9119 26.0681 42.3837 26.1757C44.831 26.7334 47.2864 26.4692 49.7337 26.1822C50.64 26.0763 51.2746 25.3131 52.1191 25.0212C52.8741 25.0832 53.6275 25.1664 54.3841 25.2006C54.8983 25.2234 55.1294 25.424 55.0448 25.954C55.0155 26.1398 55.0334 26.3339 55.0415 26.523C55.1245 28.5173 56.0406 29.9099 57.5734 30.2751C59.2494 30.6746 60.9449 30.7301 62.6567 30.5001C63.9324 30.3273 64.7085 29.6066 65.0991 28.4195C65.2943 27.8259 65.4782 27.2275 65.7955 26.6861C65.9289 26.4578 66.0542 26.1774 66.3959 26.2295C66.6774 26.2736 66.7897 26.5165 66.858 26.7481C67.0468 27.3987 67.1948 28.0607 67.3869 28.7097C67.8311 30.2164 68.8725 31.6057 70.9829 31.4948C71.2498 31.4818 71.5199 31.5323 71.79 31.5535ZM66.6302 34.9338C67.7546 34.955 68.2362 34.4854 68.1614 33.5021C68.1158 32.9102 67.9889 32.3248 67.9027 31.7345C67.8587 31.4378 67.7481 31.1915 67.4031 31.2209C67.0191 31.2535 67.037 31.5715 67.0598 31.8389C67.107 32.4031 67.1835 32.9656 67.2404 33.5298C67.273 33.856 67.133 34.1152 66.7881 34.0109C65.6816 33.675 64.4596 34.1707 63.3987 33.5184C63.1725 33.3798 62.9186 33.3847 62.7462 33.6212C62.5721 33.8625 62.6729 34.0908 62.8584 34.2767C63.1741 34.593 63.5516 34.8034 64.0089 34.8001C64.9282 34.7985 65.8476 34.7952 66.6302 34.9338ZM64.0886 39.5534C64.7102 39.5534 65.3317 39.5534 65.9517 39.5534C66.2934 39.5534 66.6546 39.524 66.6514 39.0789C66.6481 38.6419 66.2869 38.6076 65.9468 38.5995C65.8118 38.5962 65.6767 38.5978 65.5416 38.5962C63.8673 38.5799 62.1946 38.5505 60.5544 38.1396C60.2224 38.0565 59.7912 37.9195 59.661 38.3858C59.5195 38.8946 60.0125 38.9191 60.3217 39.0087C61.5502 39.3707 62.8243 39.4066 64.0886 39.5534ZM57.5229 38.7381C57.5994 39.0136 57.6743 39.2957 58.0306 39.2696C58.343 39.2468 58.4195 39.0006 58.4049 38.743C58.3886 38.4804 58.2666 38.2636 57.9639 38.2636C57.658 38.2636 57.5604 38.4821 57.5229 38.7381Z" fill="white"/>
<path d="M43.2204 47.165C42.5305 46.8438 42.3255 47.3542 42.2035 47.8287C41.7771 49.5017 41.8943 51.1699 42.4573 52.7907C43.183 54.8746 44.3936 56.7172 45.422 58.6528C47.6382 62.8239 50.4288 66.6429 52.7378 70.7537C53.3317 71.8103 53.771 72.9387 54.1697 74.1013C52.4888 72.5278 50.5932 71.3113 48.5299 70.3444C47.5015 69.8633 46.4911 69.3415 45.4399 68.916C43.8795 68.2849 42.6184 67.2168 41.2955 66.2303C41.0644 66.0591 41.1035 65.9205 41.2304 65.6938C42.0733 64.1806 42.8885 62.6527 43.7298 61.1379C43.9071 60.8183 44.1382 60.4905 43.8616 60.1742C43.5622 59.8301 43.2953 60.166 43.0187 60.3209C42.703 60.4954 42.3353 60.4612 41.9838 60.4628C39.7953 60.4807 37.6978 59.941 35.5239 59.411C37.6555 56.4417 37.9972 52.7662 39.6065 49.611C39.9759 48.887 40.3306 48.1565 40.796 47.4863C41.6746 46.2225 42.0586 46.1524 43.3571 47.0199C43.3132 47.0705 43.266 47.1178 43.2204 47.165Z" fill="white"/>
<path d="M54.4492 23.0711C54.7372 22.3765 55.3458 21.9346 55.7916 21.3638C57.5555 19.1022 58.7368 16.5731 59.3161 13.7668C59.6253 12.2731 59.334 10.8055 58.893 9.16187C59.648 10.0506 60.2485 10.8072 60.9612 11.461C63.218 13.5319 65.9208 14.8201 68.7244 15.9371C70.031 16.4573 71.3165 17.0362 72.7598 17.0769C73.0641 17.0851 73.4058 17.1976 73.3651 17.584C73.3228 17.9787 72.9908 17.9689 72.6719 17.9281C72.3806 17.8906 72.0861 17.8873 71.7102 17.8645C72.2456 19.6207 72.4018 21.3541 72.2261 23.1151C71.86 23.076 71.4922 23.0352 71.1261 22.9961C69.6763 22.2313 68.1842 22.3178 66.6742 22.7727C65.3871 22.7173 64.1032 22.6308 62.8275 22.4319C61.2182 21.6313 59.5829 21.6769 57.9314 22.2819C56.711 22.2737 55.7477 23.4152 54.4492 23.0711Z" fill="white"/>
<path d="M67.1412 65.3597C65.8883 66.5566 64.6712 67.7909 63.376 68.9373C61.9164 70.2287 61.1923 71.8479 60.9027 73.7329C60.4877 76.4381 59.9882 79.1254 58.9663 81.6871C58.597 82.6133 58.5205 82.7568 58.1088 82.9101C57.938 77.9399 59.2983 73.2372 60.683 68.5541C61.9554 64.2508 62.4078 59.9003 61.8741 55.4471C61.7683 54.5584 61.63 53.6779 61.2769 52.8414C60.9433 52.0505 60.395 51.4504 59.596 51.1846C59.186 51.0477 59.2185 50.9156 59.3601 50.6335C60.1721 49.0143 59.8206 49.0632 61.4966 49.7122C62.2207 49.9927 62.8894 50.4346 63.5452 50.8618C64.7932 51.6722 65.5255 52.6962 65.6784 54.3269C66.0266 58.0186 66.6368 61.6842 67.1412 65.3597Z" fill="white"/>
<path d="M53.187 24.1276C53.3172 24.0395 53.4474 23.9498 53.5759 23.8618C54.2772 23.9107 54.9785 23.9678 55.6815 24.002C55.8637 24.0102 56.1029 24.0036 56.2266 23.8993C57.3444 22.9568 58.669 23.1622 59.9495 23.2275C61.4612 23.3057 62.9679 23.4949 64.4796 23.596C67.7193 23.8129 70.959 24.0118 74.2003 24.1977C74.6738 24.2254 74.817 24.4195 74.9098 24.8744C75.1066 25.8332 74.9927 26.7676 74.8235 27.7003C74.3484 30.3142 74.0018 30.5914 71.356 30.5783C71.3284 30.5783 71.3023 30.5783 71.2747 30.5783C69.5385 30.5636 68.6207 29.8429 68.2367 28.1438C68.1049 27.56 67.9243 26.9958 67.7437 26.4284C67.5257 25.7386 67.1237 25.2886 66.3801 25.2266C65.6739 25.1663 65.2883 25.6457 64.9759 26.1626C64.5951 26.7904 64.3722 27.4948 64.1525 28.1943C63.9215 28.9347 63.4236 29.4271 62.6685 29.5412C61.0235 29.7875 59.3817 29.7532 57.7594 29.3309C57.0743 29.1532 56.6301 28.721 56.3779 28.0704C56.0378 27.1931 55.8946 26.2914 56.0476 25.3554C56.1501 24.726 55.8686 24.4618 55.26 24.4064C54.5685 24.3428 53.8639 24.3379 53.187 24.1276ZM72.923 27.1687C73.3461 27.4638 73.8293 27.5356 74.132 27.0986C74.4965 26.5686 74.5078 25.8838 74.1873 25.3456C73.9188 24.8956 73.4095 24.9755 72.9816 25.2609C72.8921 24.9298 73.2142 24.3738 72.6626 24.3135C72.1322 24.2548 72.1306 24.7912 72.0508 25.1875C71.7498 26.6991 72.0248 28.2107 72.0573 29.7206C72.0622 29.9571 72.1582 30.1462 72.4348 30.156C72.687 30.1658 72.866 30.0337 72.9018 29.7973C72.9458 29.5054 72.91 29.2021 72.9458 28.9069C73.0125 28.3248 72.6089 27.7508 72.923 27.1687ZM60.8803 25.2429C60.8803 25.2511 60.8803 25.2609 60.8787 25.269C60.3384 25.269 59.7982 25.2527 59.2596 25.2755C59.009 25.2853 58.778 25.4011 58.7568 25.7044C58.7373 26.0012 58.9016 26.1626 59.1864 26.1773C59.3849 26.187 59.5037 26.2506 59.6501 26.4121C60.9421 27.834 62.4717 27.6579 63.3324 25.9963C63.5147 25.644 63.3487 25.4174 62.9631 25.3864C62.2699 25.331 61.5751 25.2902 60.8803 25.2429ZM69.6475 25.6114C69.6198 25.6114 69.5385 25.6082 69.4571 25.6114C67.9927 25.6718 67.9878 25.6799 68.6533 26.8882C68.6793 26.9355 68.6875 26.9909 68.7086 27.0415C68.9885 27.7068 69.5775 27.971 70.3228 27.7688C70.8174 27.6334 71.4667 26.5784 71.2747 26.0191C71.0599 25.3929 70.4269 25.6163 69.942 25.5821C69.8639 25.5756 69.7825 25.5968 69.6475 25.6114Z" fill="white"/>
<path d="M53.1871 24.1276C53.8623 24.3379 54.5685 24.3428 55.2617 24.4048C55.8703 24.4586 56.1518 24.7228 56.0492 25.3538C55.8963 26.2882 56.0395 27.1915 56.3796 28.0688C56.6318 28.7194 57.076 29.1515 57.761 29.3293C59.3833 29.7516 61.0251 29.7858 62.6702 29.5396C63.4252 29.4271 63.9215 28.9347 64.1542 28.1927C64.3739 27.4932 64.5968 26.7904 64.9775 26.161C65.29 25.6441 65.6756 25.1663 66.3818 25.225C67.1254 25.2869 67.5273 25.737 67.7454 26.4268C67.9243 26.9958 68.1066 27.5584 68.2384 28.1422C68.6208 29.8413 69.5385 30.562 71.2763 30.5767C71.304 30.5767 71.33 30.5767 71.3577 30.5767C74.0035 30.5914 74.35 30.3142 74.8252 27.6986C74.9944 26.7659 75.1083 25.8332 74.9114 24.8728C74.8187 24.4195 74.6755 24.2238 74.202 24.1961C70.9606 24.0102 67.721 23.8112 64.4813 23.5944C62.9696 23.4933 61.4645 23.3041 59.9512 23.2258C58.6706 23.159 57.3445 22.9535 56.2282 23.8977C56.1046 24.002 55.8654 24.0085 55.6831 24.0004C54.9802 23.9678 54.2789 23.9091 53.5776 23.8601C53.8688 23.596 54.1601 23.3318 54.4514 23.0693C55.7498 23.4134 56.7131 22.2719 57.9351 22.2801C59.5672 22.3306 61.1992 22.3795 62.8313 22.4301C64.1054 22.629 65.3908 22.7154 66.6763 22.7709C68.157 22.9079 69.6329 23.1459 71.1282 22.9943C71.4944 23.0334 71.8621 23.0742 72.2282 23.1133C72.8823 23.3465 73.569 23.2584 74.241 23.3057C75.1897 23.3726 75.6274 23.7754 75.6811 24.713C75.7494 25.9294 75.8357 27.1442 75.5721 28.359C75.1474 30.3174 74.2638 31.5078 72.0964 31.4605C71.9955 31.4589 71.8914 31.5208 71.7905 31.5534C71.522 31.5322 71.2519 31.4801 70.9834 31.4947C68.873 31.6056 67.8316 30.2163 67.3874 28.7096C67.1954 28.0606 67.0473 27.3986 66.8585 26.748C66.7918 26.5164 66.6796 26.2718 66.3964 26.2294C66.0547 26.1773 65.9294 26.4577 65.796 26.686C65.4787 27.2274 65.2948 27.8258 65.0996 28.4194C64.7091 29.6081 63.9329 30.3288 62.6572 30.5001C60.9454 30.7316 59.2499 30.6762 57.5739 30.275C56.0411 29.9098 55.125 28.5156 55.042 26.523C55.0339 26.3338 55.016 26.1381 55.0453 25.9539C55.1299 25.4239 54.8988 25.2234 54.3847 25.2005C53.628 25.1663 52.8746 25.0831 52.1196 25.0212C52.476 24.7244 52.8307 24.426 53.1871 24.1276Z" fill="#F85E60"/>
<path d="M69.198 64.1286C68.8157 64.2982 68.4333 64.4677 68.0509 64.6373C67.5546 61.0679 67.0583 57.4985 66.5653 53.929C66.3358 52.2658 66.1455 50.5977 65.8705 48.9426C65.7875 48.4403 66.0299 48.4958 66.3293 48.4403C66.6434 48.3816 66.85 48.2887 66.92 48.7779C67.5497 53.2295 68.212 57.6778 68.8693 62.1262C68.967 62.7947 69.0874 63.4617 69.198 64.1286Z" fill="white"/>
<path d="M65.1774 50.9336C63.7878 49.8133 62.4422 48.9866 60.9012 48.5284C60.7645 48.4876 60.6604 48.4566 60.6881 48.2626C60.745 47.8517 61.6237 46.9304 62.0565 46.8945C62.7839 46.8325 63.5112 46.7836 64.1897 46.4722C64.3736 46.3874 64.5672 46.3287 64.6063 46.6271C64.7918 48.0033 64.9724 49.3812 65.1774 50.9336Z" fill="white"/>
<path d="M57.9514 7.14614C57.8993 7.60598 57.6308 7.6761 57.3037 7.60435C56.9425 7.52445 56.7082 7.24561 56.4576 6.99776C55.4113 5.96394 54.6433 4.70184 53.6816 3.59954C53.4994 3.39082 53.4278 3.14296 53.6263 2.94566C53.8232 2.74998 54.0949 2.80053 54.2804 2.99947C54.5945 3.33537 54.8971 3.68433 55.1803 4.04633C55.945 5.02796 56.6382 6.07319 57.6715 6.8135C57.7935 6.89992 57.8732 7.04994 57.9514 7.14614Z" fill="white"/>
<path d="M44.2358 31.7084C44.2635 31.2322 44.2814 30.6941 44.3286 30.1577C44.3579 29.8185 44.4799 29.4663 44.8948 29.5331C45.2675 29.5935 45.2675 29.9343 45.204 30.249C45.012 31.2143 45.1015 32.1813 45.2056 33.1466C45.2431 33.4972 45.3163 33.9407 44.8379 33.9799C44.3823 34.0174 44.3351 33.5901 44.3156 33.2249C44.2912 32.7422 44.2651 32.2579 44.2358 31.7084Z" fill="white"/>
<path d="M66.2482 44.287C66.3491 44.7745 66.1912 44.9278 65.9081 44.9653C65.6136 45.0045 65.3484 44.9278 65.2898 44.5968C65.1726 43.9331 65.0522 43.2678 65.005 42.5977C64.979 42.2487 65.1141 41.8508 65.5615 41.8427C65.983 41.8345 66.0318 42.19 66.0627 42.5341C66.1196 43.1814 66.1977 43.8239 66.2482 44.287Z" fill="white"/>
<path d="M41.0643 30.9094C41.0643 30.5849 41.0415 30.2588 41.0724 29.9376C41.0952 29.7044 41.2579 29.5397 41.5101 29.5527C41.7656 29.5641 41.8876 29.7337 41.8974 29.9848C41.9218 30.6583 41.9478 31.3317 41.9641 32.0068C41.969 32.2351 41.9039 32.4536 41.6484 32.5107C41.3376 32.5808 41.1814 32.3492 41.1342 32.1144C41.0545 31.7215 41.0464 31.3138 41.0073 30.9127C41.0285 30.911 41.0464 30.911 41.0643 30.9094Z" fill="white"/>
<path d="M66.585 46.7264C66.6892 47.2205 66.5883 47.5711 66.1229 47.5352C65.3907 47.4798 65.6608 46.8129 65.5339 46.397C65.3386 45.7595 65.9228 45.885 66.1587 45.885C66.8324 45.8867 66.437 46.5047 66.585 46.7264Z" fill="white"/>
<path d="M55.0256 98.2706C56.2037 97.6738 57.3801 97.0737 58.5582 96.4801C58.6932 96.4116 58.8511 96.2991 58.9487 96.5388C58.8527 98.4907 58.9894 100.447 58.7909 102.401C58.5045 105.233 58.2881 108.074 58.0245 110.91C57.8796 112.455 57.9447 114.003 57.9252 115.55C57.9203 115.904 57.9317 116.256 57.9219 116.61C57.8536 118.986 57.6112 119.213 55.2827 119.266C50.7054 119.372 46.1266 119.462 41.551 119.622C37.872 119.751 34.1962 119.974 30.5171 120.149C30.2064 120.163 29.8842 120.233 29.4888 120.052C31.0281 118.865 32.7008 118.011 34.4858 117.559C36.938 116.94 39.2908 116.108 41.5884 115.069C44.0048 113.977 46.6391 113.468 49.0392 112.317C49.9163 111.896 50.8031 111.497 51.7338 111.203C52.6743 110.906 53.2422 110.168 53.7287 109.375C55.4128 106.636 55.7741 103.653 55.3168 100.524C55.2111 99.774 55.1232 99.0207 55.0256 98.2706Z" fill="white"/>
<path d="M51.8265 90.1353C51.0405 93.2709 51.2309 96.3512 52.3537 99.3792C50.8957 99.72 49.9975 100.943 48.686 101.765C48.5119 100.134 48.6063 98.5998 48.7332 97.0833C48.8845 95.2701 49.3857 93.5188 50.1456 91.8588C50.4938 91.0941 50.9266 90.3766 51.8265 90.1353Z" fill="white"/>
<path d="M60.3335 109.527C61.0316 108.876 61.715 108.819 62.387 108.92C63.9116 109.15 65.4282 109.439 66.9463 109.709C67.1042 109.737 67.2701 109.784 67.4068 109.868C69.5433 111.177 71.9759 111.689 74.3207 112.434C74.5517 112.508 74.7877 112.573 75.0269 112.615C75.2856 112.661 75.5378 112.604 75.6305 112.328C75.7379 112.002 75.541 111.81 75.253 111.717C74.4801 111.464 73.7154 111.175 72.9278 110.988C71.0403 110.536 69.2699 109.824 67.5972 108.834C65.5437 107.619 63.3779 106.632 60.9974 105.763C61.6011 105.336 62.1641 105.256 62.7401 105.341C64.0548 105.537 65.3582 105.806 66.5591 106.409C69.7206 107.997 73.1296 108.557 76.6003 108.863C76.8932 108.889 77.2089 108.899 77.4855 108.819C77.946 108.687 78.4472 108.557 78.5415 107.948C78.6245 107.41 78.2747 107.138 77.946 106.792C76.5125 105.289 74.7291 104.224 73.154 102.9C72.6121 102.445 72.0768 101.985 71.6619 101.408C71.5203 101.212 71.1656 101.018 71.408 100.739C71.5854 100.536 71.862 100.734 72.0833 100.829C73.5071 101.444 74.83 102.243 76.135 103.068C77.8354 104.142 79.5276 105.263 81.5795 105.502C83.7713 105.758 86.5033 104.984 87.2534 102.367C87.5968 101.168 88.0117 99.9942 88.2623 98.7663C88.4819 97.6933 88.8985 96.6856 89.6161 95.8393C89.8292 95.5882 90.0635 95.1251 90.4248 95.3126C90.6981 95.4545 90.5175 95.9127 90.4508 96.2241C90.3548 96.6742 90.2376 97.121 90.1172 97.5661C89.3997 100.191 89.6242 102.844 89.8813 105.499C89.9285 105.983 90.1742 106.358 90.5663 106.654C90.9829 106.967 91.4352 107.224 91.9267 107.373C93.3146 107.789 93.6563 108.175 93.3163 109.956C93.0706 111.237 92.7581 112.503 92.174 113.682C91.7086 114.619 91.0968 115.107 89.8976 115.1C86.7262 115.081 83.5793 115.495 80.4551 116.062C76.4246 116.793 72.4754 116.504 68.6272 115.068C66.5184 114.28 64.3705 113.618 62.2291 112.93C62.0209 112.863 61.6645 112.886 61.7166 112.548C61.7573 112.281 62.0664 112.212 62.3056 112.198C63.7603 112.105 65.1727 112.382 66.5281 112.857C68.3701 113.502 70.2104 114.146 72.1077 114.611C72.2916 114.657 72.4771 114.701 72.6642 114.727C73.001 114.774 73.3574 114.789 73.429 114.349C73.4941 113.947 73.1556 113.843 72.866 113.789C71.6358 113.559 70.4578 113.155 69.2683 112.782C68.1032 112.416 66.9512 112.023 65.8708 111.441C64.6195 110.766 63.2657 110.38 61.8988 110.029C61.4074 109.903 60.9339 109.721 60.3335 109.527Z" fill="white"/>
<path d="M74.2035 75.7533C73.4973 75.3309 72.9066 74.9461 72.2867 74.6167C71.4682 74.1813 70.6042 74.0264 69.7255 74.4455C69.4408 74.5808 69.0828 74.7635 69.2634 75.1728C69.4343 75.5592 69.7532 75.3929 70.0298 75.2641C70.6758 74.9608 71.2957 75.0423 71.888 75.4076C72.5568 75.8201 73.2256 76.2343 73.8862 76.6599C74.3825 76.9779 74.6331 77.4247 74.5712 78.0345C74.4801 78.9265 74.3727 79.8135 74.0929 80.6729C73.6942 81.9023 73.1361 82.3247 71.7074 82.3834C71.8457 81.4458 72.355 80.7528 73.0026 80.1331C73.2532 79.895 73.6454 79.6423 73.2907 79.2722C72.9473 78.9134 72.6056 79.1874 72.3062 79.458C71.5821 80.1119 71.1037 80.9174 70.7978 81.8371C70.3162 83.2786 69.776 84.7021 69.361 86.1615C68.6955 88.5047 67.3043 90.1843 65.2378 91.4741C61.8305 93.6037 58.3597 95.5996 54.7214 97.302C54.4773 97.4161 54.2397 97.5515 54.007 97.6901C53.0194 98.2787 53.0568 98.2689 52.7216 97.2058C52.0203 94.9767 52.2513 92.746 52.663 90.5169C52.7867 89.8484 53.1446 89.2923 53.6995 88.8227C55.0647 87.6666 56.3746 86.4453 57.7072 85.2484C59.2677 83.846 59.9918 81.9757 60.5645 80.0353C61.0787 78.2905 61.492 76.5164 61.7052 74.708C61.9558 72.5833 62.6945 70.744 64.3575 69.2992C65.6674 68.1627 66.8731 66.9087 68.2041 65.7901C68.785 65.301 69.3871 65.0645 70.147 65.2781C70.9801 65.5113 71.836 65.6678 72.6626 65.9222C73.6063 66.2108 74.6445 67.8235 74.5843 68.7872C74.5599 69.1655 74.376 69.2291 74.0408 69.1558C73.4599 69.0286 73.0205 68.7041 72.5959 68.3013C71.5154 67.2773 70.9101 67.2169 70.0493 68.3959C69.1202 69.6661 68.0935 70.1977 66.533 69.8781C65.8382 69.7363 65.0572 69.8145 64.5056 70.4488C64.3314 70.6494 64.2208 70.8663 64.3933 71.1076C64.5169 71.2821 64.7431 71.3343 64.901 71.2038C65.7926 70.4651 66.795 70.7538 67.7811 70.8598C69.4489 71.0391 71.1347 71.1125 72.7618 71.5609C73.6844 71.8153 73.935 72.3126 73.7446 73.2144C73.6551 73.64 73.5054 73.7606 73.0856 73.534C72.2769 73.0953 71.4422 72.7024 70.6221 72.2849C69.7093 71.8202 68.7525 71.5789 67.7208 71.6685C67.3352 71.7028 66.974 71.7941 66.642 71.9914C66.4012 72.1349 66.2938 72.3404 66.4159 72.6078C66.5298 72.8605 66.7657 72.8736 66.9724 72.7806C68.1976 72.2262 69.3041 72.6355 70.3894 73.1883C71.4031 73.7052 72.4169 74.2237 73.4143 74.7716C73.743 74.9526 74.171 75.0945 74.2035 75.7533Z" fill="white"/>
<path d="M160.652 62.3755C160.669 62.9625 160.634 63.693 160.493 64.417C159.894 67.4679 156.334 68.8214 153.826 66.951C152.78 66.1716 152.012 65.172 151.454 63.9996C151.185 63.4354 150.902 62.8793 150.637 62.3152C150.069 61.1101 149.068 60.5671 147.794 60.4416C146.982 60.3617 146.377 60.7318 145.91 61.3547C144.706 62.9625 144.693 64.7692 145.259 66.5613C146.262 69.7312 148.095 72.2799 151.133 73.8241C151.229 73.873 151.325 73.9268 151.415 73.9888C151.717 74.1975 152.186 74.3687 151.901 74.8465C151.618 75.3243 151.244 74.9933 150.915 74.8286C147.49 73.105 145.372 70.3003 144.276 66.6803C143.801 65.1084 143.803 63.5055 144.441 61.9727C144.973 60.6959 145.783 59.6018 147.298 59.504C148.94 59.398 150.359 59.941 151.236 61.4395C151.701 62.2336 152.075 63.0799 152.502 63.8985C152.894 64.6518 153.413 65.3041 154.046 65.8764C155.152 66.8776 156.405 67.0081 157.758 66.532C159.072 66.0689 159.479 64.978 159.622 63.7256C159.796 62.1994 159.673 60.6976 159.292 59.2088C158.849 57.4738 157.951 56.0291 156.4 55.1339C153.675 53.5571 150.836 52.3227 147.554 52.6814C141.411 53.3549 135.794 59.1892 136.738 66.4406C136.842 67.2462 136.899 68.0631 137.27 68.8132C137.408 69.0904 137.491 69.4263 137.104 69.5665C136.733 69.7019 136.573 69.3839 136.445 69.1116C135.971 68.1104 135.854 67.0211 135.768 65.9449C135.177 58.5924 140.327 53.2472 146.223 51.8906C148.841 51.2872 151.337 51.721 153.768 52.7401C154.842 53.1902 155.93 53.6223 156.903 54.2762C159.481 55.9997 160.625 58.4441 160.652 62.3755Z" fill="#F85E60"/>
<path d="M140.454 65.2944C140.804 68.3062 142.327 71.1223 144.781 73.4671C145.02 73.6954 145.362 73.9123 145.106 74.2645C144.846 74.6249 144.519 74.3901 144.263 74.1813C141.775 72.1431 138.562 66.8337 139.772 62.3626C140.895 58.2208 144.393 55.9444 148.003 55.3541C148.941 55.2008 149.885 55.2286 150.835 55.3427C153.934 55.7178 157.082 59.1747 157.072 62.2223C157.072 62.2761 157.079 62.3316 157.071 62.3854C156.999 62.8729 157.123 63.641 156.454 63.6018C155.736 63.5611 156.122 62.8485 156.125 62.4082C156.13 61.8016 156.039 61.2113 155.78 60.6683C154.274 57.5082 152.323 55.8613 148.614 56.2754C145.165 56.6603 142.386 58.2501 141.03 61.7038C140.63 62.7246 140.496 63.7959 140.454 65.2944Z" fill="#F85E60"/>
<path d="M161.763 54.0235C161.726 54.3219 161.601 54.4833 161.366 54.5485C160.987 54.6545 160.771 54.4442 160.554 54.167C159.414 52.7157 157.959 51.6526 156.361 50.7557C152.762 48.7354 148.966 48.5854 145.016 49.3958C141.267 50.1654 138.127 51.9086 135.681 54.873C135.493 55.1013 135.276 55.3084 135.003 55.0899C134.614 54.7817 134.851 54.4393 135.079 54.1719C136.422 52.582 137.959 51.1944 139.816 50.26C143.975 48.1647 148.363 47.3282 152.957 48.3962C156.403 49.1985 159.249 51.0884 161.602 53.7251C161.685 53.8197 161.726 53.9517 161.763 54.0235Z" fill="#F85E60"/>
<path d="M148.463 43.8011C151.292 43.7619 153.925 44.4892 156.395 45.8491C156.607 45.9665 156.834 46.0546 157.059 46.1492C157.326 46.2617 157.433 46.4574 157.352 46.7346C157.269 47.015 157.051 47.0884 156.781 47.077C156.496 47.0656 156.265 46.9237 156.032 46.7867C152.13 44.4908 147.96 44.3392 143.684 45.3241C142.138 45.6795 140.558 46.0432 139.331 47.1928C139.163 47.3493 138.929 47.3884 138.747 47.1862C138.574 46.9955 138.622 46.7819 138.76 46.5911C139.069 46.1638 139.477 45.854 139.954 45.6355C142.221 44.6001 144.595 44 147.086 43.8695C147.543 43.8483 148.004 43.8239 148.463 43.8011Z" fill="#F85E60"/>
<path d="M157.025 72.5801C152.419 72.4268 147.92 69.0351 147.479 63.8057C147.451 63.473 147.446 63.098 147.892 63.0605C148.296 63.0263 148.348 63.3654 148.374 63.6752C148.727 68.0959 152.259 71.0245 156.265 71.605C156.794 71.6816 157.286 71.5691 157.795 71.5381C158.085 71.5202 158.371 71.5593 158.438 71.8903C158.514 72.2686 158.241 72.435 157.927 72.4888C157.553 72.5524 157.173 72.567 157.025 72.5801Z" fill="#F85E60"/>
<path d="M66.6303 34.9337C65.8476 34.7951 64.9283 34.7984 64.0089 34.8033C63.5533 34.8049 63.1758 34.5962 62.8585 34.2799C62.673 34.094 62.5721 33.8657 62.7463 33.6243C62.9187 33.3863 63.1726 33.3814 63.3988 33.5216C64.458 34.1722 65.68 33.6765 66.7881 34.0141C67.1331 34.1184 67.273 33.8592 67.2405 33.533C67.1852 32.9688 67.1071 32.4063 67.0599 31.8421C67.0371 31.573 67.0192 31.2567 67.4032 31.2241C67.7466 31.1947 67.8588 31.4409 67.9028 31.7377C67.989 32.3264 68.1175 32.9134 68.1615 33.5053C68.2363 34.4837 67.7547 34.9549 66.6303 34.9337Z" fill="black"/>
<path d="M64.0887 39.5533C62.8244 39.4065 61.5503 39.369 60.3218 39.0103C60.0127 38.919 59.5196 38.8962 59.6612 38.3874C59.7914 37.921 60.2226 38.0564 60.5545 38.1412C62.1947 38.5521 63.8674 38.5814 65.5418 38.5978C65.6768 38.5994 65.8119 38.5977 65.947 38.601C66.2854 38.6092 66.6483 38.6434 66.6515 39.0804C66.6548 39.5256 66.2935 39.5549 65.9518 39.5549C65.3303 39.5549 64.7087 39.5533 64.0887 39.5533Z" fill="black"/>
<path d="M57.5234 38.7379C57.5625 38.4836 57.6585 38.2634 57.9628 38.2634C58.2654 38.2634 58.3891 38.4803 58.4037 38.7428C58.42 39.0021 58.3419 39.2467 58.0295 39.2695C57.6731 39.294 57.5999 39.0119 57.5234 38.7379Z" fill="black"/>
<path d="M62.8298 22.4301C61.1977 22.3795 59.5656 22.3306 57.9336 22.2801C59.5868 21.6767 61.2205 21.6294 62.8298 22.4301Z" fill="black"/>
<path d="M71.1282 22.9944C69.6328 23.146 68.157 22.9079 66.6763 22.771C68.1863 22.316 69.6784 22.2296 71.1282 22.9944Z" fill="black"/>
<path d="M60.88 25.2429C61.5748 25.2902 62.2696 25.331 62.9644 25.388C63.3501 25.419 63.5177 25.6457 63.3338 25.9979C62.473 27.6595 60.9418 27.8356 59.6515 26.4137C59.505 26.2523 59.3863 26.1887 59.1877 26.1789C58.9014 26.1642 58.737 26.0028 58.7582 25.706C58.7793 25.4027 59.0104 25.2869 59.261 25.2772C59.7996 25.2543 60.3398 25.2706 60.88 25.2706C60.88 25.2609 60.88 25.2511 60.88 25.2429Z" fill="black"/>
<path d="M69.6476 25.6114C69.781 25.5967 69.8624 25.5755 69.9421 25.5804C70.427 25.6147 71.06 25.3913 71.2748 26.0174C71.4668 26.5767 70.8175 27.6334 70.3229 27.7671C69.5776 27.9693 68.9886 27.7051 68.7087 27.0398C68.6876 26.9893 68.6794 26.9339 68.6534 26.8866C67.9879 25.6783 67.9927 25.6701 69.4572 25.6098C69.5386 25.6098 69.6199 25.6114 69.6476 25.6114Z" fill="black"/>
<path d="M72.9227 27.1686C72.6087 27.7508 73.0122 28.3248 72.9423 28.9053C72.9065 29.1988 72.9423 29.5021 72.8983 29.7956C72.8625 30.0337 72.6835 30.1641 72.4313 30.1543C72.1547 30.1429 72.0587 29.9538 72.0538 29.7189C72.0229 28.209 71.7463 26.6974 72.0473 25.1858C72.1254 24.7912 72.127 24.2531 72.6591 24.3118C73.2108 24.3721 72.8902 24.9298 72.9781 25.2592C72.9602 25.8951 72.9423 26.5311 72.9227 27.1686Z" fill="black"/>
<path d="M72.9229 27.1687C72.9424 26.5327 72.9603 25.8951 72.9798 25.2592C73.4078 24.9738 73.9187 24.8956 74.1855 25.3456C74.5061 25.8837 74.4963 26.5686 74.1302 27.0985C73.8308 27.5339 73.3475 27.4638 72.9229 27.1687Z" fill="#F85E60"/>
</g>
<defs>
<clipPath id="clip0">
<rect width="208.363" height="120.27" fill="white" transform="translate(0.0551758 0.837402)"/>
</clipPath>
</defs>
</svg>
