<svg width="82" height="82" viewBox="0 0 82 82" fill="none" xmlns="http://www.w3.org/2000/svg">
<path d="M81.6486 45.521C81.8218 50.5196 80.2475 56.4456 77.1593 61.9948C76.7783 62.6791 76.3938 63.3842 75.8171 63.9C74.4678 65.1037 73.6711 66.7484 72.438 68.0337C71.7677 68.7301 71.0888 69.4179 70.2972 69.9911C66.5666 72.6918 62.5657 74.9636 58.6826 77.4247C57.3455 78.2722 55.8023 78.7481 54.3492 79.3838C51.4481 80.6552 48.3357 80.4815 45.3152 80.933C43.578 81.1936 41.8356 81.4246 40.088 81.5878C37.542 81.824 35.0185 81.5062 32.5297 81.0147C31.2099 80.7542 29.833 80.9122 28.5548 80.379C27.6039 79.983 26.7414 79.4151 25.768 79.0555C22.5604 77.8745 19.455 76.4573 16.7773 74.2984C15.6862 73.4196 14.3577 72.9437 13.3203 72.0926C11.8031 70.8473 10.1127 69.7132 9.13236 67.9052C7.54934 64.9856 5.62337 62.264 4.15638 59.2766C0.474195 51.7822 -0.450681 43.9561 0.978203 35.7305C1.71256 31.5031 2.58894 27.3261 4.12001 23.3401C5.84333 18.8591 8.12089 14.6803 12.0958 11.6964C14.9847 9.52887 17.9499 7.49331 21.0882 5.6957C23.9495 4.05788 26.8315 2.48953 29.975 1.46307C31.3554 1.0115 32.7929 0.841292 34.2305 0.752714C36.4422 0.617242 38.6366 0.403612 40.8363 0.104878C43.2558 -0.225118 45.6477 0.276824 48.0101 0.870817C52.3834 1.97022 56.483 3.74699 60.302 6.09691C65.0528 9.01998 69.2632 12.6708 72.7099 17.0458C76.2882 21.5876 79.423 26.4438 80.3912 32.3576C81.0303 36.2655 81.6036 40.1751 81.6486 45.521ZM24.334 47.4558C24.3391 49.8179 24.4673 51.7406 25.2432 53.559C25.4095 53.9481 25.6503 54.3423 26.1473 54.094C26.5959 53.8682 26.4037 53.467 26.2703 53.1057C25.4147 50.7714 25.3108 48.3485 25.6399 45.9292C26.2149 41.6948 28.2707 38.3097 31.6187 35.6385C34.7726 33.1218 38.3162 31.9373 42.3032 32.2552C45.2822 32.4931 47.9876 33.688 50.5683 35.1418C52.6726 36.328 54.1032 38.0596 54.7025 40.4512C55.3 42.8307 55.5616 45.2205 55.0039 47.6382C54.8064 48.4927 54.4306 49.276 53.665 49.8005C51.9989 50.9416 49.5654 50.7558 48.043 49.4271C46.7648 48.3121 45.9577 46.8948 45.3048 45.3699C44.8908 44.4042 44.3643 43.5132 43.6854 42.7178C41.7646 40.4686 38.1067 40.5659 36.3677 42.9262C34.7432 45.1337 34.6392 47.6521 35.3199 50.1357C36.6033 54.8234 39.2931 58.5037 43.6802 60.7842C44.1669 61.0378 44.7938 61.7394 45.232 60.9613C45.6616 60.1954 44.7765 59.9627 44.2812 59.7074C40.1694 57.5867 37.7274 54.1304 36.5115 49.7745C35.9036 47.593 36.0456 45.4116 37.4849 43.4907C37.9958 42.8098 38.6488 42.2923 39.5061 42.3114C41.103 42.3478 42.5371 42.8098 43.358 44.3504C43.9019 45.3699 44.3643 46.4346 44.9411 47.435C46.3873 49.9499 48.1643 51.9247 51.4516 51.7388C54.0824 51.5895 56.0223 49.8909 56.379 47.2787C56.6129 45.5714 56.6077 43.8728 56.3565 42.1811C55.901 39.1017 54.7198 36.427 52.0474 34.5825C50.7969 33.7193 49.4148 33.1496 48.0499 32.5383C45.0138 31.1766 41.8581 30.5583 38.5275 31.1332C31.0835 32.4202 24.1278 39.3675 24.334 47.4558ZM43.1121 36.8091C46.6419 36.5052 49.775 40.4356 50.6202 43.8207C50.7726 44.4285 50.7034 45.0173 50.5821 45.62C50.5111 45.9726 50.6029 46.3564 51.0151 46.4572C51.4446 46.5614 51.6473 46.2522 51.7304 45.884C51.8066 45.5488 51.8915 45.2032 51.8898 44.8628C51.8811 41.6253 50.1491 39.232 47.7815 37.3909C44.9982 35.2269 41.7386 35.2599 38.4496 36.1335C31.8629 37.8842 28.1426 43.7564 29.5108 50.4327C30.1499 53.5521 31.8559 56.1816 33.8096 58.6392C34.3084 59.2662 34.8921 59.8446 35.5849 60.2788C35.9036 60.4802 36.2604 60.5428 36.5028 60.1798C36.7315 59.8376 36.489 59.584 36.2396 59.3669C35.9348 59.1029 35.6091 58.8598 35.3199 58.5802C33.5152 56.8399 32.3738 54.6532 31.4126 52.3936C29.6702 48.2982 30.124 44.3348 32.9436 40.9219C35.2177 38.1708 38.4028 36.9706 43.1121 36.8091ZM57.9448 34.0302C57.9344 33.9729 57.9309 33.9156 57.9136 33.86C57.8045 33.5213 57.4338 33.4779 57.226 33.2295C54.2989 29.7211 50.4453 27.7638 46.1205 26.6053C43.533 25.9123 40.9263 26.0773 38.3197 26.4542C34.8124 26.9631 31.4212 27.8263 28.4301 29.8514C26.608 31.0846 24.8968 32.4514 23.5095 34.1796C23.2203 34.5408 22.8843 34.9959 23.3969 35.3867C23.8854 35.7618 24.0967 35.2182 24.3374 34.9351C26.0019 32.9742 27.9884 31.4215 30.2262 30.1727C33.1584 28.5349 36.3695 27.9583 39.6516 27.5519C44.3383 26.97 48.5505 28.1771 52.47 30.6833C54.0409 31.6872 55.4178 32.8995 56.5609 34.3741C56.8294 34.7215 57.1532 34.8135 57.5516 34.6468C57.8201 34.5321 57.9448 34.3185 57.9448 34.0302ZM51.526 25.0213C51.9209 25.0491 52.2223 24.9032 52.2968 24.4951C52.3626 24.1286 52.1825 23.8941 51.8032 23.8125C51.6386 23.776 51.4775 23.6961 51.3269 23.6162C47.6239 21.6171 43.746 20.5577 39.4697 20.8529C36.4682 21.0614 33.6087 21.704 30.8098 22.7235C29.8642 23.0691 28.9376 23.4964 28.2811 24.3266C28.0698 24.5958 27.907 24.8633 28.2257 25.1585C28.5288 25.4381 28.8423 25.3322 29.0675 25.0821C29.4693 24.6392 29.9698 24.37 30.4946 24.1286C32.5522 23.1785 34.7137 22.5637 36.9532 22.2841C39.0142 22.027 41.1047 21.8742 43.1675 22.1312C45.8486 22.4647 48.3842 23.3314 50.7207 24.7313C50.9683 24.8789 51.2212 25.03 51.526 25.0213ZM51.6126 58.0226C52.0733 57.9949 52.5375 57.9966 52.9913 57.9323C53.3862 57.8768 53.7447 57.6787 53.691 57.2081C53.6373 56.7287 53.2476 56.6506 52.8423 56.6818C52.3262 56.72 51.8014 56.859 51.2974 56.8051C45.9802 56.2494 41.1827 52.5013 40.6198 46.5249C40.5834 46.1428 40.5782 45.6982 40.0551 45.7225C39.5182 45.7485 39.423 46.1932 39.4957 46.6187C39.8923 48.9703 40.4258 51.2595 42.0382 53.1526C44.5617 56.1191 47.707 57.7986 51.6126 58.0226Z" fill="#F85E60"/>
<path d="M24.3339 47.4558C24.1296 39.3674 31.0834 32.4202 38.5258 31.1349C41.8564 30.56 45.012 31.1783 48.0482 32.54C49.413 33.1514 50.7951 33.721 52.0456 34.5842C54.718 36.4287 55.8992 39.1034 56.3548 42.1828C56.6059 43.8728 56.6094 45.5714 56.3773 47.2804C56.0205 49.8926 54.0807 51.5912 51.4498 51.7405C48.1625 51.9264 46.3855 49.9516 44.9393 47.4367C44.3643 46.4363 43.9001 45.3716 43.3563 44.3521C42.5353 42.8116 41.1012 42.3496 39.5043 42.3131C38.6453 42.2922 37.994 42.8116 37.4831 43.4924C36.0421 45.4133 35.9001 47.5948 36.5097 49.7762C37.7256 54.1322 40.1677 57.5884 44.2794 59.7091C44.7747 59.9644 45.6598 60.1971 45.2303 60.9631C44.7938 61.7412 44.1651 61.0395 43.6784 60.7859C39.2896 58.5055 36.6015 54.8251 35.3181 50.1375C34.6375 47.6538 34.7414 45.1354 36.366 42.9279C38.1049 40.5658 41.7611 40.4703 43.6836 42.7195C44.3643 43.515 44.8908 44.4077 45.303 45.3716C45.956 46.8966 46.7631 48.3138 48.0413 49.4288C49.5637 50.7575 51.9971 50.9433 53.6633 49.8023C54.4271 49.2795 54.8046 48.4944 55.0021 47.6399C55.5615 45.2223 55.2982 42.8324 54.7007 40.4529C54.0997 38.0613 52.6708 36.3297 50.5665 35.1435C47.9858 33.688 45.2805 32.4948 42.3015 32.2569C38.3145 31.9373 34.7708 33.1218 31.6169 35.6402C28.269 38.3115 26.2149 41.6965 25.6381 45.9309C25.309 48.3503 25.4129 50.7731 26.2685 53.1074C26.4019 53.4687 26.5942 53.8699 26.1456 54.0957C25.6502 54.3458 25.4078 53.9498 25.2415 53.5607C24.4673 51.7405 24.3391 49.8162 24.3339 47.4558Z" fill="white"/>
<path d="M43.1121 36.809C38.4028 36.9705 35.2177 38.1707 32.9436 40.9218C30.124 44.3346 29.6702 48.2963 31.4125 52.3935C32.3738 54.6531 33.5134 56.8397 35.3199 58.58C35.6091 58.8597 35.9348 59.1028 36.2396 59.3668C36.489 59.5839 36.7332 59.8375 36.5028 60.1796C36.2604 60.5426 35.9036 60.4801 35.5849 60.2786C34.8938 59.8444 34.3084 59.2661 33.8096 58.6391C31.8577 56.1832 30.1499 53.5519 29.5108 50.4326C28.1426 43.758 31.8629 37.8858 38.4496 36.1334C41.7386 35.2597 44.9982 35.2267 47.7815 37.3908C50.1491 39.2319 51.8811 41.6252 51.8897 44.8626C51.8915 45.203 51.8066 45.5487 51.7304 45.8839C51.6455 46.2521 51.4429 46.5612 51.0151 46.457C50.6029 46.3563 50.5111 45.9725 50.5821 45.6199C50.7051 45.0172 50.7726 44.4284 50.6202 43.8205C49.775 40.4355 46.6401 36.505 43.1121 36.809Z" fill="white"/>
<path d="M57.9446 34.0304C57.9446 34.3187 57.8199 34.5341 57.5515 34.6452C57.1531 34.8119 56.831 34.7199 56.5608 34.3725C55.4177 32.898 54.0408 31.6857 52.4699 30.6818C48.5504 28.1773 44.3382 26.9702 39.6515 27.5503C36.3694 27.9585 33.1583 28.5333 30.226 30.1712C27.99 31.4199 26.0017 32.9744 24.3373 34.9335C24.0966 35.2166 23.8853 35.7603 23.3968 35.3851C22.8859 34.9926 23.2202 34.5393 23.5094 34.178C24.8967 32.4499 26.6079 31.083 28.43 29.8498C31.4211 27.8265 34.8123 26.9615 38.3196 26.4526C40.9262 26.0757 43.5328 25.9107 46.1204 26.6037C50.4452 27.7622 54.2988 29.7196 57.2259 33.228C57.432 33.4763 57.8043 33.5198 57.9135 33.8584C57.9308 33.914 57.9342 33.9731 57.9446 34.0304Z" fill="white"/>
<path d="M51.526 25.0214C51.2212 25.0301 50.9683 24.879 50.7224 24.7314C48.3859 23.3315 45.8521 22.4648 43.1692 22.1313C41.1064 21.8743 39.0159 22.0271 36.9549 22.2842C34.7154 22.5638 32.5539 23.1786 30.4963 24.1287C29.9715 24.3718 29.4693 24.6393 29.0692 25.0822C28.844 25.3323 28.5305 25.4383 28.2274 25.1586C27.9088 24.8634 28.0716 24.5959 28.2829 24.3267C28.9393 23.4948 29.8659 23.0675 30.8115 22.7236C33.6087 21.7041 36.4682 21.0615 39.4714 20.853C43.746 20.556 47.6256 21.6155 51.3286 23.6163C51.4793 23.698 51.6386 23.7779 51.8049 23.8126C52.1842 23.896 52.3643 24.1287 52.2985 24.4952C52.2223 24.9033 51.9209 25.0492 51.526 25.0214Z" fill="white"/>
<path d="M51.6126 58.0229C47.707 57.7989 44.56 56.1176 42.0365 53.1529C40.424 51.2598 39.8906 48.9706 39.494 46.619C39.4229 46.1935 39.5165 45.7488 40.0534 45.7228C40.5764 45.6967 40.5816 46.1414 40.618 46.5252C41.1809 52.5016 45.9785 56.2496 51.2957 56.8054C51.8014 56.8575 52.3245 56.7203 52.8406 56.6821C53.2459 56.6526 53.6356 56.729 53.6893 57.2084C53.743 57.679 53.3844 57.877 52.9895 57.9326C52.5375 57.9969 52.0733 57.9969 51.6126 58.0229Z" fill="white"/>
</svg>
