<svg width="17" height="17" viewBox="0 0 17 17" fill="none" xmlns="http://www.w3.org/2000/svg">
<path fill-rule="evenodd" clip-rule="evenodd" d="M8.31999 2.02441C4.63999 2.02441 1.65332 5.01108 1.65332 8.69108C1.65332 12.3711 4.63999 15.3577 8.31999 15.3577C12 15.3577 14.9867 12.3711 14.9867 8.69108C14.9867 5.01108 12 2.02441 8.31999 2.02441ZM7.65332 5.35775V6.69108H8.98665V5.35775H7.65332ZM8.98665 11.3577C8.98665 11.7244 8.68665 12.0244 8.31999 12.0244C7.95332 12.0244 7.65332 11.7244 7.65332 11.3577V8.69108C7.65332 8.32441 7.95332 8.02441 8.31999 8.02441C8.68665 8.02441 8.98665 8.32441 8.98665 8.69108V11.3577ZM2.98665 8.69108C2.98665 11.6311 5.37999 14.0244 8.31999 14.0244C11.26 14.0244 13.6533 11.6311 13.6533 8.69108C13.6533 5.75108 11.26 3.35775 8.31999 3.35775C5.37999 3.35775 2.98665 5.75108 2.98665 8.69108Z" fill="#53565A"/>
</svg>
