<svg width="254" height="270" viewBox="0 0 254 270" fill="none" xmlns="http://www.w3.org/2000/svg">
<path d="M60.369 66.509C60.5737 66.8866 60.7144 67.3218 60.9895 67.6418C63.6312 70.7074 66.9381 72.9601 70.245 75.2129C72.7908 76.9472 75.3557 78.6752 77.0187 81.2671C78.6818 80.0064 80.2553 78.6176 82.0079 77.536C83.7349 76.4672 85.6986 75.776 87.4768 74.7777C88.5897 74.1569 89.6068 73.3313 90.5598 72.4737C91.6088 71.5329 90.6494 70.4898 90.5278 69.4914C90.208 68.0322 89.8882 66.5666 89.562 65.1075C89.8306 65.1971 90.176 65.2163 90.3615 65.3955C92.3764 67.3666 95.0053 68.2754 97.4359 69.5234C102.15 71.9425 106.902 74.2849 111.572 76.7872C114.61 78.4192 116.459 81.2159 118.077 84.1599C120.776 89.0686 122.849 94.2205 124.153 99.6732C124.192 99.8204 124.281 99.9867 124.249 100.115C124.153 100.518 124.006 100.908 123.878 101.305C123.546 101.017 123.034 100.793 122.913 100.435C121.947 97.5804 121.173 94.6621 120.111 91.8461C118.71 88.1278 117.06 84.4735 114.527 81.3887C113.305 79.8976 111.713 78.5472 110.017 77.6256C104.6 74.6689 99.0542 71.9361 93.5597 69.1266C93.3934 69.0434 93.2079 68.9922 92.7921 68.845C93.0672 69.517 93.1695 70.093 93.4893 70.5026C96.3229 74.1185 97.3335 78.4128 98.1331 82.7903C98.3633 84.0639 98.6384 85.3374 98.8047 86.6238C98.8495 86.9566 98.5616 87.3278 98.4273 87.6862C98.1139 87.4878 97.7813 87.3214 97.4934 87.091C95.2803 85.2863 94.6215 82.5535 93.4318 80.1472C93.048 79.3664 92.7793 78.5216 92.4595 77.7024C92.0182 76.5696 91.1738 76.1856 89.9841 76.0448C87.5215 75.7505 85.6474 77.1328 83.7413 78.2016C81.8991 79.232 80.3065 80.7039 78.6306 82.0159C77.684 82.7583 77.3705 83.7567 77.4665 84.9599C77.7095 88.0766 77.9014 91.1997 78.0933 94.3229C78.1509 95.2764 78.2532 96.2428 78.1509 97.1772C78.0102 98.4572 78.5475 99.0652 79.6924 99.5516C82.2829 100.652 84.8159 101.907 87.368 103.097C85.8777 104.422 85.9672 105.337 87.7198 106.291C88.4042 106.662 89.1462 106.943 89.9841 107.327C89.6387 107.718 89.3573 108.012 89.1014 108.332C88.4106 109.19 87.6559 110.009 87.061 110.931C86.3574 112.019 86.6388 112.857 87.8797 113.228C88.6921 113.471 89.5876 113.426 90.483 113.516C91.3785 115.34 92.4467 115.692 94.3336 114.7C94.8006 114.457 95.2547 114.156 95.6705 113.823C96.3869 113.254 96.9945 112.524 97.7749 112.083C98.7727 111.513 99.8857 111.129 100.979 110.745C101.235 110.655 101.709 110.777 101.894 110.975C103.372 112.55 105.31 113.247 107.293 113.785C108.393 114.086 109.589 114.034 110.74 114.143C111.028 114.226 111.31 114.316 111.597 114.399C111.975 114.591 112.352 114.783 112.723 114.975C116.894 116.703 121.064 118.431 125.343 120.204C125.273 119.558 125.202 118.905 125.132 118.246C124.761 114.572 124.403 110.892 124.025 107.219C123.878 105.779 123.635 104.351 123.52 102.911C123.495 102.559 123.808 102.175 123.962 101.804C124.23 102.079 124.684 102.323 124.729 102.63C125.068 104.851 125.337 107.084 125.599 109.318C126.015 112.876 126.418 116.434 126.801 119.993C126.891 120.831 127.256 121.324 128.074 121.663C130.435 122.636 132.75 123.711 135.078 124.748C135.552 124.786 136.031 124.825 136.505 124.857C140.068 123.244 143.643 121.644 147.199 120.006C149.406 118.988 151.581 117.913 153.775 116.863C154.031 116.742 154.287 116.626 154.542 116.505C156.736 115.538 158.943 114.604 161.124 113.606C172.599 108.345 184.068 103.071 195.537 97.798C198.62 96.3772 201.696 94.9501 204.773 93.5165C205.912 92.9917 206.506 93.3565 206.532 94.6301C206.564 96.1532 206.583 97.6828 206.609 99.206C205.886 99.3916 205.144 99.7883 204.434 99.7243C201.108 99.4492 198.377 101.056 195.562 102.387C195.14 102.585 194.59 103.308 194.68 103.609C194.839 104.127 195.402 104.582 195.895 104.921C196.215 105.139 196.714 105.094 197.2 105.177C195.792 107.571 195.812 107.782 197.462 108.889C197.353 109.196 197.251 109.523 197.123 109.836C196.778 110.694 197.001 111.558 197.679 111.974C198.134 112.255 199.016 112.153 199.554 111.903C200.475 111.481 201.268 110.777 202.144 110.233C203.295 109.523 204.466 108.851 205.63 108.166C205.681 108.255 205.732 108.345 205.784 108.428C205.406 108.684 205.048 108.972 204.651 109.196C202.489 110.431 201.223 112.287 200.935 114.758C200.884 115.18 200.986 115.833 201.261 116.025C201.613 116.268 202.31 116.338 202.688 116.146C203.385 115.794 203.935 115.148 204.6 114.713C205.125 114.374 205.732 114.162 206.302 113.894C206.244 121.541 206.187 129.183 206.135 136.831C205.272 136.869 205.093 137.324 205.419 138.047C205.681 138.629 205.969 139.199 206.251 139.775C206.199 140.261 206.103 140.741 206.103 141.227C206.065 148.632 206.052 156.03 206.001 163.435C205.912 176.254 205.803 189.066 205.7 201.885C205.662 207.575 205.617 213.264 205.585 218.954C205.579 220.445 205.125 221.111 203.743 221.629C203.494 221.725 203.238 221.808 203.001 221.923C196.816 224.893 190.631 227.863 184.445 230.832C175.65 235.062 166.849 239.293 158.06 243.529C154.632 245.181 151.223 246.857 147.801 248.528C144.321 250.179 140.822 251.792 137.375 253.5C136.409 253.98 135.603 253.929 134.669 253.494C126.533 249.744 118.378 246.019 110.229 242.294C109.883 242.134 109.525 242.019 109.167 241.885C108.732 241.712 108.297 241.539 107.868 241.366C107.094 240.963 106.34 240.534 105.553 240.169C92.5555 234.205 79.5581 228.247 66.5479 222.314C65.4989 221.834 65.1151 221.226 65.1279 220.048C65.275 210.052 65.3518 200.049 65.4413 190.052C65.4477 189.406 65.3006 188.734 65.4286 188.113C65.5501 187.492 65.9211 186.916 66.1833 186.321C67.034 186.737 67.8911 187.14 68.7355 187.575C69.7333 188.094 70.4753 187.371 70.9998 186.839C71.294 186.545 71.1661 185.476 70.8527 184.996C70.2642 184.087 69.3623 183.377 68.6715 182.526C68.1342 181.867 67.7184 181.111 67.2515 180.401L67.2323 180.42C67.4754 180.663 67.7121 180.907 67.9551 181.143C70.6288 183.729 73.2129 186.43 76.5134 188.267C77.4217 188.772 78.33 188.887 79.1743 188.215C79.9611 187.588 79.8011 186.782 79.2702 185.892C79.5389 185.975 79.654 185.988 79.7308 186.039C80.5751 186.622 81.5921 186.814 82.155 185.95C82.5836 185.291 82.6859 184.215 82.5068 183.415C82.2829 182.404 81.7201 181.431 81.1444 180.542C79.5837 178.116 77.9398 175.748 76.3279 173.361C76.3855 173.304 76.4367 173.24 76.4942 173.182C77.0699 173.464 77.6968 173.675 78.2212 174.033C80.1977 175.39 82.0974 176.862 84.1315 178.123C84.7135 178.481 85.8201 178.564 86.3958 178.244C87.368 177.713 87.4448 176.657 86.7924 175.64C85.1037 172.996 83.204 170.545 80.5495 168.747C78.3748 167.275 76.2959 165.669 74.1468 164.165C71.601 162.379 69.1448 160.376 65.774 160.433C65.8955 145.695 66.0106 130.949 66.1449 116.21C66.2089 109.299 66.2985 102.387 66.3688 95.4748C66.388 93.9517 66.8421 93.6381 68.2685 94.2781C70.9486 95.4748 73.6159 96.7036 76.2896 97.9196C76.4239 97.9772 76.5646 98.0156 76.7949 98.0924C77.1403 92.7869 75.4516 87.6158 76.2512 82.3807C72.9443 78.0352 67.9295 75.712 63.7207 72.3137C63.1451 72.8129 62.5438 73.1969 62.1216 73.7153C60.0812 76.2368 57.2412 77.152 54.2286 77.6896C51.0688 78.2528 51.0815 78.2144 50.685 75.0465C50.4163 72.8897 50.1093 70.7394 49.7639 68.6018C49.668 68.0194 49.3737 67.469 49.1818 66.9506C39.8879 68.781 31.2465 72.2625 22.1893 75.4177C23.5197 76.288 24.5623 76.8768 25.5026 77.6C30.2423 81.2735 32.7368 86.2398 33.7538 92.0637C33.8498 92.6269 34.3039 93.1261 34.4191 93.6957C34.5022 94.0989 34.2975 94.5597 34.2208 94.9948C33.8114 94.8668 33.1718 94.8541 33.0311 94.5789C32.6857 93.9197 32.5194 93.1517 32.3594 92.4093C31.6558 89.0686 30.8371 85.7342 28.7071 82.9887C27.3383 81.2223 25.6881 79.6608 24.0378 78.1376C23.4301 77.5808 22.4387 77.4656 21.6967 77.024C21.217 76.7424 20.7693 76.2816 20.5262 75.7952C20.4367 75.6225 20.91 74.9825 21.249 74.8033C22.6946 74.0353 24.1465 73.2545 25.6689 72.6785C29.0589 71.3985 32.4618 70.1506 35.9094 69.0626C39.2483 68.013 42.6576 67.1618 46.0412 66.2594C47.5252 65.8627 48.862 65.4019 49.879 64.0515C51.024 62.5411 52.4184 61.2036 53.8 59.8916C54.849 58.8932 56.0451 58.0356 57.6634 58.4132C57.1261 60.7556 57.8361 62.8803 58.8851 64.9091C59.2369 65.5235 59.8701 65.9779 60.369 66.509ZM131.848 156.152C131.778 156.075 131.714 156.005 131.644 155.928C131.407 155.838 131.177 155.749 130.94 155.659C130.684 155.499 130.441 155.314 130.166 155.179C120.853 150.687 111.54 146.194 102.227 141.707C99.9368 140.607 97.6406 139.512 95.2291 138.36C95.1204 139.871 94.9541 141.227 94.9413 142.578C94.8709 149.227 94.8262 155.87 94.8006 162.52C94.7494 175.704 94.7302 188.881 94.6663 202.065C94.6599 202.807 94.9477 203.146 95.5681 203.434C100.231 205.629 104.875 207.85 109.531 210.058C111.885 211.178 114.245 212.285 116.503 213.348C116.068 210.218 115.717 207.121 115.199 204.049C114.335 198.884 114.597 193.694 114.604 188.503C114.604 188.209 114.943 187.915 115.122 187.62C115.346 187.915 115.755 188.196 115.768 188.503C115.838 190.065 115.755 191.639 115.819 193.201C115.934 195.94 116.004 198.692 116.318 201.418C116.727 204.97 117.373 208.496 117.898 212.042C117.987 212.65 117.962 213.271 118 214.096C123.22 216.548 128.663 219.12 134.138 221.642C134.547 221.827 135.193 221.757 135.628 221.571C137.669 220.714 139.677 219.779 141.692 218.871C152.694 213.93 163.689 208.977 174.697 204.055C175.535 203.684 175.855 203.236 175.855 202.276C175.881 194.865 175.964 187.46 176.053 180.049C176.117 174.206 176.22 168.363 176.29 162.513C176.341 158.354 176.373 154.194 176.412 150.027C176.456 147.973 176.501 145.919 176.527 143.864C176.527 143.679 176.354 143.487 176.264 143.301C176.264 141.72 176.264 140.14 176.264 138.45C172.714 140.095 169.139 141.752 165.557 143.41C164.86 143.736 164.169 144.056 163.472 144.383C163.146 144.491 162.813 144.575 162.506 144.715C153.871 148.626 145.223 152.517 136.62 156.491C135.277 157.112 134.125 157.47 132.852 156.491C132.571 156.274 132.155 156.242 131.797 156.126L131.848 156.152ZM52.3224 76.5568C56.6272 76.3904 59.9917 74.6497 62.4479 71.3473C61.0598 69.7026 59.4864 68.077 58.2071 66.253C56.915 64.4035 56.2754 62.2403 56.4289 59.802C56.0899 59.9556 55.8404 59.994 55.6997 60.1412C53.9663 61.8947 52.2329 63.6547 50.5507 65.4595C50.378 65.6451 50.4611 66.157 50.5379 66.4898C50.9088 68.1154 51.4014 69.7154 51.6956 71.3537C51.9898 73.0561 52.1178 74.7969 52.3224 76.5568ZM96.6491 83.9231C96.1246 79.4816 95.3123 75.1553 92.7218 71.7121C91.999 72.7425 91.2698 73.7857 90.7389 74.5409C91.5512 75.1233 92.4595 75.5905 93.1055 76.3008C93.6428 76.896 93.8923 77.76 94.2377 78.5216C95.0564 80.32 95.8496 82.1247 96.6491 83.9231Z" fill="#F85E60"/>
<path d="M147.795 248.54C151.217 246.876 154.626 245.193 158.054 243.542C166.849 239.305 175.644 235.075 184.439 230.844C190.624 227.868 196.81 224.905 202.995 221.936C203.232 221.821 203.487 221.737 203.737 221.641C205.119 221.123 205.573 220.457 205.579 218.966C205.617 213.277 205.656 207.587 205.694 201.898C206.73 201.815 207.511 202.435 207.831 203.229C209.174 206.589 209.583 210.122 209.775 213.744C210.018 218.499 210.658 223.235 211.189 227.971C211.291 228.88 211.668 229.75 210.421 230.492C211.022 230.652 211.361 230.825 211.7 230.825C217.361 230.928 223.041 231.113 228.51 229.2C228.51 228.886 228.529 228.694 228.51 228.508C227.781 221.91 227.02 215.318 226.329 208.72C225.804 203.715 225.241 198.711 224.947 193.693C224.608 187.863 224.576 182.02 224.352 176.183C224.308 175.018 224.218 173.751 223.719 172.74C221.794 168.804 219.715 164.939 217.649 161.073C213.862 153.969 210.05 146.885 206.251 139.794C205.976 139.218 205.681 138.648 205.419 138.066C205.093 137.342 205.272 136.888 206.136 136.85C207.204 138.866 208.246 140.901 209.34 142.904C212.187 148.126 215.09 153.323 217.911 158.558C220.118 162.654 222.178 166.827 224.416 170.903C225.197 172.33 226.335 173.559 227.244 174.916C227.519 175.326 227.858 176.138 227.691 176.318C227.103 176.938 226.629 176.337 226.214 175.882C226.118 175.78 226.003 175.69 225.779 175.498C225.721 175.767 225.651 175.927 225.657 176.081C225.856 182.263 225.951 188.445 226.31 194.621C226.572 199.069 227.167 203.504 227.659 207.939C228.44 215.03 229.258 222.115 230.039 229.206C230.135 230.083 230.25 230.972 228.779 230.569C228.35 230.454 227.749 230.953 227.148 231.203C227.435 232.534 226.674 233.404 225.676 234.012C224.589 234.678 224.327 235.657 224.186 236.777C223.956 238.595 223.668 240.399 223.45 242.217C223.143 244.707 222.152 246.863 220.674 248.892C219.945 249.897 219.517 251.19 219.197 252.418C218.474 255.183 217.815 257.973 217.304 260.783C216.881 263.081 215.487 264.354 213.389 264.828C211.739 265.199 210.018 265.321 208.317 265.385C204.927 265.519 201.53 265.519 198.14 265.615C196.727 265.653 195.326 265.839 193.912 265.884C192.115 265.941 190.324 265.858 188.68 264.949C188.494 264.847 188.2 264.783 188.028 264.86C186.851 265.385 185.955 264.649 185.034 264.181C184.759 264.041 184.516 263.471 184.548 263.125C184.964 258.53 183.953 253.91 184.9 249.302C185.315 247.279 185.13 245.123 185.162 243.023C185.22 239.599 185.252 236.176 185.239 232.758C185.239 232.496 184.842 232.233 184.631 231.971C184.426 232.208 184.171 232.425 184.03 232.694C183.934 232.88 184.004 233.142 184.004 233.372C183.979 237.488 184.1 241.603 183.416 245.705C182.814 249.34 182.501 253.026 182.002 256.681C181.759 258.447 181.388 260.194 181.049 261.941C180.921 262.613 181.004 263.484 179.891 263.445C179.751 263.439 179.508 263.708 179.463 263.887C179.181 265.071 178.279 265.449 177.243 265.519C173.022 265.82 168.8 266.14 164.572 266.325C160.952 266.485 157.325 266.428 153.698 266.549C152.656 266.581 151.62 266.888 150.583 267.068C150.174 267.138 149.758 267.266 149.349 267.266C147.551 267.26 146.47 265.993 146.707 264.252C146.899 262.825 147.129 261.397 147.212 259.957C147.468 256.162 147.615 252.348 147.795 248.54ZM217.924 241.334C217.93 241.308 217.937 241.276 217.943 241.251C218.628 241.193 219.325 241.199 219.977 241.033C220.246 240.969 220.419 240.54 220.636 240.271C220.355 240.073 220.086 239.721 219.792 239.702C217.406 239.535 215.007 239.51 212.628 239.279C211.509 239.171 210.389 238.793 209.353 238.351C208.918 238.166 208.464 237.5 208.419 237.014C208.093 233.251 207.888 229.475 207.6 225.712C207.556 225.11 208.003 224.029 206.974 224.067C205.937 224.105 206.327 225.2 206.359 225.84C206.532 229.462 206.839 233.072 206.942 236.694C206.993 238.403 207.709 239.407 209.251 239.939C209.756 240.111 210.261 240.31 210.786 240.387C213.165 240.726 215.545 241.027 217.924 241.334ZM220.259 248.111C219.6 247.759 219.254 247.478 218.871 247.42C218.685 247.394 218.436 247.785 218.218 247.983C218.544 248.233 218.832 248.572 219.203 248.706C219.376 248.77 219.689 248.444 220.259 248.111Z" fill="black"/>
<path d="M136.499 124.869C136.025 124.831 135.546 124.792 135.072 124.76C135.322 124.159 135.533 123.544 135.833 122.968C136.3 122.072 136.582 121.298 135.61 120.472C135.309 120.216 135.271 119.397 135.418 118.93C137.196 113.17 138.731 107.314 140.912 101.714C144.782 91.7945 149.995 82.7003 158.867 76.2557C159.992 75.4365 160.434 75.3405 161.457 75.7309C161.841 73.9773 163.255 73.6765 164.745 73.2925C170.726 71.7438 176.885 71.539 182.949 70.6046C186.205 70.1054 189.352 69.0302 192.096 67.0015C191.814 66.6815 191.539 66.4703 191.418 66.1887C191.328 65.9839 191.36 65.6127 191.494 65.4591C191.616 65.3183 192 65.2799 192.198 65.3631C199.176 68.2942 206.078 67.3535 212.967 65.0303C213.549 64.8319 214.374 64.1215 214.758 65.0431C215.186 66.0671 214.048 66.1567 213.459 66.3615C208.202 68.1854 202.842 69.1454 197.27 68.1854C196.791 68.1022 196.304 68.0446 195.742 67.9614C195.703 68.659 195.665 69.2606 195.646 69.8622C195.575 72.6141 194.705 75.1037 193.215 77.3884C192.588 78.3548 192.288 78.3612 191.571 77.4332C190.394 78.9948 190.759 81.4652 192.422 83.3787C192.87 83.8907 193.209 84.5051 193.669 84.9979C194.635 86.0283 194.315 87.0714 193.772 88.121C193.388 88.8634 192.966 89.5802 192.505 90.4058C194.111 91.2505 195.806 91.6409 197.488 91.3465C199.503 90.9946 201.466 90.3354 203.43 89.7274C203.756 89.625 204.127 89.1706 204.198 88.825C204.62 86.7322 205.624 85.0491 207.153 83.5323C208.688 82.0155 209.935 80.2044 211.361 78.566C211.649 78.2396 212.18 78.1308 212.602 77.926C212.532 78.3932 212.622 78.9756 212.372 79.3084C211.125 80.9916 209.794 82.6171 208.496 84.2619C208.464 84.3451 208.426 84.4283 208.394 84.5115C208.496 84.5051 208.605 84.4987 208.707 84.4859C211.841 84.2683 212.999 85.2475 214.048 89.049C215.98 87.5194 217.886 86.0219 219.76 84.4859C219.939 84.3387 219.984 83.9163 219.939 83.6411C219.702 82.1819 219.555 80.678 219.107 79.2764C218.525 77.4524 217.7 75.7053 216.76 73.9453C216.645 74.4829 216.606 75.0589 216.389 75.5581C216.223 75.9421 215.833 76.2365 215.545 76.5693C215.372 76.1725 215.007 75.7565 215.052 75.3917C215.442 72.0445 216.632 68.9662 218.353 66.0863C218.57 65.7279 218.794 65.3759 218.935 65.1455C218.679 64.5823 218.18 63.9999 218.314 63.6543C218.461 63.2575 219.139 62.9311 219.645 62.8287C221.519 62.4448 222.485 61.056 223.361 59.584C223.764 58.8992 224.071 58.1504 224.346 57.4017C224.468 57.0561 224.557 56.4609 224.378 56.2945C224.116 56.0513 223.508 55.9169 223.188 56.0513C222.088 56.5121 221.039 57.1073 219.99 57.6768C219.626 57.8752 219.319 58.1824 218.954 58.3808C217.879 58.9696 217.425 58.7072 217.361 57.4529C217.272 55.6225 218.135 54.1377 219.152 52.7362C219.638 52.0706 219.722 51.533 219.434 50.6882C218.992 49.4082 218.736 48.0131 218.717 46.6627C218.679 43.9939 218.96 41.3252 218.922 38.6564C218.884 35.8789 218.826 33.0822 218.436 30.343C217.777 25.7095 215.129 24.5895 210.952 25.1783C210.095 25.2999 209.276 25.9527 208.528 26.4839C205.957 28.3143 203.424 30.1958 201.095 31.8918C202.068 33.6518 203.001 35.2645 203.827 36.9349C203.986 37.2549 203.724 37.7925 203.654 38.2277C203.296 37.9141 202.822 37.6645 202.598 37.2677C201.888 36.0453 201.268 34.7717 200.571 33.4406C198.473 35.6869 196.592 37.6709 194.75 39.6868C193.983 40.5252 193.33 41.4724 192.556 42.3044C192.294 42.586 191.814 42.6628 191.437 42.8356C191.424 42.4004 191.226 41.8116 191.43 41.5556C192.78 39.8596 194.219 38.2341 195.626 36.5893C195.722 36.4741 195.838 36.3653 195.953 36.2693C197.616 34.9125 198.415 33.159 198.799 31.0342C199.125 29.2166 199.886 27.4631 200.564 25.7287C200.865 24.9671 201.326 24.1928 201.908 23.6232C205.247 20.3656 208.88 17.5497 213.619 16.6537C214.547 16.4809 215.513 16.5129 216.459 16.4553C216.511 16.7561 216.491 17.2809 216.619 17.3193C217.617 17.6073 218.634 17.8185 219.651 17.9977C219.901 18.0425 220.355 17.9145 220.412 17.7609C220.508 17.4921 220.463 17.0697 220.297 16.8329C219.958 16.3529 219.498 15.9561 219.088 15.5273C222.318 14.2794 225.645 13.8058 229.079 14.3818C230.742 14.6634 232.162 15.4249 233.397 16.5961C233.666 16.8521 234.196 17.0249 234.561 16.9673C240.765 15.9817 245.045 21.236 244.923 26.2983C244.917 26.5799 245.166 27.0215 245.416 27.1367C247.949 28.3463 249.484 30.4518 250.123 33.0374C251.172 37.2549 252.049 41.5236 252.752 45.8051C253.296 49.1074 253.629 52.4674 253.744 55.8145C253.852 59.0592 253.577 62.336 252.343 65.3887C251.78 66.7775 250.904 68.0702 249.995 69.2798C249.132 70.4318 248.78 70.3614 247.795 69.3822C246.708 71.5006 245.608 73.6189 244.552 75.7565C244.431 75.9997 244.533 76.4093 244.648 76.6973C245.377 78.5724 244.802 80.006 242.908 80.7484C239.915 81.9195 237.311 80.902 234.855 79.206C234.58 79.014 234.35 78.7516 234.049 78.4764C233.429 78.9756 232.885 79.5644 232.22 79.9292C230.243 81.0108 228.152 80.8124 226.099 80.1852C223.745 79.4684 222.561 77.6572 221.896 75.4237C220.854 71.8782 220.572 68.307 221.385 64.5375C221.11 64.7743 220.751 64.9535 220.579 65.2479C219.721 66.6879 218.986 68.2046 218.071 69.5998C217.169 70.9694 217.655 72.2238 218.25 73.4205C219.037 75.0077 219.817 76.6525 220.924 78.0156C222.651 80.1404 224.666 82.0283 226.508 84.0635C226.828 84.4155 227.199 85.2411 227.052 85.4075C226.457 86.0795 225.996 85.4011 225.555 85.0107C223.962 83.6027 222.382 82.1819 221.078 81.0108C221.161 81.7915 221.301 83.0651 221.429 84.3451C221.506 85.0939 221.308 85.5355 220.495 85.9067C219.549 86.3354 218.775 87.1482 217.95 87.8202C216.651 88.8762 215.378 89.9706 214.067 91.0137C213.83 91.2057 213.37 91.3849 213.165 91.2761C212.897 91.1354 212.686 90.7258 212.622 90.3994C212.474 89.6186 212.538 88.7866 212.321 88.0314C211.611 85.5355 209.263 85.2027 207.191 86.681C205.33 88.0122 205.624 89.7466 205.323 91.4489C205.279 91.7113 205.285 91.9801 205.266 92.2425C205.266 92.2745 205.221 92.3065 205.183 92.3641C204.805 92.3641 204.402 92.3641 203.961 92.3641C203.929 91.9353 203.903 91.5769 203.871 91.1161C199.861 92.5881 195.902 93.5929 191.661 91.4937C189.275 95.0329 186.895 98.5592 184.497 102.118C183.48 101.522 183.627 100.857 184.151 100.095C186.345 96.9272 188.533 93.7593 190.714 90.585C191.232 89.8298 191.718 89.0554 192.185 88.2682C193.157 86.649 193.151 86.1243 191.846 84.7163C190.49 83.2507 189.729 81.5611 189.537 79.6028C189.441 78.6684 189.07 78.438 188.175 78.8284C186.953 79.366 185.655 79.7244 184.452 80.2812C183.422 80.7612 182.495 81.446 181.484 81.9771C181.062 82.2011 180.557 82.2587 180.083 82.3931C180.147 81.9195 180.103 81.3948 180.288 80.9724C181.606 77.99 182.968 75.0269 184.318 72.0574C184.247 71.9294 184.171 71.795 184.1 71.667C177.448 72.7037 170.789 73.7277 164.15 74.8157C163.664 74.8989 163.069 75.4173 162.852 75.8845C162.34 76.9788 162.308 77.0492 161.304 76.3069C156.724 78.918 153.366 82.8155 150.328 87.0074C145.39 93.8233 142.204 101.458 139.876 109.497C138.961 112.645 137.957 115.768 136.927 118.879C136.671 119.66 136.959 120.056 137.567 120.332C138.533 120.773 139.531 121.164 140.861 121.714C140.228 122.092 139.793 122.552 139.326 122.578C138.808 122.604 138.27 122.232 137.676 122.015C137.253 123.045 136.876 123.96 136.499 124.869ZM232.949 50.0226C234.132 47.9683 234.676 45.7987 234.887 43.5459C235.386 38.2853 233.947 33.383 231.798 28.7047C230.666 26.2343 229.035 23.9816 227.538 21.6904C227.269 21.2744 226.566 21.1464 226.06 20.884C225.932 21.4472 225.613 22.0424 225.715 22.5544C225.881 23.3928 226.271 24.2056 226.662 24.9799C229.482 30.5606 230.992 36.4549 230.832 42.7204C230.774 44.8387 230.448 46.9443 230.237 49.1138C231.094 49.4082 231.951 49.6962 232.949 50.0226ZM185.821 71.4366C184.74 74.1757 183.736 76.7293 182.648 79.4876C184.625 78.7132 186.429 78.0348 188.194 77.2796C188.507 77.1452 188.782 76.6973 188.878 76.3389C189.205 75.0845 189.448 73.8109 189.723 72.5437C189.902 71.7118 190.081 70.8798 190.305 69.843C188.578 70.451 187.075 70.9886 185.821 71.4366ZM242.058 55.0785C242.064 57.9328 242.505 60.7104 243.426 63.3983C243.567 63.8015 244.175 64.0447 244.565 64.3647C244.622 63.8975 244.827 63.3855 244.706 62.9631C243.868 59.9296 243.183 56.8577 243.541 53.7153C244.015 49.5938 243.753 45.5811 242.55 41.626C242.441 41.274 242.006 41.018 241.719 40.7172C241.597 41.1268 241.296 41.5748 241.38 41.9396C242.058 45.0371 242.774 48.1155 242.358 51.3282C242.192 52.5634 242.153 53.8241 242.058 55.0785ZM224.704 45.9139C226.163 45.4339 226.546 44.4931 226.489 43.2004C226.412 41.4148 226.63 39.5972 226.38 37.8373C225.92 34.5669 225.229 31.3222 224.583 28.0775C224.532 27.8279 224.084 27.6615 223.822 27.4567C223.668 27.7575 223.406 28.0455 223.38 28.3591C223.348 28.7175 223.515 29.1014 223.604 29.4662C224.512 33.2166 225.235 36.9861 225.056 40.8708C224.966 42.5348 224.819 44.1923 224.704 45.9139ZM221.826 18.5993C221.717 18.6057 221.48 18.5545 221.346 18.6505C221.039 18.8617 220.783 19.1433 220.508 19.3993C220.796 19.5848 221.058 19.8408 221.372 19.9304C221.724 20.0328 222.165 19.8856 222.491 20.0264C222.869 20.1864 223.169 20.532 223.483 20.82C223.79 21.1016 224.071 21.4088 224.365 21.7096C224.5 21.2744 224.787 20.82 224.736 20.404C224.602 19.3225 223.399 18.6121 221.826 18.5993ZM229.604 51.117C229.38 51.8786 229.105 52.5186 229.028 53.1841C228.996 53.4849 229.271 53.9457 229.546 54.1057C229.751 54.2337 230.295 54.1121 230.474 53.9137C230.992 53.3249 231.408 52.6402 231.932 51.8978C231.133 51.629 230.461 51.405 229.604 51.117Z" fill="black"/>
<path d="M61.2841 28.8966C61.0922 29.6454 60.8619 30.3878 60.7084 31.1494C60.5613 31.8918 60.4142 32.6277 59.5123 32.7493C58.6743 32.8645 58.3737 32.295 58.0219 31.6294C57.587 30.8038 56.9665 30.0678 56.3653 29.3446C55.796 28.6726 55.2011 29.0182 54.8941 29.5942C54.6446 30.0678 54.4975 30.7206 54.5999 31.239C54.9709 33.2229 55.3674 35.2133 55.9303 37.146C56.3333 38.5284 57.2288 39.6292 58.5912 40.2948C59.1797 40.5828 59.9344 43.2387 59.621 43.8403C59.5315 44.0131 59.2372 44.2435 59.1285 44.1987C58.8726 44.1027 58.4825 43.8531 58.4825 43.6739C58.5272 41.9715 57.1904 41.2612 56.2054 40.25C55.5849 39.61 54.9901 38.7972 54.7534 37.9588C54.1265 35.7253 53.5381 33.4597 53.2375 31.1686C52.924 28.7942 54.3568 27.5015 56.9473 27.719C56.3589 26.2023 55.8855 24.7687 55.2459 23.4119C54.7214 22.3048 54.7278 21.364 55.3035 20.2696C55.6489 19.6104 55.7384 18.7592 55.7576 17.9912C55.7768 17.0441 55.457 16.0777 55.5465 15.1433C55.6489 14.1193 55.7448 12.8202 56.3908 12.1866C57.5102 11.0922 58.572 9.97222 59.4931 8.71784C59.653 8.50025 59.8577 8.18025 59.8065 7.96266C59.557 6.81708 60.2287 6.1323 61.0794 5.7867C62.5122 5.21072 64.0409 4.86512 65.512 4.38513C66.2988 4.12914 67.0536 3.80275 67.8275 3.50195C67.8979 3.47635 67.949 3.39955 68.0194 3.37395C69.6633 2.86196 71.4926 2.65077 72.8934 1.76119C74.5629 0.69881 76.162 0.570813 77.9018 0.980404C78.9955 1.2428 80.0126 2.04918 81.0935 2.11318C82.1425 2.17718 83.2427 1.3388 84.3045 1.3836C85.5838 1.43479 86.863 1.92118 88.0847 2.37558C88.6732 2.59317 89.1018 2.81077 89.767 2.56117C91.5835 1.88919 93.6624 2.84277 94.7114 4.85872C95.2359 5.8699 95.8819 6.57389 96.9821 6.93228C97.9607 7.25227 98.2997 8.09066 98.4276 9.07623C98.4724 9.45383 98.7283 9.87622 99.0097 10.1322C100.276 11.265 100.436 12.6794 100.142 14.2217C100.052 14.7017 99.886 15.1689 99.7581 15.6169C99.8348 15.7129 99.8732 15.7961 99.9372 15.8281C102.304 16.9801 102.886 18.292 102.182 21.0696C101.83 22.4712 101.485 23.8919 100.941 25.2295C100.615 26.0359 99.9116 26.6823 99.3871 27.4119C99.112 27.7958 98.7411 28.1606 98.6131 28.5894C98.2293 29.8886 97.9415 31.2198 97.6153 32.5445C96.9693 32.327 96.2913 32.1734 95.6964 31.8662C95.1143 31.5654 94.27 31.463 94.2508 30.5286C94.2828 30.087 94.3596 29.639 94.334 29.1974C94.2508 27.7254 93.8479 26.2151 94.0909 24.8071C94.3979 23.0215 93.9438 21.7352 92.7413 20.5128C91.5963 19.348 90.4962 18.2664 88.9546 17.4985C86.3321 16.1993 83.4986 15.1113 81.7396 12.4682C81.0104 11.3802 79.6991 11.1114 78.4455 11.2778C76.2579 11.5658 74.0895 11.9754 71.9148 12.3402C70.7187 12.545 69.4522 12.5834 68.3584 13.0378C67.3734 13.4473 66.7721 13.6905 66.3116 12.5002C66.2348 12.2954 65.7679 12.2442 65.4801 12.1226C65.3777 12.417 65.1666 12.7178 65.1922 12.9994C65.2242 13.3193 65.3905 13.6905 65.6208 13.9081C66.1837 14.4329 66.1453 15.0217 65.9982 15.6809C65.4673 18.0616 64.9811 20.4488 64.4439 22.8295C64.1304 24.2375 63.5803 25.4919 62.2563 26.3047C61.9493 26.4903 61.8341 26.9767 61.6295 27.3287C60.6572 27.6358 59.6594 27.8854 58.7255 28.2822C58.4121 28.4166 58.2586 28.9286 58.0283 29.2678C58.3865 29.3382 58.7639 29.5046 59.1029 29.4534C59.8321 29.3062 60.5549 29.0822 61.2841 28.8966ZM62.3778 11.489C62.4034 11.521 62.493 11.7578 62.6401 11.8026C62.9599 11.8922 63.3117 11.8858 63.6443 11.9178C63.6123 11.5786 63.6891 11.169 63.5228 10.913C62.9727 10.0554 62.2691 9.59462 61.2457 10.2858C61.0666 10.4074 60.766 10.401 60.5357 10.369C60.2031 10.3242 59.8769 10.2026 59.5442 10.113C59.4867 10.3946 59.3012 10.7594 59.4099 10.9514C59.589 11.2714 59.9408 11.6746 60.2542 11.7066C60.8683 11.7578 61.4951 11.5914 62.3778 11.489Z" fill="black"/>
<path d="M206.308 113.906C205.739 114.175 205.131 114.386 204.607 114.725C203.941 115.16 203.391 115.807 202.694 116.159C202.317 116.351 201.62 116.28 201.268 116.037C200.993 115.845 200.89 115.192 200.942 114.77C201.236 112.3 202.496 110.45 204.658 109.209C205.054 108.985 205.413 108.697 205.79 108.441C205.739 108.351 205.688 108.261 205.636 108.178C204.472 108.863 203.295 109.535 202.15 110.245C201.274 110.789 200.487 111.487 199.56 111.916C199.016 112.165 198.134 112.261 197.686 111.986C197.008 111.564 196.778 110.706 197.129 109.849C197.257 109.535 197.36 109.209 197.468 108.901C195.818 107.794 195.799 107.577 197.206 105.19C196.726 105.106 196.227 105.151 195.901 104.934C195.409 104.601 194.839 104.146 194.686 103.622C194.596 103.321 195.146 102.604 195.569 102.399C198.383 101.068 201.114 99.4616 204.44 99.7368C205.144 99.7944 205.886 99.404 206.615 99.2184C208.758 98.7768 209.621 99.2184 210.677 101.433C212.084 104.39 213.44 107.365 214.796 110.341C214.95 110.681 215.135 111.09 215.09 111.436C214.758 113.925 215.532 116.44 214.585 118.956C213.709 121.298 213.306 123.82 212.749 126.271C212.647 126.719 212.698 127.288 212.903 127.691C215.282 132.427 217.751 137.125 220.93 141.394C220.969 141.445 221.058 141.464 221.173 141.522C221.794 139.358 222.401 137.208 223.035 135.064C223.77 132.575 224.493 130.085 225.292 127.621C225.593 126.687 225.932 125.701 226.501 124.92C228.132 122.68 228.58 120.14 228.74 117.484C228.855 115.589 229.45 113.855 230.397 112.191C232.36 108.748 234.203 105.234 236.109 101.759C236.473 101.094 236.844 100.409 237.324 99.8264C237.522 99.5832 238.015 99.5768 238.373 99.4616C238.392 99.8328 238.558 100.287 238.411 100.569C236.345 104.434 234.382 108.364 232.085 112.089C230.525 114.623 230.224 117.343 229.84 120.146C229.655 121.509 229.271 122.949 228.561 124.108C226.975 126.699 226.226 129.567 225.382 132.415C224.423 135.666 223.508 138.936 222.523 142.187C222.312 142.885 222.344 143.39 222.875 143.934C225.081 146.2 227.237 148.517 229.463 150.763C229.827 151.134 230.454 151.454 230.96 151.454C235.642 151.416 240.33 151.294 245.108 151.198C244.878 148.043 244.686 145.118 244.449 142.2C244.059 137.374 243.714 132.536 243.202 127.723C242.633 122.303 241.846 116.901 241.258 111.481C240.893 108.146 240.759 104.793 240.445 101.452C240.266 99.5576 240.042 97.6505 239.639 95.7945C239.307 94.2585 238.085 93.273 236.825 92.4602C235.194 91.4106 233.486 90.4698 231.829 89.4586C231.375 89.1834 230.908 88.8826 230.563 88.4987C230.365 88.2811 230.397 87.8523 230.326 87.5195C230.64 87.4939 231.036 87.3403 231.26 87.4683C233.518 88.8058 235.795 90.1242 237.976 91.5834C240.042 92.9722 241.149 94.9497 241.379 97.5033C242.019 104.684 242.729 111.858 243.49 119.026C243.855 122.476 244.494 125.893 244.833 129.349C245.313 134.207 245.626 139.083 246.004 143.953C246.164 146.008 246.304 148.062 246.471 150.117C246.496 150.417 246.477 150.795 246.643 151.006C247.564 152.177 246.816 152.664 245.869 153.157C244.283 153.988 242.799 155.14 241.123 155.64C239.575 156.107 239.512 156.9 239.243 158.244C238.309 162.948 237.17 167.614 235.891 172.241C235.328 174.276 233.793 175.818 231.893 176.766C231.075 177.175 230.013 177.124 229.053 177.201C228.9 177.214 228.561 176.785 228.58 176.586C228.599 176.388 228.951 176.068 229.162 176.062C232.559 175.966 234.081 173.604 234.919 170.878C235.994 167.383 236.767 163.793 237.471 160.203C237.938 157.822 238.047 155.377 238.335 152.849C236.077 152.849 234.055 152.849 232.034 152.849C231.964 152.939 231.9 153.022 231.829 153.112C232.13 153.323 232.45 153.515 232.731 153.745C233.154 154.097 233.646 154.545 233.077 155.038C232.866 155.217 232.124 155.07 231.823 154.82C230.358 153.598 228.958 152.299 227.544 151.025C221.595 145.656 217.195 139.141 213.606 132.037C213.229 131.288 212.909 130.495 212.436 129.816C211.189 128.018 211.259 126.143 211.835 124.14C212.487 121.868 213.088 119.576 213.581 117.266C213.76 116.421 213.574 115.5 213.562 114.61C213.555 114.124 213.555 113.644 213.555 113.157C213.44 112.242 213.491 111.276 213.184 110.431C212.532 108.645 211.745 106.911 210.926 105.196C210.255 103.794 209.487 102.438 208.72 101.087C208.291 100.319 207.658 100.249 206.877 100.626C205.093 101.478 203.289 102.29 201.485 103.103C199.797 103.865 198.831 105.266 198.082 106.873C198.031 106.898 197.974 106.924 197.923 106.943C197.954 106.962 197.986 106.981 198.018 107.007C198.031 106.956 198.044 106.905 198.057 106.847C198.409 106.796 198.882 106.879 199.093 106.674C201.383 104.498 204.44 103.833 207.165 102.527C207.453 102.386 207.958 102.687 208.361 102.777C208.105 103.084 207.914 103.526 207.587 103.686C205.668 104.62 203.711 105.458 201.786 106.38C199.886 107.295 199.093 109.042 198.46 110.924C199.502 110.444 200.423 109.855 201.3 109.209C202.88 108.037 204.53 106.994 206.532 106.834C207.127 106.783 207.894 107.039 208.342 107.429C209.877 108.773 211.329 110.22 212.756 111.685C213.075 112.012 213.178 112.562 213.376 113.01C212.89 112.914 212.301 112.959 211.943 112.69C210.741 111.769 209.641 110.713 208.451 109.772C208.137 109.522 207.619 109.349 207.236 109.407C205.342 109.689 202.797 112.498 202.585 114.629C203.263 114.105 203.814 113.631 204.408 113.215C205.566 112.409 206.788 112.255 208.048 112.997C208.988 113.554 209.916 116.268 209.442 117.247C209.34 117.464 208.956 117.701 208.745 117.669C208.528 117.637 208.253 117.304 208.195 117.061C208.061 116.472 208.022 115.858 207.984 115.25C207.901 114.169 207.312 113.778 206.308 113.906ZM196.637 103.385C196.637 103.468 196.63 103.551 196.63 103.641C196.963 103.641 197.353 103.756 197.615 103.622C198.959 102.943 200.264 102.201 201.588 101.484C201.549 101.401 201.504 101.318 201.466 101.234C199.854 101.951 198.242 102.668 196.637 103.385Z" fill="black"/>
<path d="M65.7871 160.446C69.158 160.388 71.6142 162.391 74.16 164.177C76.3091 165.681 78.3879 167.294 80.5627 168.759C83.2172 170.551 85.1169 173.009 86.8055 175.652C87.4516 176.669 87.3748 177.725 86.409 178.256C85.8333 178.57 84.7267 178.493 84.1447 178.135C82.1106 176.874 80.2173 175.396 78.2344 174.045C77.7099 173.687 77.0831 173.476 76.5074 173.194C76.4179 173.175 76.3347 173.156 76.2452 173.137C76.2771 173.213 76.3091 173.297 76.3411 173.373C77.953 175.767 79.5968 178.135 81.1576 180.554C81.7332 181.444 82.2961 182.416 82.52 183.428C82.6991 184.228 82.5967 185.303 82.1682 185.962C81.6053 186.826 80.5819 186.628 79.744 186.052C79.6672 185.994 79.5521 185.988 79.2834 185.904C79.8143 186.788 79.9742 187.6 79.1875 188.227C78.3432 188.899 77.4285 188.784 76.5266 188.279C73.2261 186.442 70.6484 183.741 67.9683 181.156C67.7252 180.919 67.4886 180.676 67.2455 180.432C67.2199 180.42 67.1879 180.413 67.1623 180.4C67.1943 180.407 67.2327 180.413 67.2647 180.42C67.7316 181.13 68.1474 181.885 68.6847 182.544C69.3755 183.402 70.2774 184.106 70.8658 185.015C71.1793 185.495 71.3072 186.564 71.013 186.858C70.4821 187.389 69.7465 188.106 68.7486 187.594C67.9043 187.159 67.0472 186.756 66.1965 186.34C64.9556 185.264 63.7787 184.106 62.461 183.14C61.4376 182.391 60.2927 181.661 59.0902 181.322C53.02 179.613 47.5895 176.701 42.5492 172.957C40.3872 171.351 38.0973 169.924 36.1337 168.593C35.3981 169.041 34.848 169.444 34.2404 169.732C33.2425 170.205 32.1935 170.557 31.1957 171.044C29.0913 172.068 26.9933 172.017 24.9145 171.044C24.4539 170.826 24.1021 170.385 23.7056 170.045C23.7503 169.642 23.7951 169.245 23.8335 168.842C25.1767 166.929 26.3537 164.868 27.8888 163.127C30.2682 160.439 32.3918 157.463 35.5772 155.569C37.1251 154.647 38.7754 154.206 40.5471 154.116C41.7241 154.359 42.901 154.603 44.0779 154.839C48.0948 158.391 52.3932 161.06 58.1371 160.42C60.6573 160.132 63.235 160.414 65.7871 160.446ZM80.9721 185.207C81.5989 183.959 80.9017 183.159 80.4923 182.346C78.4135 178.192 75.4456 174.634 72.74 170.897C72.1131 170.033 71.5438 169.124 71.0449 168.19C70.9234 167.959 71.1665 167.537 71.2432 167.198C71.5566 167.338 71.9468 167.409 72.1579 167.639C72.5097 168.03 72.6504 168.657 73.0534 168.945C74.5821 170.045 76.1812 171.044 77.7419 172.1C80.0446 173.661 82.3281 175.242 84.6372 176.791C84.8802 176.957 85.2384 176.957 85.5455 177.034C85.4943 176.733 85.5391 176.375 85.3855 176.145C83.7929 173.706 82.0211 171.447 79.5393 169.796C77.4477 168.401 75.42 166.903 73.4692 165.322C70.7251 163.102 67.77 161.63 64.1177 161.777C61.2265 161.892 58.3226 161.93 55.4314 161.815C53.9731 161.758 52.3804 161.598 51.1139 160.951C48.6513 159.697 46.2655 158.219 44.0715 156.548C42.6771 155.486 41.3723 155.198 39.7412 155.467C35.7435 156.126 33.3704 158.929 30.9142 161.943C32.104 163.082 33.153 164.324 34.4258 165.265C38.1613 168.03 42.0247 170.621 45.7666 173.38C49.3421 176.01 53.2247 178.032 57.4783 179.204C60.4334 180.016 63.0047 181.296 65.1219 183.524C65.672 184.1 66.318 184.605 66.9896 185.028C67.8659 185.572 68.819 185.994 69.7401 186.474C69.8296 186.372 69.9192 186.269 70.0087 186.16C69.6377 185.68 69.2731 185.194 68.9086 184.708C67.6101 182.98 66.2605 181.284 65.0516 179.498C64.8021 179.133 65.0835 178.416 65.1155 177.86C65.6656 177.956 66.3756 177.873 66.7466 178.186C68.2561 179.466 69.6185 180.925 71.1281 182.205C73.0406 183.831 75.0299 185.36 77.0191 186.884C77.3517 187.139 77.8762 187.133 78.3112 187.248C78.1001 186.5 77.614 186.064 77.582 185.591C77.5436 185.028 77.8379 184.407 78.1065 183.876C78.1449 183.799 78.8805 184.004 79.2451 184.176C79.8079 184.464 80.3388 184.829 80.9721 185.207Z" fill="black"/>
<path d="M18.8955 202.685C19.4967 201.283 20.098 199.888 20.6992 198.486C21.2749 199.35 21.825 200.24 22.4326 201.085C23.245 202.224 24.1021 203.331 24.9464 204.451C24.9016 207.158 24.8441 209.872 24.8185 212.579C24.7481 219.651 25.925 226.543 27.6265 233.378C28.5987 237.295 29.4558 241.25 30.2106 245.218C30.5176 246.85 30.5176 248.565 30.4665 250.242C30.2938 255.541 30.0123 260.84 29.814 266.139C29.782 266.971 29.4111 267.304 28.3748 267.374C28.3748 266.549 28.3493 265.749 28.3812 264.943C28.5731 259.183 28.8738 253.429 28.9441 247.669C28.9889 243.631 27.7672 239.765 26.8333 235.874C25.9378 232.13 25.0743 228.374 24.3132 224.598C23.9614 222.851 23.891 221.046 23.7119 219.26C23.6479 218.64 23.6735 218 22.7653 218.057C22.6949 218.064 22.6117 218.019 22.5542 217.974C20.2259 215.92 17.5842 214.108 16.9126 210.761C17.0085 210.358 17.0981 209.955 17.2068 209.558C17.7569 207.529 18.3198 205.501 18.8763 203.472C18.8891 203.203 18.8955 202.928 18.9083 202.659C18.8955 202.665 18.8955 202.685 18.8955 202.685Z" fill="black"/>
<path d="M44.0779 154.834C42.9009 154.59 41.724 154.347 40.5471 154.111C40.8413 154.066 41.1356 154.027 41.7304 153.944C40.1185 152.581 38.6538 151.346 37.2018 150.104C36.2743 149.311 35.3469 148.523 34.445 147.698C33.1721 146.539 32.4557 145.189 32.1679 143.384C31.9184 141.81 30.927 140.312 30.0955 138.879C28.6243 136.338 27.006 133.887 25.4901 131.372C24.7609 130.169 23.552 130.002 22.3751 129.81C19.7334 129.381 17.29 130.239 14.9425 131.25C12.9213 132.121 11.0344 133.305 9.08986 134.348C9.05788 134.367 9.0259 134.405 8.99392 134.405C8.55257 134.425 8.11762 134.437 7.67627 134.457C7.82978 134.047 7.86816 133.471 8.16239 133.266C9.16022 132.569 10.2028 131.903 11.303 131.397C13.4458 130.418 15.6397 129.548 17.9296 128.588C15.8188 128.255 13.7848 128.242 11.7443 128.652C11.4821 128.703 11.2071 128.85 10.9768 128.799C10.7657 128.754 10.4331 128.473 10.4523 128.338C10.4907 128.044 10.6698 127.596 10.8872 127.525C11.6804 127.282 12.5055 127.058 13.3306 127.02C16.7911 126.866 20.2003 127.148 23.4305 128.556C23.5584 128.613 23.7055 128.607 24.0573 128.671C23.6863 127.967 23.3217 127.442 23.1298 126.853C22.9891 126.431 23.0659 125.932 23.0531 125.465C23.4625 125.727 24.0125 125.9 24.2492 126.277C24.9784 127.442 25.5796 128.677 26.2385 129.887C26.3792 130.143 26.5583 130.38 26.6414 130.514C27.6585 128.812 28.5859 127.071 29.6925 125.445C32.1039 121.894 33.0698 117.887 33.5815 113.721C34.0548 109.862 34.4961 105.996 34.9951 102.137C35.0398 101.798 35.398 101.504 35.6091 101.184C35.8266 101.523 36.2487 101.881 36.2232 102.208C36.0697 104.185 35.8266 106.15 35.5835 108.121C35.1742 111.411 34.8416 114.713 34.2979 117.983C33.7158 121.465 32.0847 124.518 30.1466 127.449C29.232 128.825 28.6563 130.431 28.0294 131.98C27.8759 132.357 27.9655 132.985 28.1894 133.337C29.475 135.365 30.831 137.349 32.1615 139.352C33.0826 140.741 33.6518 142.232 33.7542 143.935C33.8501 145.586 35.2317 146.469 36.3063 147.442C38.3084 149.259 40.4575 150.917 42.4788 152.722C43.112 153.291 43.5406 154.123 44.0779 154.834Z" fill="#F85E60"/>
<path d="M112.723 114.981C112.346 114.789 111.968 114.597 111.597 114.405C111.546 113.912 111.591 113.381 111.412 112.94C111.086 112.114 110.823 110.924 110.184 110.623C108.041 109.605 105.738 109.484 103.295 110.412C104.542 111.576 106.039 111.903 107.421 112.472C108.559 112.94 109.634 113.586 110.734 114.155C109.583 114.047 108.386 114.098 107.286 113.797C105.31 113.253 103.365 112.556 101.888 110.988C101.702 110.789 101.223 110.668 100.973 110.757C99.8793 111.141 98.7663 111.525 97.7685 112.095C96.9882 112.536 96.3805 113.272 95.6641 113.835C95.2483 114.168 94.8006 114.469 94.3273 114.712C92.4403 115.704 91.3722 115.352 90.4767 113.528C89.5812 113.439 88.6793 113.483 87.8734 113.24C86.6389 112.869 86.351 112.031 87.0546 110.943C87.6495 110.021 88.4042 109.202 89.0951 108.344C89.3509 108.031 89.6324 107.73 89.9778 107.34C89.1398 106.962 88.3979 106.68 87.7135 106.303C85.9545 105.349 85.8649 104.434 87.3616 103.109C88.1612 102.866 88.9735 102.642 89.7603 102.373C92.5939 101.413 95.453 101.644 97.9412 103.084C99.2205 103.826 100.813 103.973 101.779 104.876C103.077 106.085 104.677 106.162 106.09 106.834C106.819 107.18 107.696 107.327 107.875 108.389C107.907 108.594 108.572 108.741 108.962 108.831C111.994 109.496 113.472 111.916 112.723 114.981ZM88.3403 111.96C90.2912 111.884 92.2868 112.255 93.6301 110.232C94.7942 108.479 96.2718 106.994 98.3378 106.245C98.7855 106.085 99.2077 105.861 99.6426 105.663C98.1459 105.234 96.6875 105.004 95.2228 104.895C94.2249 104.824 93.1631 105.72 92.8241 106.661C92.7346 106.924 92.5747 107.231 92.3508 107.359C90.5342 108.447 89.4852 110.2 88.3403 111.96ZM105.917 108.396C105.93 108.293 105.943 108.197 105.956 108.095C104.721 107.756 103.506 107.25 102.252 107.128C101.165 107.026 99.9816 107.199 98.9326 107.538C95.8496 108.543 94.5959 111.532 92.5427 113.701C93.1311 113.611 93.7004 113.471 94.1418 113.163C95.0756 112.511 95.8944 111.672 96.8666 111.096C97.954 110.45 99.1181 109.842 100.333 109.503C102.163 109.004 104.056 108.754 105.917 108.396ZM87.9629 104.421C87.9501 104.549 87.9309 104.677 87.9181 104.805C88.4618 105.048 88.9991 105.317 89.5492 105.535C90.6686 105.976 91.596 105.912 92.4404 104.837C92.9521 104.191 93.8156 103.832 94.6215 103.276C92.2485 102.969 90.0865 103.602 87.9629 104.421Z" fill="black"/>
<path d="M89.562 65.1131C89.8818 66.5723 90.2017 68.0379 90.5279 69.497C89.6068 68.7098 88.577 68.9978 87.6111 69.305C87.3233 69.3946 87.1378 69.9194 86.9971 70.2842C86.8947 70.553 87.0291 70.937 86.8947 71.1738C86.6837 71.545 86.3319 71.8394 86.044 72.1658C85.8841 71.7882 85.5835 71.4106 85.5835 71.033C85.5387 66.6811 85.6666 62.3356 86.7796 58.0861C86.818 57.9517 86.7988 57.7981 86.8244 57.3501C86.3383 57.7277 86.044 57.9709 85.7306 58.1949C84.5025 59.0972 83.3 60.0252 82.0399 60.8828C81.1444 61.4908 80.0379 61.6956 79.0656 62.1436C78.0806 62.6044 76.5902 62.2524 75.4005 61.9516C70.7376 60.774 67.194 58.0029 64.7122 53.9262C63.5737 52.051 62.6526 50.035 61.6548 48.0703C61.5012 47.7695 61.3669 47.4111 61.3861 47.0911C61.3989 46.8479 61.6292 46.5279 61.853 46.4127C61.981 46.3423 62.3647 46.5407 62.4927 46.7135C62.691 46.9823 62.7549 47.3407 62.8893 47.6543C65.0128 52.5758 67.6929 57.0813 72.8036 59.4428C74.4027 60.1788 76.1873 60.6012 77.9335 60.8956C78.9185 61.062 79.9291 60.71 80.8182 59.942C82.5388 58.4573 84.5729 57.3181 86.1911 55.7373C89.3317 52.6718 91.4489 48.9727 92.3444 44.6016C92.7474 42.6432 93.3678 40.7296 93.8923 38.7969L93.8412 38.7777C93.9115 38.6497 93.9883 38.5217 94.0587 38.3937C94.7303 36.7489 95.3955 35.1041 96.1119 33.3506C96.323 33.4914 96.6875 33.7282 97.0521 33.965C95.7921 38.1569 94.6535 42.3872 93.2335 46.5215C92.4212 48.8767 91.289 51.1486 90.0481 53.3182C88.4682 56.0701 87.9118 59.0716 87.4064 62.118C87.3681 62.3548 87.6431 62.6748 87.8222 62.918C88.3851 63.654 88.9736 64.3771 89.562 65.1131ZM86.8755 57.4653C86.85 57.4205 86.8244 57.3693 86.7988 57.3245C86.7732 57.3501 86.7284 57.3821 86.7348 57.3949C86.7476 57.4461 86.7796 57.4909 86.7988 57.5421C86.8244 57.5229 86.85 57.4973 86.8755 57.4653Z" fill="black"/>
<path d="M97.0461 33.9656C96.6815 33.7288 96.3169 33.492 96.1058 33.3512C95.3894 35.1047 94.7242 36.7495 94.0526 38.3943C93.9822 38.5223 93.9055 38.6503 93.8351 38.7783L93.8863 38.7975C91.897 39.4119 89.8822 39.5526 87.8609 38.9895C87.0166 38.7527 86.1723 38.5095 85.36 38.1831C83.4538 37.4151 82.552 35.9175 82.4688 33.9016C82.4304 32.9544 82.4624 32.0072 82.4624 30.9192C82.0466 30.836 81.5349 30.6696 81.0232 30.6632C80.7738 30.6632 80.3836 30.9256 80.3004 31.1624C78.5926 35.9111 77.2046 36.9223 72.1707 36.6663C70.8786 36.6023 69.5418 36.1735 68.3393 35.6487C66.6954 34.9383 65.9279 33.524 65.8767 31.7064C65.8447 30.4968 65.7232 29.2873 65.6336 27.8921C64.0921 28.2441 62.6977 28.5641 61.2969 28.8841C60.5677 29.0697 59.8385 29.2937 59.0966 29.4153C58.7576 29.4665 58.3802 29.3001 58.022 29.2297C58.2522 28.8905 58.4058 28.3785 58.7192 28.2441C59.653 27.8473 60.6509 27.5977 61.6231 27.2905C64.3032 26.8745 66.9896 26.4585 69.6697 26.0361C70.4437 26.0681 71.2112 26.1385 71.9852 26.1193C73.9745 26.0745 75.8806 26.4073 77.6907 27.2393C78.5031 27.7961 79.309 28.3593 80.1341 28.9033C80.3708 29.0633 80.6331 29.2681 80.9017 29.2937C82.1362 29.4089 83.4155 29.9592 84.5732 28.9737C84.7459 28.8265 85.0849 28.8713 85.3472 28.8265C86.8887 28.8265 88.4366 28.8265 89.9781 28.8265C91.3981 29.3833 92.8245 29.9401 94.2445 30.5032C94.2701 31.4376 95.108 31.54 95.6901 31.8408C96.2849 32.148 96.9629 32.3016 97.609 32.5192C98.1782 33.6456 98.1207 33.7864 97.0461 33.9656ZM71.3967 27.4505C70.1942 27.5529 68.9853 27.6169 67.7892 27.7961C67.5205 27.8345 67.1368 28.2889 67.124 28.5641C67.0792 29.3961 67.1879 30.228 67.2455 31.0664C67.4118 33.4408 68.2561 34.4648 70.5652 35.0599C70.9682 35.1623 71.3839 35.2455 71.7997 35.3031C76.0085 35.9047 78.2536 34.5032 78.9828 30.9384C79.1555 30.1064 78.8996 29.6777 78.26 29.2425C76.1748 27.8409 73.8401 27.4889 71.3967 27.4505ZM87.4963 29.9529C86.6648 30.0488 85.7949 30.0233 85.0273 30.2856C84.5412 30.452 83.94 31.0024 83.8568 31.4696C83.6841 32.4232 83.7289 33.4472 83.8504 34.42C83.9975 35.5911 84.6372 36.5383 85.8077 36.8711C87.3684 37.3127 88.9547 37.7415 90.5602 37.9271C91.6604 38.0551 92.9716 37.9591 93.4385 36.6087C93.8223 35.5079 94.0782 34.3432 94.2253 33.1848C94.2829 32.7176 94.0206 31.8792 93.688 31.7384C91.7115 30.9192 89.7798 29.8313 87.4963 29.9529Z" fill="#F85E60"/>
<path d="M24.94 204.452C24.1021 203.332 23.245 202.224 22.4263 201.085C21.8186 200.24 21.2685 199.357 20.6929 198.487C21.3261 195.703 22.0553 192.932 22.5734 190.122C23.2514 186.455 23.8079 182.769 24.3196 179.076C24.5435 177.457 24.5179 175.806 24.6202 174.174C24.633 173.95 24.633 173.681 24.7546 173.508C24.9209 173.259 25.1959 173.079 25.4198 172.868C25.6053 173.15 25.9571 173.438 25.9507 173.707C25.8611 176.106 25.6884 178.506 25.5733 180.9C25.3622 185.354 24.2812 189.636 23.1427 193.917C22.8165 195.133 22.4966 196.362 22.3815 197.61C22.3239 198.218 22.5734 199.018 22.9764 199.472C25.2727 202.071 27.6329 204.611 30.006 207.139C32.1999 209.475 35.0974 210.103 38.1229 210.25C41.0908 210.397 44.0587 210.506 47.0266 210.442C49.8794 210.378 52.5019 211.28 55.1948 211.965C57.9132 212.656 60.6892 213.136 63.4397 213.725C63.6891 213.776 63.9194 213.923 64.1496 214.013C64.2008 215.107 63.5036 215.318 62.7233 215.19C60.9962 214.902 59.2692 214.583 57.5742 214.154C55.4314 213.616 53.3462 212.695 51.1779 212.419C47.9797 212.016 44.7303 212.029 41.5002 211.901C41.3019 211.895 41.0972 212.17 40.8925 212.311C40.4704 212.291 40.0482 212.272 39.6325 212.253C39.2871 212.106 38.9608 211.869 38.6026 211.818C35.6731 211.408 32.6349 211.325 30.249 209.226C28.7651 207.92 27.3771 206.512 25.9315 205.168C25.6372 204.887 25.2727 204.682 24.94 204.452Z" fill="#F85E60"/>
<path d="M0.25 138.68C0.806482 136.133 1.24143 133.765 1.84909 131.442C3.43538 125.394 4.82978 119.269 6.80625 113.35C9.33921 105.74 10.9447 97.9003 13.2346 90.2397C14.3987 86.3422 16.0937 82.6046 17.6289 78.8287C17.9167 78.1247 18.5627 77.5359 19.1448 77.0111C19.3623 76.8128 19.874 76.9407 20.2514 76.9215C20.1554 77.2671 20.1171 77.6511 19.9507 77.9583C19.1576 79.4175 18.2237 80.8063 17.5329 82.3038C14.9808 87.8525 13.823 93.8428 12.2623 99.6987C11.3477 103.129 10.6057 106.598 9.65263 110.015C9.1857 111.692 8.28381 113.247 7.82327 114.924C6.06428 121.401 4.51636 127.941 2.65503 134.386C1.74035 137.56 1.86828 140.53 2.95565 143.57C3.08358 143.922 2.79575 144.415 2.7062 144.85C2.348 144.587 1.77873 144.389 1.67639 144.05C1.1263 142.239 0.691348 140.389 0.25 138.68Z" fill="#F85E60"/>
<path d="M18.8633 203.478C18.3069 205.507 17.7504 207.536 17.1939 209.564C17.0852 209.961 16.9956 210.364 16.8997 210.768C16.5799 207.318 16.9125 203.913 17.6289 200.541C18.5243 196.285 19.6117 192.067 20.3665 187.792C20.8142 185.251 20.8398 182.634 20.9486 180.042C21.0829 176.765 21.0957 173.482 21.2108 170.199C21.2428 169.328 20.9102 168.855 20.2705 168.228C18.2301 166.237 16.2984 164.113 14.4755 161.917C12.5246 159.575 10.7208 157.117 8.89784 154.673C7.03011 152.164 5.21354 149.623 3.37779 147.089C3.24347 146.903 3.04518 146.718 3.0132 146.513C2.96203 146.174 3.0196 145.822 3.02599 145.47C3.37779 145.585 3.86391 145.585 4.0622 145.828C4.71463 146.615 5.24553 147.511 5.86597 148.33C7.42028 150.404 8.98099 152.478 10.5737 154.519C12.87 157.457 15.243 160.343 17.5137 163.306C19.2535 165.578 21.3451 167.415 23.8269 168.823C23.7821 169.226 23.7438 169.623 23.699 170.026C23.3664 169.981 23.0338 169.936 22.554 169.872C22.554 170.852 22.5796 171.824 22.5476 172.791C22.4069 177.104 22.4709 181.437 22.0231 185.712C21.633 189.411 20.6799 193.059 19.9187 196.713C19.5733 198.384 19.0808 200.029 18.7098 201.699C18.6459 201.993 18.8314 202.345 18.9017 202.672L18.9081 202.646C18.8889 202.934 18.8761 203.209 18.8633 203.478Z" fill="#F85E60"/>
<path d="M72.7077 255.631C72.4966 259.823 72.2856 264.008 72.0873 268.2C72.0425 269.135 71.6267 269.423 70.9231 269.154C70.9231 266.427 70.8016 263.797 70.9487 261.186C71.211 256.546 71.5948 251.913 72.0233 247.285C72.2472 244.86 72.6566 242.447 73.0403 240.041C73.0915 239.721 73.4817 239.452 73.7119 239.164C73.9102 239.516 74.2876 239.868 74.2748 240.214C74.2365 241.276 74.1085 242.345 73.9102 243.388C73.2706 246.722 73.6288 250.012 74.1405 253.327C74.8697 258.069 75.4773 262.837 76.085 267.599C76.1362 268.008 75.7652 268.469 75.5861 268.911C75.2982 268.527 74.8121 268.168 74.7546 267.746C74.1917 263.784 73.7056 259.816 73.2002 255.855C73.1235 255.17 73.0467 254.479 72.9636 253.794C72.8804 253.801 72.7909 253.807 72.7077 253.813C72.7077 254.415 72.7077 255.023 72.7077 255.631Z" fill="black"/>
<path d="M154.536 116.518C154.28 116.639 154.024 116.754 153.769 116.876C153.615 116.422 153.276 115.942 153.34 115.519C153.922 111.596 154.798 107.698 155.144 103.763C155.528 99.4043 156.269 95.1483 157.446 90.9564C157.792 89.7212 158.463 88.5821 158.879 87.3597C159.231 86.3293 159.506 85.2605 159.66 84.1918C159.813 83.1038 159.724 81.9774 159.832 80.8766C159.858 80.6334 160.235 80.4222 160.453 80.1982C160.638 80.435 160.99 80.6846 160.977 80.915C160.83 83.6606 161.297 86.4509 159.621 89.0237C158.802 90.278 158.502 91.942 158.233 93.4716C157.414 98.1691 156.73 102.886 155.982 107.596C155.508 110.572 155.016 113.548 154.536 116.518Z" fill="black"/>
<path d="M60.369 66.509C59.8765 65.9778 59.2369 65.5234 58.9171 64.9026C57.8681 62.8803 57.1517 60.7491 57.6954 58.4068C58.3606 58.5348 59.0258 58.6628 59.9341 58.8419C59.7934 55.1492 59.6654 51.5461 59.5183 47.943C59.4927 47.2966 59.3072 46.6502 59.3392 46.0166C59.352 45.6902 59.6846 45.3766 59.8701 45.0566C60.1004 45.3126 60.4906 45.543 60.529 45.8246C60.7656 47.5974 61.079 49.3829 61.0726 51.1621C61.0598 55.6548 60.8999 60.1475 60.7656 64.6402C60.74 65.261 60.5034 65.8882 60.369 66.509Z" fill="black"/>
<path d="M107.862 241.372C108.297 241.545 108.732 241.718 109.161 241.89C108.898 249.89 108.636 257.884 108.374 265.884C108.367 266.114 108.457 266.396 108.355 266.562C108.156 266.882 107.849 267.132 107.587 267.413C107.363 267.151 107.075 266.914 106.947 266.613C106.839 266.351 106.909 266.012 106.922 265.704C107.235 257.596 107.549 249.487 107.862 241.372Z" fill="black"/>
<path d="M186.979 60.5693C187.215 59.4941 187.33 58.3742 187.72 57.3566C189.217 53.4271 189.575 49.2672 190.343 45.1904C190.465 44.5441 190.337 43.4177 191.328 43.5649C192.396 43.7185 191.725 44.6977 191.629 45.2736C190.899 49.7471 190.439 54.2719 188.827 58.5662C188.245 60.1149 188.418 61.6317 189.371 63.0397C189.71 63.5389 189.978 64.1084 190.151 64.6844C190.228 64.934 190.062 65.4204 189.85 65.542C189.665 65.6508 189.089 65.5036 189 65.3116C188.245 63.7949 187.017 62.4573 186.979 60.5693Z" fill="black"/>
<path d="M39.6325 212.253C40.0547 212.272 40.4768 212.291 40.8926 212.311C40.3233 215.216 39.7796 218.128 39.172 221.027C38.9801 221.949 38.6347 222.845 38.3149 223.734C38.2125 224.016 37.9631 224.24 37.7776 224.496C37.4961 224.278 37.074 224.118 36.9589 223.837C36.5815 222.922 36.2872 221.974 36.0122 221.021C35.3022 218.57 34.6114 216.112 33.9462 213.655C33.863 213.354 33.9334 212.976 34.0421 212.675C34.0933 212.541 34.5218 212.381 34.5986 212.445C34.8289 212.637 35.0527 212.919 35.1423 213.2C35.8971 215.677 36.6262 218.166 37.3618 220.65C37.4066 220.79 37.477 220.925 37.6497 221.309C38.5388 218.179 39.4534 215.299 39.6325 212.253Z" fill="black"/>
<path d="M196.221 49.0947C196.784 49.5875 197.206 50.0611 197.725 50.4003C198.594 50.9826 199.49 51.5266 200.424 51.9874C200.724 52.1346 201.172 51.9874 201.55 51.9618C201.933 51.9362 202.317 51.8914 202.695 51.853C202.541 52.3074 202.522 52.909 202.208 53.197C201.569 53.7858 200.219 53.5746 199.439 53.005C198.812 52.5442 198.108 52.1858 197.443 51.7698C196.989 51.4882 196.49 51.2578 196.113 50.8994C194.507 49.3827 194.75 48.3075 196.624 47.1491C198.134 46.2147 199.464 44.9924 200.872 43.898C201.14 43.6868 201.37 43.3732 201.677 43.2644C202.016 43.1428 202.426 43.2004 202.803 43.1748C202.701 43.5332 202.714 44.0388 202.477 44.2308C200.648 45.7156 198.774 47.1363 196.912 48.5763C196.765 48.6915 196.612 48.8003 196.221 49.0947Z" fill="black"/>
<path d="M80.8697 49.1459C77.2494 49.0243 74.5117 48.2563 71.8892 47.0532C71.3519 46.81 70.8658 46.3876 70.45 45.9588C70.2837 45.786 70.3733 45.3636 70.3413 45.0564C70.6611 45.0436 71.0769 44.9028 71.2752 45.05C73.5651 46.746 76.2323 47.4244 78.97 47.6228C80.6842 47.7444 82.4304 47.3284 84.1638 47.1364C84.4261 47.1108 84.7011 46.9124 84.9314 46.9636C85.2832 47.0468 85.603 47.2772 85.9356 47.4436C85.6989 47.7316 85.5006 48.2179 85.2128 48.2819C83.5498 48.6723 81.8611 48.9539 80.8697 49.1459Z" fill="black"/>
<path d="M203.232 60.0706C198.805 59.6034 195.249 57.9011 192.255 54.9507C192.121 54.8163 191.942 54.6755 191.897 54.5091C191.789 54.0867 191.744 53.6452 191.667 53.21C192.07 53.3636 192.588 53.402 192.863 53.6835C195.396 56.2947 198.409 57.9267 202.055 58.2978C202.394 58.3298 202.745 58.3106 203.084 58.3618C203.673 58.445 204.6 58.1251 204.6 59.0594C204.6 59.3922 203.711 59.7314 203.232 60.0706Z" fill="black"/>
<path d="M80.5947 42.6627C80.2109 42.5795 79.6928 42.5475 79.2579 42.3491C78.1321 41.8308 77.0192 41.274 75.9638 40.634C75.6823 40.4612 75.6248 39.93 75.4648 39.5588C75.855 39.5396 76.2964 39.3924 76.6162 39.5332C77.6396 39.9812 78.5671 40.7172 79.6289 40.9924C80.5308 41.2228 81.5798 41.0756 82.5136 40.8708C82.7951 40.8132 82.8974 40.0004 83.1213 39.5524C83.294 39.194 83.5242 38.8612 83.7289 38.5156C83.9656 38.8484 84.3494 39.162 84.4069 39.5268C84.6308 40.986 83.7353 42.1571 82.2961 42.4003C81.7589 42.4963 81.2344 42.5667 80.5947 42.6627Z" fill="black"/>
<path d="M209.423 42.3169C212.206 42.2465 216.184 44.7232 217.246 47.0528C217.374 47.328 217.534 47.6288 217.521 47.9104C217.515 48.2048 217.317 48.4928 217.208 48.7872C216.92 48.6656 216.44 48.6208 216.364 48.4224C215.18 45.184 212.411 44.2561 209.462 43.5201C209.206 43.4561 209.04 43.0209 208.829 42.7585C209.078 42.5793 209.321 42.3937 209.423 42.3169Z" fill="black"/>
<path d="M212.206 49.5045C210.306 50.1509 209.506 49.5813 209.577 47.5141C209.212 47.4245 208.796 47.3669 208.432 47.2069C208.227 47.1173 207.939 46.7973 207.978 46.6629C208.048 46.4261 208.304 46.1381 208.534 46.0741C210.095 45.6454 213.427 47.8789 213.626 49.5173C213.67 49.9077 213.376 50.3429 213.235 50.7588C212.941 50.4389 212.641 50.1253 212.346 49.7989C212.282 49.7157 212.25 49.6005 212.206 49.5045Z" fill="black"/>
<path d="M199.79 38.3624C199.432 38.2856 199.042 38.2728 198.716 38.1128C198.479 38.004 198.191 37.7096 198.191 37.4984C198.191 37.3 198.511 36.98 198.742 36.9224C200.424 36.4744 203.468 38.9512 203.334 40.6535C203.315 40.9287 203.053 41.2615 202.81 41.4151C202.694 41.4855 202.349 41.1847 202.112 41.0375C201.92 40.9159 201.748 40.6727 201.549 40.6535C199.874 40.5191 199.624 40.2183 199.79 38.3624Z" fill="black"/>
<path d="M182.859 94.8729C183.614 94.0153 184.158 93.4074 184.695 92.793C185.296 93.3754 185.898 93.9577 186.492 94.5401C185.808 95.0649 185.175 95.7177 184.401 96.0313C184.145 96.1401 183.531 95.3977 182.859 94.8729Z" fill="black"/>
<path d="M219.069 15.5342C219.478 15.963 219.939 16.3598 220.278 16.8398C220.444 17.0701 220.489 17.4989 220.393 17.7677C220.335 17.9213 219.875 18.0493 219.632 18.0045C218.608 17.8253 217.591 17.6077 216.6 17.3261C216.478 17.2877 216.491 16.763 216.44 16.4622C217.316 16.155 218.193 15.8414 219.069 15.5342Z" fill="#F85E60"/>
<path d="M81.9185 84.0057C81.944 85.4777 81.2724 86.4185 80.4793 86.4569C79.7245 86.4953 79.0401 85.7401 79.2896 84.6585C79.4239 84.0761 80.281 83.5577 80.927 83.2633C81.1445 83.1609 81.7202 83.8457 81.9185 84.0057Z" fill="black"/>
<path d="M58.8084 35.9173C58.9491 36.4677 59.4033 37.3829 59.1986 37.5685C58.463 38.2341 58.0153 37.2933 57.5419 36.9093C56.5441 36.0965 56.6592 35.0982 57.8042 34.6054C58.1752 34.4454 58.6933 34.631 59.141 34.6566C59.0387 35.0854 58.9235 35.5077 58.8084 35.9173Z" fill="black"/>
<path d="M77.5883 52.5317C77.1789 52.3077 76.5201 52.0261 75.9828 51.6101C75.8101 51.4757 75.9316 50.9574 75.9189 50.6182C76.2195 50.6374 76.5329 50.6246 76.8271 50.6758C77.39 50.7654 77.9465 50.8742 78.503 51.0086C78.8931 51.1046 79.2705 51.2518 79.6543 51.3733C79.3665 51.6869 79.1106 52.0581 78.7716 52.2949C78.5477 52.4421 78.1896 52.4165 77.5883 52.5317Z" fill="black"/>
<path d="M222.005 59.2452C222.03 60.3203 221.013 61.4723 220.278 61.3891C220.003 61.3571 219.568 60.9859 219.549 60.7491C219.491 59.8211 220.361 58.6436 221.039 58.7204C221.423 58.7588 221.775 59.1172 222.005 59.2452Z" fill="black"/>
<path d="M195.307 59.4748C194.98 59.686 194.616 60.0508 194.507 59.9868C193.861 59.5964 193.234 59.142 192.697 58.6172C192.588 58.5084 192.876 57.99 192.985 57.6572C193.305 57.766 193.682 57.798 193.925 58.0028C194.379 58.3996 194.769 58.8924 195.307 59.4748Z" fill="black"/>
<path d="M176.425 150.033C176.386 154.193 176.354 158.353 176.303 162.519C176.233 168.362 176.13 174.205 176.066 180.055C175.983 187.466 175.894 194.871 175.868 202.282C175.868 203.242 175.542 203.683 174.71 204.061C163.702 208.982 152.707 213.936 141.705 218.877C139.684 219.785 137.682 220.72 135.642 221.577C135.207 221.763 134.554 221.833 134.151 221.648C128.676 219.126 123.233 216.553 118.013 214.102C117.975 213.277 118 212.656 117.911 212.048C117.386 208.509 116.747 204.976 116.331 201.424C116.018 198.704 115.954 195.952 115.832 193.207C115.762 191.645 115.851 190.071 115.781 188.509C115.768 188.208 115.359 187.92 115.135 187.626C114.956 187.92 114.617 188.215 114.617 188.509C114.61 193.699 114.348 198.896 115.212 204.054C115.723 207.126 116.081 210.218 116.516 213.353C114.259 212.291 111.898 211.184 109.544 210.064C104.888 207.856 100.244 205.635 95.5812 203.44C94.9607 203.146 94.6729 202.813 94.6793 202.07C94.7433 188.887 94.7625 175.709 94.8136 162.526C94.8392 155.876 94.884 149.233 94.9543 142.584C94.9671 141.227 95.1334 139.877 95.2422 138.366C97.6536 139.518 99.9499 140.613 102.24 141.713C111.553 146.2 120.866 150.692 130.179 155.185C130.448 155.313 130.691 155.505 130.953 155.665C130.806 155.831 130.544 155.979 130.524 156.158C130.237 159.038 129.834 161.918 129.763 164.81C129.706 167.306 131.266 168.938 133.735 169.348C135.61 169.655 137.631 170.193 139.326 169.073C142.818 166.762 146.17 164.247 149.573 161.809C149.893 161.579 150.18 161.297 150.66 160.887C150.66 161.335 150.66 161.547 150.66 161.758C150.628 168.394 149.637 174.903 148.05 181.335C146.822 186.314 146.093 191.351 146.125 196.503C146.151 200.426 146.087 204.355 145.786 208.266C145.588 210.902 145.153 213.565 143.65 215.888C143.515 216.099 143.675 216.681 143.893 216.873C144.065 217.027 144.699 216.963 144.833 216.777C145.217 216.272 145.511 215.677 145.722 215.081C146.995 211.453 147.577 207.696 147.635 203.856C147.679 200.88 147.679 197.898 147.628 194.922C147.571 191.152 148.204 187.485 148.94 183.805C149.912 178.909 150.878 174.007 151.6 169.066C152.029 166.174 151.978 163.21 152.182 160.279C152.214 159.863 152.374 159.377 152.649 159.076C155.854 155.601 159.186 152.235 162.282 148.67C163.626 147.128 164.502 145.182 165.596 143.416C169.171 141.758 172.753 140.101 176.303 138.456C176.303 140.152 176.303 141.733 176.303 143.307C176.169 143.729 175.983 144.139 175.919 144.568C175.823 145.169 175.887 145.796 175.759 146.385C174.57 151.742 173.399 157.111 172.12 162.443C171.237 166.11 170.31 169.777 169.146 173.361C168.634 174.935 168.468 176.445 168.544 178.045C168.755 182.576 168.979 187.108 169.184 191.639C169.331 194.877 169.44 198.115 169.644 201.354C169.67 201.738 170.195 202.083 170.482 202.448C170.655 202.038 170.988 201.622 170.981 201.219C170.949 199.85 170.757 198.487 170.693 197.111C170.457 191.895 170.15 186.672 170.06 181.45C170.015 178.858 169.798 176.298 170.527 173.649C172.657 165.834 174.474 157.918 176.425 150.033ZM114.457 179.402C114.457 180.81 114.406 182.148 114.489 183.472C114.514 183.844 114.943 184.189 115.186 184.548C115.391 184.189 115.749 183.844 115.768 183.479C115.838 182.224 115.749 180.957 115.819 179.703C115.838 179.325 116.094 178.833 116.401 178.628C120.597 175.882 123.546 172.094 124.806 167.313C125.638 164.145 125.638 160.753 126.009 157.463C126.079 156.817 126.169 156.171 126.169 155.524C126.169 155.262 125.964 154.993 125.855 154.731C125.567 154.865 125.132 154.923 125.024 155.147C124.793 155.607 124.672 156.145 124.627 156.657C124.41 159.204 124.314 161.764 124.026 164.298C123.431 169.495 120.553 173.405 116.708 176.689C116.049 177.252 114.962 177.949 114.297 177.764C112.506 177.277 110.485 176.913 109.442 175.057C108.828 173.969 108.169 172.842 107.875 171.646C106.839 167.486 105.131 163.62 102.822 160.055C100.385 156.292 98.031 152.523 96.9372 148.107C96.8477 147.755 96.4191 147.486 96.1441 147.172C96.0097 147.224 95.8754 147.275 95.7411 147.332C95.7731 147.902 95.7155 148.484 95.8498 149.028C96.8029 152.894 98.6578 156.324 100.845 159.633C103.212 163.204 105.182 166.986 106.218 171.198C106.519 172.407 107.05 173.565 107.542 174.724C108.815 177.713 111.591 178.545 114.457 179.402ZM106.749 150.648C108.579 150.776 110.069 149.688 111.514 148.548C111.994 148.171 112.506 147.627 111.917 147.038C111.764 146.884 110.964 147.16 110.632 147.435C107.478 150.046 103.954 149.873 101.376 146.718C100.289 145.387 99.6301 143.717 98.7282 142.232C98.5491 141.931 98.1461 141.771 97.8455 141.541C97.724 141.899 97.4361 142.296 97.5065 142.616C97.66 143.313 97.935 144.004 98.2613 144.644C99.9947 148.081 102.444 150.552 106.749 150.648ZM169.83 155.748C170.975 155.761 171.717 155.051 171.711 154.263C171.704 153.643 170.77 152.612 170.163 152.696C169.126 152.83 169.082 153.758 169.011 154.513C168.941 155.249 169.35 155.735 169.83 155.748ZM163.958 195.946C164.188 196.112 164.553 196.567 164.994 196.656C165.704 196.797 166.753 195.715 166.613 194.954C166.529 194.512 166.063 193.943 165.653 193.815C164.911 193.584 164.003 194.64 163.958 195.946ZM166.299 173.623C165.992 173.393 165.583 172.861 165.09 172.772C164.208 172.612 163.67 173.277 163.677 174.244C163.677 175.025 164.092 175.492 164.841 175.473C165.743 175.453 166.146 174.833 166.299 173.623Z" fill="white"/>
<path d="M206.251 139.794C210.05 146.885 213.869 153.97 217.649 161.074C219.709 164.945 221.788 168.805 223.719 172.74C224.218 173.752 224.308 175.025 224.352 176.184C224.583 182.02 224.615 187.87 224.947 193.694C225.235 198.711 225.804 203.716 226.329 208.721C227.02 215.319 227.781 221.917 228.51 228.509C228.529 228.694 228.51 228.88 228.51 229.2C223.035 231.114 217.361 230.928 211.7 230.826C211.361 230.819 211.016 230.653 210.421 230.493C211.669 229.75 211.291 228.88 211.189 227.971C210.658 223.235 210.018 218.5 209.775 213.744C209.59 210.122 209.174 206.596 207.831 203.229C207.511 202.436 206.731 201.821 205.694 201.898C205.797 189.079 205.912 176.267 205.995 163.448C206.046 156.043 206.059 148.645 206.097 141.24C206.11 140.76 206.2 140.274 206.251 139.794Z" fill="white"/>
<path d="M131.816 156.132C132.168 156.248 132.59 156.28 132.872 156.497C134.151 157.483 135.296 157.124 136.639 156.497C145.242 152.523 153.89 148.632 162.525 144.721C162.832 144.581 163.171 144.497 163.491 144.389C163.107 144.997 162.787 145.662 162.34 146.213C159.097 150.206 155.681 154.02 151.952 157.592C148.351 161.041 144.443 164.004 140.336 166.807C137.938 168.439 135.628 168.459 133.198 167.684C132.366 167.415 131.599 166.321 131.221 165.425C130.882 164.612 131.023 163.543 131.106 162.603C131.292 160.44 131.567 158.289 131.816 156.132Z" fill="white"/>
<path d="M131.817 156.133C131.574 158.289 131.292 160.44 131.107 162.603C131.023 163.544 130.883 164.606 131.222 165.425C131.599 166.321 132.367 167.422 133.198 167.684C135.629 168.465 137.944 168.439 140.337 166.808C144.449 164.011 148.351 161.041 151.952 157.592C155.681 154.021 159.097 150.206 162.34 146.213C162.788 145.656 163.114 144.997 163.491 144.389C164.189 144.062 164.879 143.742 165.577 143.416C164.489 145.176 163.606 147.122 162.263 148.67C159.167 152.235 155.835 155.601 152.63 159.076C152.355 159.371 152.189 159.864 152.163 160.28C151.959 163.211 152.01 166.174 151.581 169.067C150.852 174.001 149.893 178.91 148.92 183.806C148.191 187.485 147.552 191.153 147.609 194.922C147.654 197.898 147.654 200.88 147.616 203.856C147.558 207.69 146.982 211.453 145.703 215.082C145.492 215.683 145.198 216.278 144.814 216.778C144.673 216.963 144.04 217.021 143.874 216.874C143.656 216.682 143.496 216.099 143.631 215.888C145.134 213.559 145.569 210.903 145.767 208.266C146.061 204.362 146.125 200.426 146.106 196.503C146.074 191.351 146.803 186.314 148.031 181.335C149.618 174.903 150.609 168.395 150.641 161.758C150.641 161.547 150.641 161.336 150.641 160.888C150.161 161.291 149.874 161.572 149.554 161.809C146.151 164.248 142.799 166.763 139.307 169.073C137.612 170.193 135.597 169.662 133.716 169.348C131.247 168.939 129.687 167.307 129.744 164.811C129.815 161.924 130.218 159.038 130.505 156.158C130.525 155.979 130.787 155.825 130.934 155.665C131.171 155.755 131.401 155.845 131.638 155.934C131.708 156.011 131.772 156.081 131.842 156.158C131.849 156.152 131.817 156.133 131.817 156.133Z" fill="black"/>
<path d="M52.3228 76.5562C52.1181 74.8026 51.9966 73.0554 51.6895 71.3467C51.4017 69.7083 50.9092 68.1083 50.5318 66.4828C50.455 66.15 50.3719 65.6444 50.5446 65.4524C52.2268 63.6476 53.9602 61.8941 55.6937 60.1341C55.8344 59.9869 56.0838 59.9485 56.4228 59.7949C56.2693 62.2333 56.909 64.3964 58.201 66.246C59.4803 68.0763 61.0538 69.6955 62.4418 71.3403C59.992 74.649 56.6211 76.3898 52.3228 76.5562Z" fill="white"/>
<path d="M176.425 150.033C174.474 157.918 172.657 165.835 170.502 173.655C169.772 176.305 169.984 178.865 170.035 181.457C170.124 186.679 170.431 191.895 170.668 197.117C170.732 198.487 170.924 199.856 170.956 201.226C170.969 201.629 170.636 202.045 170.457 202.455C170.163 202.09 169.645 201.738 169.619 201.36C169.414 198.128 169.306 194.884 169.158 191.645C168.947 187.114 168.73 182.583 168.519 178.052C168.442 176.458 168.608 174.948 169.12 173.367C170.284 169.783 171.212 166.116 172.094 162.449C173.38 157.112 174.544 151.749 175.734 146.392C175.862 145.803 175.798 145.176 175.894 144.574C175.964 144.145 176.15 143.729 176.278 143.313C176.367 143.499 176.54 143.691 176.54 143.877C176.521 145.925 176.469 147.979 176.425 150.033Z" fill="black"/>
<path d="M96.6495 83.9229C95.8499 82.1245 95.0568 80.3133 94.2444 78.5214C93.899 77.7598 93.6496 76.8958 93.1123 76.3006C92.4662 75.5902 91.5579 75.123 90.7456 74.5407C91.2701 73.7855 92.0057 72.7487 92.7285 71.7119C95.3126 75.1614 96.125 79.4814 96.6495 83.9229Z" fill="white"/>
<path d="M110.741 114.149C109.641 113.579 108.572 112.939 107.427 112.466C106.039 111.896 104.543 111.576 103.302 110.405C105.745 109.477 108.048 109.592 110.191 110.616C110.83 110.917 111.086 112.107 111.419 112.933C111.598 113.374 111.547 113.906 111.604 114.398C111.31 114.315 111.022 114.232 110.741 114.149Z" fill="white"/>
<path d="M131.848 156.152C131.778 156.075 131.714 156.005 131.644 155.928C131.708 156.005 131.778 156.081 131.848 156.152Z" fill="white"/>
<path d="M217.924 241.334C215.545 241.021 213.165 240.726 210.792 240.387C210.268 240.31 209.762 240.112 209.257 239.939C207.715 239.408 206.999 238.403 206.948 236.694C206.846 233.072 206.532 229.456 206.366 225.84C206.334 225.2 205.944 224.106 206.98 224.067C208.01 224.029 207.562 225.111 207.607 225.712C207.895 229.482 208.099 233.251 208.425 237.014C208.464 237.501 208.924 238.166 209.359 238.352C210.396 238.8 211.521 239.171 212.634 239.28C215.014 239.51 217.412 239.536 219.798 239.702C220.092 239.721 220.361 240.073 220.642 240.272C220.425 240.534 220.246 240.963 219.984 241.033C219.325 241.193 218.628 241.187 217.95 241.251C217.937 241.283 217.93 241.309 217.924 241.334Z" fill="white"/>
<path d="M220.259 248.111C219.696 248.444 219.376 248.77 219.203 248.706C218.839 248.578 218.544 248.239 218.218 247.983C218.436 247.778 218.685 247.388 218.871 247.42C219.248 247.477 219.593 247.765 220.259 248.111Z" fill="white"/>
<path d="M232.949 50.0228C231.951 49.69 231.094 49.402 230.237 49.1204C230.448 46.9509 230.774 44.8453 230.832 42.727C230.998 36.4615 229.489 30.5672 226.661 24.9865C226.271 24.2122 225.881 23.3994 225.715 22.561C225.612 22.049 225.932 21.4474 226.06 20.8906C226.565 21.153 227.269 21.281 227.538 21.697C229.034 23.9882 230.665 26.2409 231.798 28.7113C233.947 33.3896 235.38 38.2983 234.887 43.5525C234.67 45.7989 234.132 47.9685 232.949 50.0228Z" fill="#F85E60"/>
<path d="M185.821 71.4369C187.074 70.9889 188.577 70.4513 190.298 69.8369C190.074 70.8737 189.901 71.7057 189.716 72.5377C189.441 73.8048 189.204 75.0784 188.872 76.3328C188.776 76.6912 188.501 77.1392 188.187 77.2736C186.422 78.0287 184.618 78.7071 182.642 79.4815C183.735 76.7232 184.74 74.176 185.821 71.4369Z" fill="white"/>
<path d="M242.057 55.0786C242.153 53.8243 242.198 52.5635 242.358 51.3219C242.78 48.1092 242.057 45.0308 241.379 41.9333C241.303 41.5685 241.597 41.1205 241.718 40.7109C242.006 41.0117 242.441 41.2677 242.55 41.6197C243.752 45.5748 244.021 49.5876 243.541 53.7091C243.177 56.8514 243.861 59.9297 244.705 62.9569C244.821 63.3793 244.616 63.8912 244.565 64.3584C244.174 64.0384 243.567 63.8017 243.426 63.3921C242.505 60.7105 242.064 57.933 242.057 55.0786Z" fill="white"/>
<path d="M224.704 45.9138C224.826 44.1922 224.966 42.5283 225.043 40.8643C225.222 36.9796 224.499 33.2101 223.591 29.4598C223.502 29.0886 223.335 28.711 223.367 28.3526C223.393 28.039 223.655 27.751 223.809 27.4502C224.071 27.655 224.519 27.8278 224.57 28.071C225.216 31.3157 225.907 34.554 226.367 37.8308C226.617 39.5907 226.399 41.4083 226.476 43.1939C226.546 44.493 226.162 45.4402 224.704 45.9138Z" fill="white"/>
<path d="M221.826 18.5994C223.393 18.6122 224.602 19.3225 224.736 20.3977C224.787 20.8137 224.5 21.2681 224.365 21.7033C224.071 21.4089 223.79 21.0953 223.483 20.8137C223.169 20.5257 222.869 20.1865 222.491 20.0201C222.165 19.8793 221.73 20.0265 221.372 19.9241C221.058 19.8345 220.796 19.5785 220.508 19.3929C220.783 19.1369 221.039 18.8554 221.346 18.6442C221.481 18.5546 221.717 18.6122 221.826 18.5994Z" fill="white"/>
<path d="M229.604 51.1172C230.461 51.4052 231.132 51.6292 231.925 51.898C231.401 52.6404 230.992 53.3251 230.467 53.9139C230.288 54.1123 229.744 54.2339 229.54 54.1059C229.271 53.9395 228.99 53.4787 229.022 53.1844C229.111 52.5188 229.38 51.8788 229.604 51.1172Z" fill="#F85E60"/>
<path d="M208.707 84.4984C208.605 84.5048 208.496 84.5112 208.394 84.524C208.426 84.4408 208.464 84.3576 208.496 84.2744C208.566 84.3512 208.637 84.428 208.707 84.4984Z" fill="white"/>
<path d="M69.6633 26.0488C66.9832 26.4648 64.2968 26.8808 61.6167 27.3032C61.8214 26.9512 61.9429 26.4648 62.2435 26.2792C63.5612 25.4729 64.1113 24.2121 64.4311 22.8041C64.9684 20.4234 65.4545 18.0362 65.9854 15.6555C66.1325 14.9899 66.1709 14.4075 65.608 13.8827C65.3777 13.6651 65.205 13.2939 65.1795 12.9739C65.1539 12.6923 65.3586 12.3915 65.4673 12.0971C65.7551 12.2187 66.2221 12.2699 66.2988 12.4747C66.7658 13.6651 67.367 13.4219 68.3457 13.0123C69.4394 12.5579 70.7059 12.5195 71.902 12.3147C74.0768 11.9499 76.2451 11.5404 78.4327 11.2524C79.6864 11.086 80.9976 11.3548 81.7268 12.4427C83.4922 15.0795 86.3194 16.1739 88.9419 17.473C90.4834 18.2346 91.59 19.3162 92.7285 20.4874C93.931 21.7097 94.3788 23.0025 94.0782 24.7817C93.8351 26.1896 94.2381 27.7064 94.3212 29.172C94.3468 29.6136 94.27 30.0616 94.2381 30.5032C92.8181 29.9464 91.3917 29.3896 89.9717 28.8264C89.5943 28.6792 89.2233 28.468 88.8267 28.3976C87.6306 28.1864 86.3961 27.8536 85.3407 28.8264C85.0785 28.8712 84.7395 28.8264 84.5668 28.9736C83.4091 29.9592 82.1298 29.4088 80.8953 29.2936C80.6266 29.268 80.3644 29.0632 80.1277 28.9032C79.309 28.3592 78.503 27.796 77.6843 27.2392C77.4732 27.0408 77.3005 26.7464 77.0511 26.6632C74.6461 25.8505 72.209 25.2553 69.6633 26.0488Z" fill="white"/>
<path d="M62.3779 11.489C61.5016 11.5914 60.8683 11.7642 60.2607 11.7002C59.9472 11.6682 59.5955 11.265 59.4164 10.945C59.3076 10.753 59.4931 10.3947 59.5507 10.1067C59.8833 10.1963 60.2031 10.3179 60.5421 10.3627C60.7724 10.3947 61.073 10.4011 61.2521 10.2795C62.2755 9.58187 62.9855 10.0491 63.5292 10.9066C63.6955 11.1626 63.6188 11.5722 63.6507 11.9114C63.3117 11.8794 62.9663 11.8858 62.6465 11.7962C62.493 11.7578 62.397 11.5146 62.3779 11.489Z" fill="white"/>
<path d="M213.364 112.991C213.165 112.543 213.063 111.993 212.743 111.666C211.317 110.207 209.865 108.761 208.33 107.411C207.882 107.02 207.114 106.764 206.52 106.815C204.518 106.982 202.867 108.025 201.287 109.19C200.411 109.836 199.49 110.431 198.447 110.905C199.081 109.023 199.874 107.27 201.773 106.361C203.699 105.439 205.656 104.595 207.575 103.667C207.901 103.507 208.093 103.071 208.349 102.758C207.946 102.662 207.447 102.367 207.153 102.508C204.428 103.814 201.371 104.479 199.081 106.655C198.87 106.854 198.396 106.777 198.044 106.828L198.07 106.854C198.818 105.247 199.784 103.846 201.473 103.084C203.277 102.271 205.08 101.465 206.865 100.607C207.652 100.23 208.279 100.3 208.707 101.068C209.468 102.425 210.242 103.775 210.914 105.177C211.733 106.892 212.526 108.626 213.172 110.412C213.479 111.257 213.428 112.223 213.543 113.138C213.485 113.087 213.421 113.036 213.364 112.991Z" fill="white"/>
<path d="M196.637 103.385C198.242 102.668 199.854 101.951 201.46 101.234C201.498 101.318 201.543 101.401 201.581 101.484C200.264 102.201 198.952 102.943 197.609 103.622C197.347 103.756 196.957 103.641 196.624 103.641C196.63 103.558 196.63 103.474 196.637 103.385Z" fill="white"/>
<path d="M198.038 106.828C198.025 106.879 198.012 106.931 197.999 106.988C197.967 106.969 197.935 106.95 197.903 106.924C197.954 106.899 198.012 106.873 198.063 106.854L198.038 106.828Z" fill="white"/>
<path d="M80.9719 185.207C80.3323 184.83 79.8078 184.465 79.2385 184.19C78.8739 184.017 78.1447 183.812 78.1 183.889C77.8313 184.42 77.5307 185.035 77.5755 185.604C77.6074 186.071 78.0936 186.513 78.3046 187.262C77.8697 187.147 77.3388 187.147 77.0126 186.897C75.0169 185.374 73.0341 183.838 71.1215 182.219C69.612 180.939 68.2496 179.473 66.74 178.2C66.3691 177.886 65.6591 177.976 65.109 177.873C65.0706 178.43 64.7956 179.147 65.045 179.511C66.2539 181.297 67.6036 182.993 68.902 184.721C69.2666 185.207 69.6376 185.687 70.0022 186.174C69.9126 186.276 69.8231 186.379 69.7335 186.487C68.8125 186.014 67.8594 185.585 66.9831 185.041C66.3051 184.625 65.6591 184.113 65.1154 183.537C62.9982 181.316 60.4333 180.036 57.4717 179.217C53.2182 178.046 49.3356 176.024 45.76 173.393C42.0182 170.635 38.1548 168.043 34.4193 165.278C33.1464 164.337 32.0974 163.096 30.9077 161.957C33.3703 158.942 35.7434 156.133 39.7347 155.48C41.3721 155.211 42.6706 155.493 44.065 156.562C46.2589 158.238 48.6448 159.71 51.1074 160.965C52.3739 161.611 53.9665 161.771 55.4249 161.829C58.3161 161.937 61.22 161.905 64.1111 161.79C67.7571 161.643 70.7122 163.115 73.4626 165.336C75.4135 166.917 77.4475 168.414 79.5327 169.809C82.0145 171.467 83.7799 173.72 85.379 176.158C85.5325 176.388 85.4941 176.747 85.5389 177.048C85.2319 176.971 84.8801 176.964 84.6306 176.804C82.3215 175.256 80.0381 173.675 77.7354 172.113C76.1747 171.057 74.5692 170.059 73.0468 168.958C72.6439 168.67 72.5096 168.037 72.1514 167.653C71.9403 167.422 71.5501 167.352 71.2367 167.211C71.1599 167.544 70.9169 167.973 71.0384 168.203C71.5373 169.137 72.1066 170.046 72.7334 170.91C75.4391 174.641 78.407 178.2 80.4858 182.359C80.9016 183.159 81.5988 183.959 80.9719 185.207ZM77.3196 183.204C77.0446 182.775 76.8335 182.366 76.552 182.02C73.4562 178.302 70.3604 174.59 67.2262 170.91C67.0023 170.648 66.4906 170.641 66.1068 170.513C66.1516 170.916 66.0428 171.441 66.2603 171.71C68.6206 174.648 71.0384 177.547 73.4306 180.459C74.2302 181.431 74.9913 182.43 75.8229 183.371C76.0403 183.614 76.4497 183.748 76.7823 183.787C76.923 183.806 77.1085 183.447 77.3196 183.204Z" fill="white"/>
<path d="M76.3347 173.374C76.3027 173.297 76.2708 173.214 76.2388 173.137C76.3283 173.156 76.4115 173.175 76.501 173.194C76.4499 173.252 76.3923 173.31 76.3347 173.374Z" fill="#F85E60"/>
<path d="M67.2518 180.407C67.2198 180.4 67.1814 180.394 67.1494 180.388C67.175 180.4 67.207 180.413 67.2326 180.42C67.239 180.426 67.2518 180.407 67.2518 180.407Z" fill="#F85E60"/>
<path d="M18.8633 203.479C18.8761 203.21 18.8825 202.935 18.8953 202.666C18.8889 202.935 18.8761 203.204 18.8633 203.479Z" fill="white"/>
<path d="M88.3403 111.96C89.4789 110.2 90.5343 108.447 92.3509 107.365C92.5683 107.231 92.7282 106.924 92.8242 106.668C93.1632 105.727 94.225 104.831 95.2228 104.901C96.6876 105.004 98.1459 105.241 99.6427 105.669C99.2077 105.868 98.7856 106.092 98.3378 106.252C96.2718 107.001 94.7943 108.485 93.6301 110.239C92.2869 112.255 90.2912 111.884 88.3403 111.96Z" fill="white"/>
<path d="M105.918 108.396C104.05 108.754 102.157 109.004 100.334 109.509C99.1248 109.842 97.9607 110.45 96.8669 111.103C95.8947 111.679 95.0759 112.523 94.1421 113.17C93.6943 113.477 93.1314 113.618 92.543 113.707C94.5962 111.538 95.8499 108.549 98.9329 107.544C99.9819 107.205 101.165 107.032 102.253 107.135C103.506 107.25 104.722 107.762 105.956 108.101C105.943 108.197 105.931 108.3 105.918 108.396Z" fill="white"/>
<path d="M87.9632 104.422C90.0932 103.603 92.2488 102.969 94.6218 103.276C93.8159 103.833 92.946 104.191 92.4407 104.838C91.59 105.913 90.6689 105.977 89.5495 105.535C88.9994 105.318 88.4621 105.049 87.9185 104.806C87.9312 104.678 87.944 104.55 87.9632 104.422Z" fill="white"/>
<path d="M86.8756 57.466C86.8501 57.498 86.8245 57.5172 86.7989 57.5428C86.7733 57.4916 86.7413 57.4468 86.7349 57.3956C86.7285 57.3764 86.7797 57.3444 86.7989 57.3252C86.8245 57.37 86.8501 57.4212 86.8756 57.466Z" fill="white"/>
<path d="M93.8286 38.7844C93.899 38.6564 93.9757 38.5284 94.0461 38.4004C93.9757 38.5284 93.9054 38.6564 93.8286 38.7844Z" fill="white"/>
<path d="M71.3966 27.4502C73.84 27.4822 76.1747 27.8406 78.2599 29.2422C78.8995 29.6709 79.1553 30.1061 78.9826 30.9381C78.2535 34.5028 76.0083 35.9044 71.7996 35.3028C71.3838 35.2452 70.9744 35.1684 70.5651 35.0596C68.256 34.4644 67.4117 33.4405 67.2454 31.0661C67.1878 30.2341 67.0791 29.3958 67.1238 28.5638C67.1366 28.2822 67.5268 27.8342 67.789 27.7958C68.9852 27.6166 70.1941 27.559 71.3966 27.4502ZM75.0745 31.5909C75.3623 31.7253 75.6629 31.9621 75.9764 31.9877C76.2962 32.0197 76.6352 31.8469 76.9614 31.7573C76.8271 31.4373 76.7823 30.9637 76.5456 30.8165C74.3325 29.4534 72.0042 28.8454 69.5225 30.0741C69.2282 30.2213 69.0747 30.6629 68.8572 30.9701C69.209 31.0725 69.5544 31.2453 69.9126 31.2581C70.1877 31.2709 70.4755 31.0917 70.7442 31.0021C72.0874 33.3701 73.6353 33.2677 75.0745 31.5909Z" fill="white"/>
<path d="M87.4961 29.9528C89.7732 29.8312 91.7113 30.9128 93.6942 31.7383C94.0332 31.8791 94.2955 32.7175 94.2315 33.1847C94.0844 34.3431 93.8285 35.5079 93.4447 36.6086C92.9714 37.959 91.6666 38.055 90.5664 37.927C88.9609 37.7414 87.3746 37.3126 85.8139 36.871C84.6434 36.5382 84.0037 35.5911 83.8566 34.4199C83.7351 33.4471 83.6903 32.4231 83.863 31.4695C83.9462 31.0024 84.5474 30.452 85.0336 30.2856C85.8011 30.0232 86.671 30.0552 87.4961 29.9528ZM90.2849 34.4775C90.6815 34.4583 91.0717 34.4327 91.4683 34.4135C91.3467 33.9911 91.3531 33.4087 91.0717 33.1719C89.543 31.8791 87.752 31.7639 85.9226 32.3527C85.5453 32.4743 85.315 33.0503 85.0208 33.4151C85.4173 33.5815 85.8075 33.7479 86.2041 33.9207C87.2723 35.3031 88.6795 35.5143 90.2849 34.4775Z" fill="white"/>
<path d="M69.6631 26.0484C72.2088 25.2548 74.6458 25.85 77.0573 26.6756C77.3067 26.7588 77.4794 27.0532 77.6905 27.2516C75.8803 26.4196 73.9742 26.0868 71.985 26.1316C71.2046 26.1508 70.437 26.0804 69.6631 26.0484Z" fill="black"/>
<path d="M85.3408 28.8323C86.3962 27.8531 87.6307 28.1923 88.8268 28.4035C89.2234 28.4739 89.588 28.6851 89.9718 28.8323C88.4239 28.8323 86.8823 28.8323 85.3408 28.8323Z" fill="black"/>
<path d="M114.457 179.402C111.591 178.544 108.815 177.712 107.536 174.73C107.044 173.578 106.506 172.42 106.212 171.204C105.176 166.986 103.206 163.21 100.839 159.639C98.6516 156.337 96.7967 152.907 95.8436 149.035C95.7093 148.491 95.7668 147.902 95.7349 147.339C95.8692 147.288 96.0035 147.236 96.1378 147.179C96.4129 147.486 96.8414 147.755 96.931 148.113C98.0248 152.529 100.379 156.299 102.816 160.062C105.125 163.626 106.839 167.492 107.869 171.652C108.163 172.849 108.828 173.969 109.436 175.063C110.478 176.919 112.5 177.284 114.291 177.77C114.956 177.949 116.043 177.258 116.702 176.695C120.546 173.412 123.425 169.501 124.02 164.305C124.314 161.77 124.403 159.21 124.621 156.663C124.666 156.145 124.787 155.607 125.017 155.153C125.126 154.929 125.561 154.871 125.849 154.737C125.958 154.999 126.162 155.268 126.162 155.531C126.162 156.177 126.073 156.823 126.002 157.47C125.638 160.759 125.638 164.151 124.8 167.319C123.54 172.1 120.591 175.889 116.395 178.634C116.088 178.832 115.832 179.332 115.813 179.709C115.743 180.964 115.832 182.231 115.762 183.485C115.743 183.85 115.384 184.202 115.18 184.554C114.937 184.196 114.508 183.85 114.483 183.479C114.406 182.141 114.457 180.81 114.457 179.402Z" fill="#F85E60"/>
<path d="M106.749 150.647C102.438 150.551 99.9947 148.081 98.2613 144.651C97.9351 144.011 97.66 143.32 97.5065 142.622C97.4362 142.302 97.724 141.905 97.8455 141.547C98.1462 141.771 98.5427 141.937 98.7282 142.238C99.6301 143.723 100.289 145.4 101.376 146.724C103.954 149.88 107.478 150.052 110.632 147.441C110.971 147.16 111.764 146.891 111.917 147.044C112.506 147.633 111.988 148.177 111.515 148.555C110.069 149.688 108.579 150.769 106.749 150.647Z" fill="#F85E60"/>
<path d="M169.83 155.748C169.35 155.736 168.941 155.249 169.011 154.52C169.082 153.764 169.12 152.836 170.163 152.702C170.777 152.619 171.711 153.649 171.711 154.27C171.717 155.051 170.975 155.755 169.83 155.748Z" fill="black"/>
<path d="M163.958 195.946C164.003 194.641 164.911 193.585 165.647 193.815C166.062 193.943 166.529 194.513 166.606 194.954C166.747 195.716 165.704 196.797 164.988 196.656C164.553 196.567 164.188 196.112 163.958 195.946Z" fill="black"/>
<path d="M166.299 173.623C166.146 174.839 165.749 175.453 164.847 175.473C164.099 175.485 163.683 175.025 163.683 174.244C163.677 173.277 164.214 172.612 165.097 172.772C165.576 172.861 165.992 173.393 166.299 173.623Z" fill="black"/>
<path d="M77.3197 183.204C77.1086 183.447 76.9232 183.805 76.7824 183.786C76.4434 183.748 76.0341 183.613 75.823 183.37C74.9915 182.429 74.2239 181.431 73.4308 180.458C71.0321 177.546 68.6207 174.647 66.2604 171.709C66.043 171.441 66.1517 170.916 66.1069 170.513C66.4843 170.641 67.0024 170.647 67.2263 170.909C70.3605 174.589 73.4563 178.308 76.5522 182.02C76.8336 182.365 77.0383 182.775 77.3197 183.204Z" fill="black"/>
<path d="M75.0747 31.5909C73.6355 33.2613 72.0876 33.3701 70.7443 31.0085C70.4757 31.0981 70.1879 31.2773 69.9128 31.2645C69.5546 31.2453 69.2092 31.0789 68.8574 30.9765C69.0749 30.6693 69.2284 30.2277 69.5226 30.0805C72.0044 28.8518 74.3327 29.4598 76.5458 30.8229C76.7889 30.9701 76.8273 31.4437 76.9616 31.7637C76.6354 31.8469 76.2964 32.0197 75.9766 31.9941C75.6631 31.9621 75.3625 31.7317 75.0747 31.5909Z" fill="black"/>
<path d="M90.2852 34.4769C88.6797 35.5137 87.2725 35.3025 86.2043 33.9201C85.8078 33.7537 85.4176 33.5873 85.021 33.4145C85.3216 33.0498 85.5519 32.4738 85.9229 32.3522C87.7522 31.7634 89.5432 31.8786 91.0719 33.1713C91.3534 33.4081 91.3406 33.9905 91.4685 34.4129C91.0719 34.4385 90.6818 34.4577 90.2852 34.4769Z" fill="black"/>
</svg>
